STARTFONT 2.1
FONT -FontForge-Unifont Upper-Medium-R-Normal--16-150-75-75-P-127-ISO10646-1
SIZE 16 75 75
FONTBOUNDINGBOX 32 16 -16 -2
COMMENT "Generated by fontforge, http://fontforge.sourceforge.net"
COMMENT "Copyright (C) 1998-2020 Roman Czyborra, Paul Hardy,  Qianqian Fang, Andrew Miller, Johnnie Weaver, David Corbett, et al.  License GPLv2+: GNU GPL version 2 or later <http://gnu.org/licenses/gpl.html>  with the GNU Font Embedding Exception."
STARTPROPERTIES 36
FOUNDRY "FontForge"
FAMILY_NAME "Unifont Upper"
WEIGHT_NAME "Medium"
SLANT "R"
SETWIDTH_NAME "Normal"
ADD_STYLE_NAME ""
PIXEL_SIZE 16
POINT_SIZE 160
RESOLUTION_X 75
RESOLUTION_Y 75
SPACING "P"
AVERAGE_WIDTH 127
CHARSET_REGISTRY "ISO10646"
CHARSET_ENCODING "1"
FONTNAME_REGISTRY ""
CHARSET_COLLECTIONS "ISO10646-1"
FONT_NAME "UnifontUpperMedium"
FACE_NAME "Unifont Upper"
COPYRIGHT "Copyright (C) 1998-2020 Roman Czyborra, Paul Hardy,  Qianqian Fang, Andrew Miller, Johnnie Weaver, David Corbett, et al.  License GPLv2+: GNU GPL version 2 or later <http://gnu.org/licenses/gpl.html>  with the GNU Font Embedding Exception."
FONT_VERSION "13.0.02"
FONT_ASCENT 14
FONT_DESCENT 2
UNDERLINE_POSITION -2
UNDERLINE_THICKNESS 1
RAW_ASCENT 875
RAW_DESCENT 125
NORM_SPACE 8
RELATIVE_WEIGHT 50
RELATIVE_SETWIDTH 50
SUPERSCRIPT_X 0
SUPERSCRIPT_Y 7
SUPERSCRIPT_SIZE 11
SUBSCRIPT_X 0
SUBSCRIPT_Y 2
SUBSCRIPT_SIZE 11
FIGURE_WIDTH -1
ENDPROPERTIES
CHARS 12584
STARTCHAR uni0020
ENCODING 32
SWIDTH 500 0
DWIDTH 8 0
BBX 1 1 0 0
BITMAP
00
ENDCHAR
STARTCHAR uni010000
ENCODING 65536
SWIDTH 500 0
DWIDTH 8 0
BBX 7 11 1 0
BITMAP
82
82
FE
92
92
10
10
10
10
10
10
ENDCHAR
STARTCHAR uni010001
ENCODING 65537
SWIDTH 500 0
DWIDTH 8 0
BBX 7 11 1 0
BITMAP
10
28
44
7C
82
82
FE
82
82
82
82
ENDCHAR
STARTCHAR uni010002
ENCODING 65538
SWIDTH 500 0
DWIDTH 8 0
BBX 7 11 1 0
BITMAP
92
92
54
54
38
38
7C
10
10
10
10
ENDCHAR
STARTCHAR uni010003
ENCODING 65539
SWIDTH 500 0
DWIDTH 8 0
BBX 7 11 1 0
BITMAP
C4
A8
90
90
8E
82
82
82
82
82
FE
ENDCHAR
STARTCHAR uni010004
ENCODING 65540
SWIDTH 500 0
DWIDTH 8 0
BBX 4 11 2 0
BITMAP
70
A0
F0
A0
80
80
80
80
80
80
80
ENDCHAR
STARTCHAR uni010005
ENCODING 65541
SWIDTH 500 0
DWIDTH 8 0
BBX 5 11 1 0
BITMAP
80
80
80
80
80
F8
80
80
80
80
80
ENDCHAR
STARTCHAR uni010006
ENCODING 65542
SWIDTH 500 0
DWIDTH 8 0
BBX 7 11 1 0
BITMAP
54
AA
AA
00
FE
44
38
10
38
44
82
ENDCHAR
STARTCHAR uni010007
ENCODING 65543
SWIDTH 500 0
DWIDTH 8 0
BBX 7 11 1 0
BITMAP
FE
00
92
92
92
92
00
10
10
10
10
ENDCHAR
STARTCHAR uni010008
ENCODING 65544
SWIDTH 500 0
DWIDTH 8 0
BBX 6 11 2 0
BITMAP
20
48
84
48
2C
20
20
20
20
20
20
ENDCHAR
STARTCHAR uni010009
ENCODING 65545
SWIDTH 500 0
DWIDTH 8 0
BBX 7 11 1 0
BITMAP
A0
9A
74
68
A8
A8
A8
A4
94
54
52
ENDCHAR
STARTCHAR uni01000A
ENCODING 65546
SWIDTH 500 0
DWIDTH 8 0
BBX 7 11 1 0
BITMAP
FE
82
82
FE
82
82
82
FE
82
82
FE
ENDCHAR
STARTCHAR uni01000B
ENCODING 65547
SWIDTH 500 0
DWIDTH 8 0
BBX 7 11 1 0
BITMAP
82
82
44
44
BA
92
38
44
44
82
82
ENDCHAR
STARTCHAR uni01000D
ENCODING 65549
SWIDTH 500 0
DWIDTH 8 0
BBX 7 11 1 0
BITMAP
FE
80
B0
C8
88
10
20
20
20
10
10
ENDCHAR
STARTCHAR uni01000E
ENCODING 65550
SWIDTH 1000 0
DWIDTH 16 0
BBX 13 11 1 0
BITMAP
E000
1000
1000
1040
1040
1FF8
1248
1248
1248
1248
1248
ENDCHAR
STARTCHAR uni01000F
ENCODING 65551
SWIDTH 1000 0
DWIDTH 16 0
BBX 11 11 2 1
BITMAP
1F00
2480
4440
8420
8420
FFE0
8420
8420
4440
2480
1F00
ENDCHAR
STARTCHAR uni010010
ENCODING 65552
SWIDTH 500 0
DWIDTH 8 0
BBX 7 11 1 0
BITMAP
54
AA
AA
00
7C
54
54
54
92
92
92
ENDCHAR
STARTCHAR uni010011
ENCODING 65553
SWIDTH 500 0
DWIDTH 8 0
BBX 7 12 1 -1
BITMAP
48
90
FE
A2
A2
44
C4
44
28
28
10
10
ENDCHAR
STARTCHAR uni010012
ENCODING 65554
SWIDTH 500 0
DWIDTH 8 0
BBX 7 12 1 -1
BITMAP
7C
82
AA
AA
6C
28
28
28
28
28
10
10
ENDCHAR
STARTCHAR uni010013
ENCODING 65555
SWIDTH 1000 0
DWIDTH 16 0
BBX 12 11 2 0
BITMAP
3000
0C00
0400
0260
B290
AE20
4240
0240
0440
0C20
3010
ENDCHAR
STARTCHAR uni010014
ENCODING 65556
SWIDTH 500 0
DWIDTH 8 0
BBX 7 11 1 0
BITMAP
82
82
44
44
28
28
54
54
92
92
54
ENDCHAR
STARTCHAR uni010015
ENCODING 65557
SWIDTH 500 0
DWIDTH 8 0
BBX 7 11 1 0
BITMAP
E4
92
FA
14
12
10
10
10
10
10
10
ENDCHAR
STARTCHAR uni010016
ENCODING 65558
SWIDTH 500 0
DWIDTH 8 0
BBX 6 11 1 0
BITMAP
84
88
84
88
88
90
90
A0
A0
C0
80
ENDCHAR
STARTCHAR uni010017
ENCODING 65559
SWIDTH 500 0
DWIDTH 8 0
BBX 7 11 1 0
BITMAP
C4
28
E4
22
C4
08
08
08
08
08
08
ENDCHAR
STARTCHAR uni010018
ENCODING 65560
SWIDTH 500 0
DWIDTH 8 0
BBX 7 11 1 0
BITMAP
46
A4
A4
7C
24
2E
20
20
20
20
20
ENDCHAR
STARTCHAR uni010019
ENCODING 65561
SWIDTH 500 0
DWIDTH 8 0
BBX 5 11 2 0
BITMAP
F8
00
F8
00
88
50
20
20
20
20
20
ENDCHAR
STARTCHAR uni01001A
ENCODING 65562
SWIDTH 500 0
DWIDTH 8 0
BBX 7 11 1 0
BITMAP
38
92
54
92
7C
10
10
10
10
10
10
ENDCHAR
STARTCHAR uni01001B
ENCODING 65563
SWIDTH 500 0
DWIDTH 8 0
BBX 7 11 1 0
BITMAP
AA
AA
44
44
AA
AA
10
10
10
10
10
ENDCHAR
STARTCHAR uni01001C
ENCODING 65564
SWIDTH 1000 0
DWIDTH 16 0
BBX 10 11 3 0
BITMAP
AA00
AA00
AA00
AA40
FE80
0040
1080
2800
2800
4400
5400
ENDCHAR
STARTCHAR uni01001D
ENCODING 65565
SWIDTH 500 0
DWIDTH 8 0
BBX 7 11 1 0
BITMAP
82
82
82
BA
C6
82
C6
BA
82
82
82
ENDCHAR
STARTCHAR uni01001E
ENCODING 65566
SWIDTH 500 0
DWIDTH 8 0
BBX 5 11 2 0
BITMAP
20
20
20
F8
20
20
F8
20
20
20
20
ENDCHAR
STARTCHAR uni01001F
ENCODING 65567
SWIDTH 500 0
DWIDTH 8 0
BBX 5 13 1 -1
BITMAP
80
C0
A0
90
80
B0
88
B0
80
90
A0
C0
80
ENDCHAR
STARTCHAR uni010020
ENCODING 65568
SWIDTH 500 0
DWIDTH 8 0
BBX 7 11 1 0
BITMAP
10
28
FE
54
54
54
92
92
92
92
BA
ENDCHAR
STARTCHAR uni010021
ENCODING 65569
SWIDTH 500 0
DWIDTH 8 0
BBX 6 11 1 0
BITMAP
80
80
FC
80
80
FC
84
04
04
04
04
ENDCHAR
STARTCHAR uni010022
ENCODING 65570
SWIDTH 1000 0
DWIDTH 16 0
BBX 11 11 2 0
BITMAP
0380
0040
0040
0380
0D00
1880
2880
4440
4440
4440
EEE0
ENDCHAR
STARTCHAR uni010023
ENCODING 65571
SWIDTH 1000 0
DWIDTH 16 0
BBX 11 11 2 0
BITMAP
0400
4A40
9120
5140
0A00
0400
0400
0400
0400
0400
0400
ENDCHAR
STARTCHAR uni010024
ENCODING 65572
SWIDTH 1000 0
DWIDTH 16 0
BBX 11 11 2 0
BITMAP
1F00
2080
4040
8020
BBA0
8020
BBA0
8020
4040
2080
1F00
ENDCHAR
STARTCHAR uni010025
ENCODING 65573
SWIDTH 500 0
DWIDTH 8 0
BBX 7 11 1 0
BITMAP
FE
84
9A
6A
0C
08
08
08
08
08
08
ENDCHAR
STARTCHAR uni010026
ENCODING 65574
SWIDTH 500 0
DWIDTH 8 0
BBX 7 12 1 0
BITMAP
28
28
00
C6
38
00
38
10
10
10
10
10
ENDCHAR
STARTCHAR uni010028
ENCODING 65576
SWIDTH 500 0
DWIDTH 8 0
BBX 6 11 1 0
BITMAP
80
80
80
80
80
98
A4
A4
98
80
FC
ENDCHAR
STARTCHAR uni010029
ENCODING 65577
SWIDTH 500 0
DWIDTH 8 0
BBX 7 11 1 0
BITMAP
92
92
54
38
10
10
10
10
10
10
10
ENDCHAR
STARTCHAR uni01002A
ENCODING 65578
SWIDTH 500 0
DWIDTH 8 0
BBX 5 12 2 0
BITMAP
30
08
28
50
50
20
F8
20
50
50
88
88
ENDCHAR
STARTCHAR uni01002B
ENCODING 65579
SWIDTH 500 0
DWIDTH 8 0
BBX 5 11 2 0
BITMAP
20
20
20
20
20
F8
20
20
20
20
20
ENDCHAR
STARTCHAR uni01002C
ENCODING 65580
SWIDTH 500 0
DWIDTH 8 0
BBX 7 11 1 0
BITMAP
44
82
BA
54
10
10
10
10
10
10
38
ENDCHAR
STARTCHAR uni01002D
ENCODING 65581
SWIDTH 500 0
DWIDTH 8 0
BBX 7 11 1 0
BITMAP
82
82
44
44
28
28
54
92
10
10
10
ENDCHAR
STARTCHAR uni01002E
ENCODING 65582
SWIDTH 500 0
DWIDTH 8 0
BBX 7 11 1 0
BITMAP
AA
AA
80
FE
80
80
80
80
80
80
80
ENDCHAR
STARTCHAR uni01002F
ENCODING 65583
SWIDTH 500 0
DWIDTH 8 0
BBX 7 11 1 0
BITMAP
10
10
54
54
54
7C
54
92
BA
92
92
ENDCHAR
STARTCHAR uni010030
ENCODING 65584
SWIDTH 500 0
DWIDTH 8 0
BBX 7 11 1 0
BITMAP
88
E4
82
E4
88
08
08
08
08
08
08
ENDCHAR
STARTCHAR uni010031
ENCODING 65585
SWIDTH 500 0
DWIDTH 8 0
BBX 6 11 1 0
BITMAP
FC
84
84
FC
84
80
80
80
80
80
FC
ENDCHAR
STARTCHAR uni010032
ENCODING 65586
SWIDTH 500 0
DWIDTH 8 0
BBX 6 11 1 0
BITMAP
84
7C
44
40
20
20
20
40
44
7C
84
ENDCHAR
STARTCHAR uni010033
ENCODING 65587
SWIDTH 500 0
DWIDTH 8 0
BBX 7 11 1 0
BITMAP
10
10
10
D6
10
D6
10
D6
10
10
10
ENDCHAR
STARTCHAR uni010034
ENCODING 65588
SWIDTH 500 0
DWIDTH 8 0
BBX 7 11 1 0
BITMAP
10
28
28
44
54
54
92
92
92
92
82
ENDCHAR
STARTCHAR uni010035
ENCODING 65589
SWIDTH 500 0
DWIDTH 8 0
BBX 7 11 1 0
BITMAP
FE
10
FE
10
10
10
10
10
10
10
10
ENDCHAR
STARTCHAR uni010036
ENCODING 65590
SWIDTH 1000 0
DWIDTH 16 0
BBX 9 12 3 0
BITMAP
0200
0400
0800
6B00
9C80
8880
4900
2A00
2A00
1C00
1C00
0800
ENDCHAR
STARTCHAR uni010037
ENCODING 65591
SWIDTH 500 0
DWIDTH 8 0
BBX 7 11 1 0
BITMAP
FE
82
82
FE
82
92
92
92
92
92
92
ENDCHAR
STARTCHAR uni010038
ENCODING 65592
SWIDTH 500 0
DWIDTH 8 0
BBX 5 11 2 0
BITMAP
30
48
88
08
10
20
40
80
88
90
60
ENDCHAR
STARTCHAR uni010039
ENCODING 65593
SWIDTH 500 0
DWIDTH 8 0
BBX 7 11 1 0
BITMAP
02
04
08
18
28
28
44
7C
94
92
BA
ENDCHAR
STARTCHAR uni01003A
ENCODING 65594
SWIDTH 500 0
DWIDTH 8 0
BBX 8 12 0 0
BITMAP
02
01
3A
11
2A
28
44
44
44
82
82
FE
ENDCHAR
STARTCHAR uni01003C
ENCODING 65596
SWIDTH 500 0
DWIDTH 8 0
BBX 5 11 2 0
BITMAP
20
50
50
50
20
F8
20
20
20
20
20
ENDCHAR
STARTCHAR uni01003D
ENCODING 65597
SWIDTH 500 0
DWIDTH 8 0
BBX 5 12 2 0
BITMAP
80
B8
80
B8
80
B8
80
C0
A0
A0
C0
F8
ENDCHAR
STARTCHAR uni01003F
ENCODING 65599
SWIDTH 500 0
DWIDTH 8 0
BBX 7 11 1 0
BITMAP
10
38
54
92
38
10
10
10
10
10
10
ENDCHAR
STARTCHAR uni010040
ENCODING 65600
SWIDTH 500 0
DWIDTH 8 0
BBX 7 11 1 0
BITMAP
7C
00
BA
BA
54
10
10
10
10
10
10
ENDCHAR
STARTCHAR uni010041
ENCODING 65601
SWIDTH 1000 0
DWIDTH 16 0
BBX 10 11 1 0
BITMAP
4A80
2540
4A80
8000
7E00
1200
1200
2100
2100
4080
4080
ENDCHAR
STARTCHAR uni010042
ENCODING 65602
SWIDTH 500 0
DWIDTH 8 0
BBX 8 11 0 0
BITMAP
40
A0
78
44
53
41
7F
40
40
40
40
ENDCHAR
STARTCHAR uni010043
ENCODING 65603
SWIDTH 500 0
DWIDTH 8 0
BBX 7 12 1 -1
BITMAP
7C
82
AA
AA
6C
28
AA
6C
BA
6C
28
38
ENDCHAR
STARTCHAR uni010044
ENCODING 65604
SWIDTH 1000 0
DWIDTH 16 0
BBX 15 13 1 0
BITMAP
0280
0100
3AB8
1110
2AA8
2828
2828
4444
4444
4444
8282
8282
FEFE
ENDCHAR
STARTCHAR uni010045
ENCODING 65605
SWIDTH 1000 0
DWIDTH 16 0
BBX 13 11 1 0
BITMAP
A8A8
A8A8
8008
E038
1040
0880
0500
0200
0500
0880
1040
ENDCHAR
STARTCHAR uni010046
ENCODING 65606
SWIDTH 1000 0
DWIDTH 16 0
BBX 11 11 2 0
BITMAP
8420
AEA0
4440
A4A0
2480
1500
3F80
0400
0400
0400
0400
ENDCHAR
STARTCHAR uni010047
ENCODING 65607
SWIDTH 500 0
DWIDTH 8 0
BBX 7 11 1 0
BITMAP
C6
28
AA
92
82
82
82
82
82
82
FE
ENDCHAR
STARTCHAR uni010048
ENCODING 65608
SWIDTH 500 0
DWIDTH 8 0
BBX 7 12 1 0
BITMAP
12
24
FE
24
12
24
24
24
24
48
48
48
ENDCHAR
STARTCHAR uni010049
ENCODING 65609
SWIDTH 500 0
DWIDTH 8 0
BBX 7 13 1 -1
BITMAP
C6
54
AA
82
44
38
10
D6
10
D6
10
D6
10
ENDCHAR
STARTCHAR uni01004A
ENCODING 65610
SWIDTH 1000 0
DWIDTH 16 0
BBX 7 11 2 0
BITMAP
10
10
10
38
10
7C
92
92
54
38
10
ENDCHAR
STARTCHAR uni01004B
ENCODING 65611
SWIDTH 1000 0
DWIDTH 16 0
BBX 11 11 2 0
BITMAP
FFE0
8020
9520
9520
8020
8A20
4A40
4040
2480
2A80
1100
ENDCHAR
STARTCHAR uni01004C
ENCODING 65612
SWIDTH 500 0
DWIDTH 8 0
BBX 5 11 2 0
BITMAP
B0
88
88
88
90
A0
90
88
88
88
B0
ENDCHAR
STARTCHAR uni01004D
ENCODING 65613
SWIDTH 1000 0
DWIDTH 16 0
BBX 13 11 1 0
BITMAP
0200
0500
0880
1740
2020
4710
A028
2720
1240
1540
0880
ENDCHAR
STARTCHAR uni010050
ENCODING 65616
SWIDTH 500 0
DWIDTH 8 0
BBX 6 12 2 0
BITMAP
20
A8
50
50
50
20
2C
F0
2C
20
20
20
ENDCHAR
STARTCHAR uni010051
ENCODING 65617
SWIDTH 500 0
DWIDTH 8 0
BBX 5 11 2 0
BITMAP
20
50
50
50
20
F8
20
50
50
88
F8
ENDCHAR
STARTCHAR uni010052
ENCODING 65618
SWIDTH 1000 0
DWIDTH 16 0
BBX 11 11 2 0
BITMAP
2200
5100
8A80
0260
0200
0200
0200
0200
0200
0200
0200
ENDCHAR
STARTCHAR uni010053
ENCODING 65619
SWIDTH 500 0
DWIDTH 8 0
BBX 6 11 1 0
BITMAP
0C
10
10
20
70
A8
70
20
10
10
0C
ENDCHAR
STARTCHAR uni010054
ENCODING 65620
SWIDTH 500 0
DWIDTH 8 0
BBX 7 11 1 0
BITMAP
82
44
44
38
6C
54
6C
38
44
44
82
ENDCHAR
STARTCHAR uni010055
ENCODING 65621
SWIDTH 1000 0
DWIDTH 16 0
BBX 12 12 2 0
BITMAP
38E0
4510
8200
0000
1240
1240
2220
2220
7770
2220
4220
E770
ENDCHAR
STARTCHAR uni010056
ENCODING 65622
SWIDTH 500 0
DWIDTH 8 0
BBX 6 11 1 0
BITMAP
84
84
84
B4
84
B4
84
B4
84
84
84
ENDCHAR
STARTCHAR uni010057
ENCODING 65623
SWIDTH 1000 0
DWIDTH 16 0
BBX 15 11 1 0
BITMAP
E738
94A4
94A4
8C62
8420
8420
B5A0
8420
8420
8420
FFE0
ENDCHAR
STARTCHAR uni010058
ENCODING 65624
SWIDTH 1000 0
DWIDTH 16 0
BBX 11 11 2 0
BITMAP
F1E0
8020
BFA0
9120
8A20
8420
8A20
9120
BFA0
8020
F1E0
ENDCHAR
STARTCHAR uni010059
ENCODING 65625
SWIDTH 1000 0
DWIDTH 16 0
BBX 14 15 1 -2
BITMAP
0100
0200
0040
0C80
1210
1120
1084
4848
8420
1220
2120
04C0
0800
0100
0200
ENDCHAR
STARTCHAR uni01005A
ENCODING 65626
SWIDTH 500 0
DWIDTH 8 0
BBX 7 13 1 0
BITMAP
08
14
84
48
26
20
48
94
44
28
26
40
80
ENDCHAR
STARTCHAR uni01005B
ENCODING 65627
SWIDTH 1000 0
DWIDTH 16 0
BBX 9 12 1 0
BITMAP
8080
4100
3E00
4100
9480
1400
0000
FF00
0080
1C80
0280
0280
ENDCHAR
STARTCHAR uni01005C
ENCODING 65628
SWIDTH 1000 0
DWIDTH 16 0
BBX 14 11 1 0
BITMAP
8000
8000
8000
8000
8000
8000
8000
E004
9FF8
9010
FFE0
ENDCHAR
STARTCHAR uni01005D
ENCODING 65629
SWIDTH 1000 0
DWIDTH 16 0
BBX 13 11 1 0
BITMAP
0F80
0200
0200
7FF0
4210
4510
4510
4890
4890
5050
E038
ENDCHAR
STARTCHAR uni010080
ENCODING 65664
SWIDTH 500 0
DWIDTH 8 0
BBX 7 11 1 0
BITMAP
10
10
FE
28
44
44
44
82
82
82
82
ENDCHAR
STARTCHAR uni010081
ENCODING 65665
SWIDTH 500 0
DWIDTH 8 0
BBX 7 12 1 0
BITMAP
18
20
20
18
FE
10
AA
28
44
44
44
7C
ENDCHAR
STARTCHAR uni010082
ENCODING 65666
SWIDTH 1000 0
DWIDTH 16 0
BBX 14 13 1 0
BITMAP
20A0
2AC0
1100
0A00
3F80
4960
3098
2004
4138
42C0
8200
8100
8100
ENDCHAR
STARTCHAR uni010083
ENCODING 65667
SWIDTH 1000 0
DWIDTH 16 0
BBX 15 13 0 0
BITMAP
0880
1540
1740
08C0
4820
2910
9108
5204
2182
A172
410C
4080
4080
ENDCHAR
STARTCHAR uni010084
ENCODING 65668
SWIDTH 1000 0
DWIDTH 16 0
BBX 14 13 1 0
BITMAP
1100
2A80
2E80
1180
1040
9220
6210
2408
4304
42C4
8238
8100
8100
ENDCHAR
STARTCHAR uni010085
ENCODING 65669
SWIDTH 1000 0
DWIDTH 16 0
BBX 15 13 0 0
BITMAP
0880
1540
1740
08C0
0820
4910
3108
9204
6982
2162
511C
4080
4080
ENDCHAR
STARTCHAR uni010086
ENCODING 65670
SWIDTH 500 0
DWIDTH 8 0
BBX 7 11 1 0
BITMAP
7E
90
6C
00
10
28
28
28
44
44
44
ENDCHAR
STARTCHAR uni010087
ENCODING 65671
SWIDTH 500 0
DWIDTH 8 0
BBX 7 11 1 0
BITMAP
7E
90
6C
00
10
10
38
10
38
10
10
ENDCHAR
STARTCHAR uni010088
ENCODING 65672
SWIDTH 500 0
DWIDTH 8 0
BBX 7 11 1 0
BITMAP
24
52
88
00
10
28
28
28
44
44
44
ENDCHAR
STARTCHAR uni010089
ENCODING 65673
SWIDTH 500 0
DWIDTH 8 0
BBX 7 11 1 0
BITMAP
24
52
88
00
08
08
1C
08
1C
08
08
ENDCHAR
STARTCHAR uni01008A
ENCODING 65674
SWIDTH 1000 0
DWIDTH 16 0
BBX 10 12 3 0
BITMAP
4000
A000
FC00
2200
29C0
2040
3FC0
2000
5000
8800
8800
8800
ENDCHAR
STARTCHAR uni01008B
ENCODING 65675
SWIDTH 1000 0
DWIDTH 16 0
BBX 10 13 3 -1
BITMAP
4000
A000
FC00
2200
29C0
2040
3FC0
2000
7000
2000
7000
2000
2000
ENDCHAR
STARTCHAR uni01008C
ENCODING 65676
SWIDTH 1000 0
DWIDTH 16 0
BBX 11 11 2 0
BITMAP
60E0
9080
7F80
1080
2880
29C0
2800
4400
4400
4400
4400
ENDCHAR
STARTCHAR uni01008D
ENCODING 65677
SWIDTH 1000 0
DWIDTH 16 0
BBX 11 11 2 0
BITMAP
60E0
9080
7F80
1080
1080
39C0
1000
3800
1000
1000
1000
ENDCHAR
STARTCHAR uni01008E
ENCODING 65678
SWIDTH 1000 0
DWIDTH 16 0
BBX 13 11 1 0
BITMAP
1FC0
0A80
3260
4210
4210
FFF8
0200
0200
0200
0200
0200
ENDCHAR
STARTCHAR uni01008F
ENCODING 65679
SWIDTH 500 0
DWIDTH 8 0
BBX 6 11 1 0
BITMAP
B8
84
84
7C
04
04
04
04
04
04
04
ENDCHAR
STARTCHAR uni010090
ENCODING 65680
SWIDTH 1000 0
DWIDTH 16 0
BBX 11 12 2 0
BITMAP
4440
AAA0
AAA0
9120
4040
0180
0200
0200
0200
0200
0200
0200
ENDCHAR
STARTCHAR uni010091
ENCODING 65681
SWIDTH 500 0
DWIDTH 8 0
BBX 7 11 1 0
BITMAP
08
14
22
3E
62
A2
BE
62
62
A2
3E
ENDCHAR
STARTCHAR uni010092
ENCODING 65682
SWIDTH 500 0
DWIDTH 8 0
BBX 6 11 1 0
BITMAP
10
10
24
48
F0
80
80
80
80
80
80
ENDCHAR
STARTCHAR uni010093
ENCODING 65683
SWIDTH 500 0
DWIDTH 8 0
BBX 5 11 2 0
BITMAP
E0
80
80
E0
20
20
70
A8
F8
A8
70
ENDCHAR
STARTCHAR uni010094
ENCODING 65684
SWIDTH 500 0
DWIDTH 8 0
BBX 6 13 1 0
BITMAP
10
28
10
28
FC
50
50
30
38
54
7C
54
38
ENDCHAR
STARTCHAR uni010095
ENCODING 65685
SWIDTH 1000 0
DWIDTH 16 0
BBX 11 12 2 0
BITMAP
8000
4000
2600
9AC0
4320
2640
1A80
0300
0200
0200
0200
0200
ENDCHAR
STARTCHAR uni010096
ENCODING 65686
SWIDTH 1000 0
DWIDTH 16 0
BBX 11 11 2 0
BITMAP
FFE0
8000
8000
8000
FFE0
8420
A520
94A0
8420
A520
94A0
ENDCHAR
STARTCHAR uni010097
ENCODING 65687
SWIDTH 1000 0
DWIDTH 16 0
BBX 9 13 3 0
BITMAP
0800
0C00
0A00
3E00
4900
3E00
2A00
4900
8880
8880
4900
2A00
1C00
ENDCHAR
STARTCHAR uni010098
ENCODING 65688
SWIDTH 1000 0
DWIDTH 16 0
BBX 7 13 4 0
BITMAP
10
38
10
BA
92
44
28
92
BA
92
10
10
10
ENDCHAR
STARTCHAR uni010099
ENCODING 65689
SWIDTH 1000 0
DWIDTH 16 0
BBX 13 14 1 -1
BITMAP
F830
2448
2290
2120
0128
0310
0500
0500
0300
0100
0380
0100
0280
0440
ENDCHAR
STARTCHAR uni01009A
ENCODING 65690
SWIDTH 500 0
DWIDTH 8 0
BBX 6 11 1 0
BITMAP
84
84
FC
84
84
FC
84
84
80
80
80
ENDCHAR
STARTCHAR uni01009B
ENCODING 65691
SWIDTH 1000 0
DWIDTH 16 0
BBX 11 12 2 0
BITMAP
9F20
4A40
2A80
1100
4E40
8420
8A20
5140
1100
2080
2080
4040
ENDCHAR
STARTCHAR uni01009C
ENCODING 65692
SWIDTH 1000 0
DWIDTH 16 0
BBX 10 12 2 0
BITMAP
6000
9000
6000
1F00
2080
4040
5B40
4040
5B40
4040
2080
1F00
ENDCHAR
STARTCHAR uni01009D
ENCODING 65693
SWIDTH 1000 0
DWIDTH 16 0
BBX 13 12 1 0
BITMAP
8A88
4A90
6730
9248
9248
9248
8208
9AC8
2220
1AC0
0000
0700
ENDCHAR
STARTCHAR uni01009E
ENCODING 65694
SWIDTH 1000 0
DWIDTH 16 0
BBX 11 14 2 -1
BITMAP
C060
A0A0
9F20
8020
8C20
9220
8420
8820
9220
8C20
8020
FFE0
8420
8420
ENDCHAR
STARTCHAR uni01009F
ENCODING 65695
SWIDTH 1000 0
DWIDTH 16 0
BBX 13 11 1 0
BITMAP
3840
4420
8318
1040
1040
1040
1440
1440
1340
1040
1F40
ENDCHAR
STARTCHAR uni0100A0
ENCODING 65696
SWIDTH 1000 0
DWIDTH 16 0
BBX 13 11 1 0
BITMAP
1E00
2160
4C90
52A8
9248
A170
A148
C170
8140
0140
03E0
ENDCHAR
STARTCHAR uni0100A1
ENCODING 65697
SWIDTH 1000 0
DWIDTH 16 0
BBX 13 13 1 -1
BITMAP
F078
8F88
4110
2220
2520
28A0
4F90
4A90
8A88
4F90
3060
0D80
0200
ENDCHAR
STARTCHAR uni0100A2
ENCODING 65698
SWIDTH 1000 0
DWIDTH 16 0
BBX 9 13 4 0
BITMAP
0800
1400
2200
4900
9480
4900
5500
5500
9480
4900
2200
1400
0800
ENDCHAR
STARTCHAR uni0100A3
ENCODING 65699
SWIDTH 1000 0
DWIDTH 16 0
BBX 9 11 3 0
BITMAP
2200
1C00
2200
6300
9480
2200
4100
A280
1400
1400
1400
ENDCHAR
STARTCHAR uni0100A4
ENCODING 65700
SWIDTH 1000 0
DWIDTH 16 0
BBX 7 12 4 -1
BITMAP
0C
10
54
92
92
54
38
10
38
54
38
10
ENDCHAR
STARTCHAR uni0100A5
ENCODING 65701
SWIDTH 1000 0
DWIDTH 16 0
BBX 10 12 3 -1
BITMAP
0300
0400
0800
1400
1400
1400
2200
5500
0800
4B80
8440
7880
ENDCHAR
STARTCHAR uni0100A6
ENCODING 65702
SWIDTH 1000 0
DWIDTH 16 0
BBX 13 12 1 0
BITMAP
0080
0100
0200
0500
1DC0
28A0
4A90
5250
9248
8008
8008
FFF8
ENDCHAR
STARTCHAR uni0100A7
ENCODING 65703
SWIDTH 500 0
DWIDTH 8 0
BBX 7 11 1 0
BITMAP
FE
82
82
82
82
82
82
82
FE
82
82
ENDCHAR
STARTCHAR uni0100A8
ENCODING 65704
SWIDTH 1000 0
DWIDTH 16 0
BBX 12 11 2 0
BITMAP
FFF0
8090
A290
9490
8890
8890
8890
8890
8890
8090
FFF0
ENDCHAR
STARTCHAR uni0100A9
ENCODING 65705
SWIDTH 1000 0
DWIDTH 16 0
BBX 13 11 1 0
BITMAP
C490
2490
22A0
31C0
2AA8
3290
2488
2480
2880
2880
2880
ENDCHAR
STARTCHAR uni0100AA
ENCODING 65706
SWIDTH 1000 0
DWIDTH 16 0
BBX 9 11 3 0
BITMAP
2200
5500
5D00
2200
3E00
4100
7F00
4100
7F00
8080
FF80
ENDCHAR
STARTCHAR uni0100AB
ENCODING 65707
SWIDTH 1000 0
DWIDTH 16 0
BBX 13 13 1 0
BITMAP
0200
1540
0F80
4010
A728
4890
0F80
1040
1FC0
1040
1FC0
2020
3FE0
ENDCHAR
STARTCHAR uni0100AC
ENCODING 65708
SWIDTH 1000 0
DWIDTH 16 0
BBX 9 11 3 0
BITMAP
FF80
A280
9C80
C180
A280
A280
C180
8080
FF80
8880
8880
ENDCHAR
STARTCHAR uni0100AD
ENCODING 65709
SWIDTH 1000 0
DWIDTH 16 0
BBX 14 10 1 0
BITMAP
2010
4008
B874
2790
1020
1020
2790
B874
4008
2010
ENDCHAR
STARTCHAR uni0100AE
ENCODING 65710
SWIDTH 1000 0
DWIDTH 16 0
BBX 13 8 1 1
BITMAP
8008
7070
4F90
2020
2020
4F90
7070
8008
ENDCHAR
STARTCHAR uni0100AF
ENCODING 65711
SWIDTH 1000 0
DWIDTH 16 0
BBX 13 10 1 0
BITMAP
4010
A028
9048
4F90
4010
4010
4F90
9048
A028
4010
ENDCHAR
STARTCHAR uni0100B0
ENCODING 65712
SWIDTH 1000 0
DWIDTH 16 0
BBX 13 7 1 1
BITMAP
0078
03A8
1C28
E028
A028
A028
FFF8
ENDCHAR
STARTCHAR uni0100B1
ENCODING 65713
SWIDTH 1000 0
DWIDTH 16 0
BBX 13 12 1 0
BITMAP
2020
5050
8888
8888
7FF0
5050
8888
8888
8888
8888
8888
F8F8
ENDCHAR
STARTCHAR uni0100B2
ENCODING 65714
SWIDTH 1000 0
DWIDTH 16 0
BBX 10 13 3 -1
BITMAP
1400
1400
1400
2400
4800
9000
A700
A880
A640
9140
4E40
2080
1F00
ENDCHAR
STARTCHAR uni0100B3
ENCODING 65715
SWIDTH 500 0
DWIDTH 8 0
BBX 7 11 1 0
BITMAP
FE
10
38
10
10
10
10
10
38
10
FE
ENDCHAR
STARTCHAR uni0100B4
ENCODING 65716
SWIDTH 1000 0
DWIDTH 16 0
BBX 12 11 2 0
BITMAP
E000
9000
4800
3BC0
0420
0810
0810
0810
0810
0420
03C0
ENDCHAR
STARTCHAR uni0100B5
ENCODING 65717
SWIDTH 500 0
DWIDTH 8 0
BBX 7 11 1 0
BITMAP
1E
28
48
88
88
88
88
88
48
28
1E
ENDCHAR
STARTCHAR uni0100B6
ENCODING 65718
SWIDTH 1000 0
DWIDTH 16 0
BBX 16 11 0 0
BITMAP
4002
4182
F24F
4892
E527
566A
55AA
1428
1428
1008
3FFC
ENDCHAR
STARTCHAR uni0100B7
ENCODING 65719
SWIDTH 1000 0
DWIDTH 16 0
BBX 15 13 0 0
BITMAP
0820
4444
2AA8
1010
A82A
4444
2288
0100
0100
0280
0440
0440
07C0
ENDCHAR
STARTCHAR uni0100B8
ENCODING 65720
SWIDTH 1000 0
DWIDTH 16 0
BBX 13 12 1 0
BITMAP
0880
0500
0200
FFF8
8888
8888
8888
8888
8888
8888
8888
8888
ENDCHAR
STARTCHAR uni0100B9
ENCODING 65721
SWIDTH 1000 0
DWIDTH 16 0
BBX 13 12 1 0
BITMAP
0200
0700
0A80
0200
0200
3FE0
2020
2020
2020
7FF0
A028
A028
ENDCHAR
STARTCHAR uni0100BA
ENCODING 65722
SWIDTH 1000 0
DWIDTH 16 0
BBX 14 12 1 0
BITMAP
1020
2010
4488
8844
9024
FFFC
9024
9024
FFFC
9024
9024
FFFC
ENDCHAR
STARTCHAR uni0100BB
ENCODING 65723
SWIDTH 500 0
DWIDTH 8 0
BBX 5 11 1 0
BITMAP
C0
A0
90
88
90
A0
A0
90
88
90
F8
ENDCHAR
STARTCHAR uni0100BC
ENCODING 65724
SWIDTH 500 0
DWIDTH 8 0
BBX 7 11 1 0
BITMAP
82
42
34
08
34
44
84
84
84
84
78
ENDCHAR
STARTCHAR uni0100BD
ENCODING 65725
SWIDTH 1000 0
DWIDTH 16 0
BBX 13 12 2 0
BITMAP
1DC0
0200
0500
38E0
4010
8008
BFE8
A028
6030
2020
2020
3FE0
ENDCHAR
STARTCHAR uni0100BE
ENCODING 65726
SWIDTH 1000 0
DWIDTH 16 0
BBX 7 11 3 0
BITMAP
44
28
10
FE
92
92
82
44
44
28
7C
ENDCHAR
STARTCHAR uni0100BF
ENCODING 65727
SWIDTH 1000 0
DWIDTH 16 0
BBX 13 12 1 0
BITMAP
B800
0700
8080
0700
B818
0028
AEB0
1140
A940
0220
8220
0220
ENDCHAR
STARTCHAR uni0100C0
ENCODING 65728
SWIDTH 1000 0
DWIDTH 16 0
BBX 14 12 1 0
BITMAP
7038
5028
7038
5028
7FE8
2028
2028
2028
F87C
A854
A854
F87C
ENDCHAR
STARTCHAR uni0100C1
ENCODING 65729
SWIDTH 1000 0
DWIDTH 16 0
BBX 16 14 0 -1
BITMAP
FFFF
8001
C105
A289
9291
AFE9
A109
8281
8441
8441
8921
8921
8001
FFFF
ENDCHAR
STARTCHAR uni0100C2
ENCODING 65730
SWIDTH 1000 0
DWIDTH 16 0
BBX 13 12 1 0
BITMAP
0200
0500
0880
3DE0
0880
1040
78F0
1040
2020
F078
2020
2020
ENDCHAR
STARTCHAR uni0100C3
ENCODING 65731
SWIDTH 500 0
DWIDTH 8 0
BBX 7 10 1 0
BITMAP
38
44
44
82
82
FE
14
14
14
0C
ENDCHAR
STARTCHAR uni0100C4
ENCODING 65732
SWIDTH 1000 0
DWIDTH 16 0
BBX 14 7 1 0
BITMAP
7FF8
9024
7038
1020
1FE0
1020
1020
ENDCHAR
STARTCHAR uni0100C5
ENCODING 65733
SWIDTH 1000 0
DWIDTH 16 0
BBX 14 9 1 0
BITMAP
7C00
2200
2100
20F0
2010
66D8
A914
6018
3FF0
ENDCHAR
STARTCHAR uni0100C6
ENCODING 65734
SWIDTH 1000 0
DWIDTH 16 0
BBX 13 6 1 2
BITMAP
C000
3000
0C00
0330
00C8
0030
ENDCHAR
STARTCHAR uni0100C7
ENCODING 65735
SWIDTH 1000 0
DWIDTH 16 0
BBX 14 5 1 2
BITMAP
4800
2400
FFFC
2400
4800
ENDCHAR
STARTCHAR uni0100C8
ENCODING 65736
SWIDTH 1000 0
DWIDTH 16 0
BBX 14 9 1 0
BITMAP
01FC
0104
0088
0050
FFFC
0050
0088
0050
0020
ENDCHAR
STARTCHAR uni0100C9
ENCODING 65737
SWIDTH 500 0
DWIDTH 8 0
BBX 7 11 1 0
BITMAP
10
38
54
54
92
92
92
7C
10
10
38
ENDCHAR
STARTCHAR uni0100CA
ENCODING 65738
SWIDTH 500 0
DWIDTH 8 0
BBX 4 11 2 0
BITMAP
80
80
C0
A0
90
90
90
A0
C0
80
80
ENDCHAR
STARTCHAR uni0100CB
ENCODING 65739
SWIDTH 500 0
DWIDTH 8 0
BBX 7 11 1 0
BITMAP
38
10
10
7C
92
92
92
54
54
38
10
ENDCHAR
STARTCHAR uni0100CC
ENCODING 65740
SWIDTH 1000 0
DWIDTH 16 0
BBX 16 15 0 -2
BITMAP
0010
0008
0024
0005
0005
7FE4
A2B8
E2A8
AEA8
75B4
1FE5
15A5
0E24
0008
0010
ENDCHAR
STARTCHAR uni0100CD
ENCODING 65741
SWIDTH 1000 0
DWIDTH 16 0
BBX 16 15 0 -2
BITMAP
0010
0008
0024
0005
0005
7FE4
B2B8
EAA8
AAA8
6AB4
1FE5
02A5
0024
0008
0010
ENDCHAR
STARTCHAR uni0100CE
ENCODING 65742
SWIDTH 1000 0
DWIDTH 16 0
BBX 14 6 1 0
BITMAP
FC1C
8420
C440
A480
A500
FE00
ENDCHAR
STARTCHAR uni0100CF
ENCODING 65743
SWIDTH 1000 0
DWIDTH 16 0
BBX 13 13 1 -1
BITMAP
0F80
1240
2220
4210
8708
8A88
FFF8
8A88
8708
4210
2220
1240
0F80
ENDCHAR
STARTCHAR uni0100D0
ENCODING 65744
SWIDTH 1000 0
DWIDTH 16 0
BBX 14 11 1 0
BITMAP
3FE0
2AA0
2A90
4A88
9744
AAA4
A724
0200
0200
0200
0200
ENDCHAR
STARTCHAR uni0100D1
ENCODING 65745
SWIDTH 1000 0
DWIDTH 16 0
BBX 12 5 2 0
BITMAP
FFF0
8010
8010
8010
FFF0
ENDCHAR
STARTCHAR uni0100D2
ENCODING 65746
SWIDTH 1000 0
DWIDTH 16 0
BBX 11 12 2 0
BITMAP
E0E0
9120
8E20
8020
9F20
9520
8420
8E20
8420
8420
8020
FFE0
ENDCHAR
STARTCHAR uni0100D3
ENCODING 65747
SWIDTH 1000 0
DWIDTH 16 0
BBX 9 13 3 -1
BITMAP
1C00
2200
2200
2200
1C00
A280
4100
A280
1400
0800
0800
0800
0800
ENDCHAR
STARTCHAR uni0100D4
ENCODING 65748
SWIDTH 1000 0
DWIDTH 16 0
BBX 13 6 1 1
BITMAP
8008
8008
7FF0
4010
3060
0F80
ENDCHAR
STARTCHAR uni0100D5
ENCODING 65749
SWIDTH 1000 0
DWIDTH 16 0
BBX 14 13 1 -1
BITMAP
0020
BFC0
0040
8078
0044
4078
0048
27D4
0014
1014
0414
0100
0054
ENDCHAR
STARTCHAR uni0100D6
ENCODING 65750
SWIDTH 1000 0
DWIDTH 16 0
BBX 14 12 1 0
BITMAP
0010
0000
0020
0480
0000
13F8
0444
2554
0444
4248
0040
80E0
ENDCHAR
STARTCHAR uni0100D7
ENCODING 65751
SWIDTH 1000 0
DWIDTH 16 0
BBX 11 11 2 0
BITMAP
1F80
2040
4F20
90A0
A040
A000
A040
90A0
4F20
2040
1F80
ENDCHAR
STARTCHAR uni0100D8
ENCODING 65752
SWIDTH 1000 0
DWIDTH 16 0
BBX 14 7 1 2
BITMAP
0020
0010
0008
FFFC
0008
0010
0020
ENDCHAR
STARTCHAR uni0100D9
ENCODING 65753
SWIDTH 1000 0
DWIDTH 16 0
BBX 12 10 2 0
BITMAP
FFF0
0010
BFD0
A050
A050
A050
A050
BFD0
8050
FFD0
ENDCHAR
STARTCHAR uni0100DA
ENCODING 65754
SWIDTH 1000 0
DWIDTH 16 0
BBX 14 11 1 0
BITMAP
8000
8000
8000
8000
4000
5800
4600
2180
2060
1C00
02FC
ENDCHAR
STARTCHAR uni0100DB
ENCODING 65755
SWIDTH 1000 0
DWIDTH 16 0
BBX 14 11 1 0
BITMAP
007C
0044
FFC4
8004
8004
FFFC
A028
A028
A028
A028
E038
ENDCHAR
STARTCHAR uni0100DC
ENCODING 65756
SWIDTH 1000 0
DWIDTH 16 0
BBX 13 14 1 -1
BITMAP
2020
1040
1FC0
1140
A228
C518
AFA8
2AA0
2AA0
4A90
4710
5FD0
6030
8008
ENDCHAR
STARTCHAR uni0100DD
ENCODING 65757
SWIDTH 1000 0
DWIDTH 16 0
BBX 11 11 2 0
BITMAP
8420
8420
8420
8420
8420
8E20
9520
A4A0
4440
2480
1F00
ENDCHAR
STARTCHAR uni0100DE
ENCODING 65758
SWIDTH 1000 0
DWIDTH 16 0
BBX 14 5 1 0
BITMAP
7FF8
A014
6018
1020
0FC0
ENDCHAR
STARTCHAR uni0100DF
ENCODING 65759
SWIDTH 1000 0
DWIDTH 16 0
BBX 14 10 1 0
BITMAP
7038
5028
5028
7FF8
4008
8004
8004
78F8
0880
1FC0
ENDCHAR
STARTCHAR uni0100E0
ENCODING 65760
SWIDTH 1000 0
DWIDTH 16 0
BBX 13 14 1 -1
BITMAP
4010
A028
A028
4010
7FF0
4010
4010
2020
5050
2FA0
2520
2220
2220
2220
ENDCHAR
STARTCHAR uni0100E1
ENCODING 65761
SWIDTH 1000 0
DWIDTH 16 0
BBX 10 11 3 0
BITMAP
7F80
2100
2100
4080
8040
8040
4080
4080
2100
2100
1E00
ENDCHAR
STARTCHAR uni0100E2
ENCODING 65762
SWIDTH 1000 0
DWIDTH 16 0
BBX 14 12 1 0
BITMAP
0780
4848
A494
A854
7038
2010
2010
1020
1020
0840
0840
0780
ENDCHAR
STARTCHAR uni0100E3
ENCODING 65763
SWIDTH 1000 0
DWIDTH 16 0
BBX 11 12 3 0
BITMAP
1FE0
2240
2240
1F80
3040
6020
A020
1040
0880
0500
0500
0700
ENDCHAR
STARTCHAR uni0100E4
ENCODING 65764
SWIDTH 1000 0
DWIDTH 16 0
BBX 9 12 3 0
BITMAP
7F80
8900
8900
7E00
C100
8080
8080
4100
2200
1400
1400
1C00
ENDCHAR
STARTCHAR uni0100E5
ENCODING 65765
SWIDTH 1000 0
DWIDTH 16 0
BBX 13 12 1 0
BITMAP
1FE0
2240
2240
1F80
7050
A028
A028
5050
1040
0880
0500
0700
ENDCHAR
STARTCHAR uni0100E6
ENCODING 65766
SWIDTH 1000 0
DWIDTH 16 0
BBX 9 13 3 -1
BITMAP
3E00
5500
5500
3600
3600
4100
8080
8080
4100
3E00
5500
5500
4900
ENDCHAR
STARTCHAR uni0100E7
ENCODING 65767
SWIDTH 1000 0
DWIDTH 16 0
BBX 14 10 1 0
BITMAP
8004
4008
3FF0
1020
1020
2010
7878
0480
0480
0780
ENDCHAR
STARTCHAR uni0100E8
ENCODING 65768
SWIDTH 1000 0
DWIDTH 16 0
BBX 9 11 3 0
BITMAP
7F00
9480
A280
5500
2200
4100
4100
2200
2200
1400
1C00
ENDCHAR
STARTCHAR uni0100E9
ENCODING 65769
SWIDTH 1000 0
DWIDTH 16 0
BBX 12 11 2 0
BITMAP
7F80
9240
9240
5280
2130
40D0
40E0
2100
2100
1200
1E00
ENDCHAR
STARTCHAR uni0100EA
ENCODING 65770
SWIDTH 1000 0
DWIDTH 16 0
BBX 14 9 1 0
BITMAP
7FF8
6018
9424
A794
6418
2710
1520
0940
0780
ENDCHAR
STARTCHAR uni0100EB
ENCODING 65771
SWIDTH 1000 0
DWIDTH 16 0
BBX 15 11 1 0
BITMAP
1FF0
1010
701C
9012
9832
682C
0820
0440
0280
0280
07C0
ENDCHAR
STARTCHAR uni0100EC
ENCODING 65772
SWIDTH 1000 0
DWIDTH 16 0
BBX 13 6 1 1
BITMAP
FFF8
8008
4010
4010
3060
0F80
ENDCHAR
STARTCHAR uni0100ED
ENCODING 65773
SWIDTH 1000 0
DWIDTH 16 0
BBX 13 11 1 1
BITMAP
6030
9FC8
7070
1040
2020
2020
1040
1040
0880
0880
0F80
ENDCHAR
STARTCHAR uni0100EE
ENCODING 65774
SWIDTH 1000 0
DWIDTH 16 0
BBX 13 10 1 0
BITMAP
6030
9FC8
A028
5050
0880
0500
0500
0500
0880
0F80
ENDCHAR
STARTCHAR uni0100EF
ENCODING 65775
SWIDTH 500 0
DWIDTH 8 0
BBX 7 11 1 0
BITMAP
FE
82
82
44
28
10
10
10
28
44
7C
ENDCHAR
STARTCHAR uni0100F0
ENCODING 65776
SWIDTH 1000 0
DWIDTH 16 0
BBX 8 12 1 0
BITMAP
7E
24
24
3C
24
42
81
81
81
42
3C
7E
ENDCHAR
STARTCHAR uni0100F1
ENCODING 65777
SWIDTH 1000 0
DWIDTH 16 0
BBX 15 11 1 0
BITMAP
1FFE
8804
8408
7C08
5408
7C08
8210
8210
0210
0210
03F0
ENDCHAR
STARTCHAR uni0100F2
ENCODING 65778
SWIDTH 1000 0
DWIDTH 16 0
BBX 12 11 2 0
BITMAP
4020
A050
A050
A050
4020
FFF0
8010
8010
8010
8010
FFF0
ENDCHAR
STARTCHAR uni0100F3
ENCODING 65779
SWIDTH 1000 0
DWIDTH 16 0
BBX 15 11 1 0
BITMAP
6000
9000
9000
BFFE
9004
4808
4808
9004
1E3C
0140
01C0
ENDCHAR
STARTCHAR uni0100F4
ENCODING 65780
SWIDTH 1000 0
DWIDTH 16 0
BBX 11 11 3 0
BITMAP
FFE0
8020
8020
8020
8020
4040
4040
2080
2080
1100
0E00
ENDCHAR
STARTCHAR uni0100F5
ENCODING 65781
SWIDTH 1000 0
DWIDTH 16 0
BBX 16 14 0 -1
BITMAP
6020
9FDC
6894
2514
4897
0891
051F
1FC0
1240
8D88
DFD8
A028
DFD8
8008
ENDCHAR
STARTCHAR uni0100F6
ENCODING 65782
SWIDTH 1000 0
DWIDTH 16 0
BBX 14 13 1 -1
BITMAP
0A00
0A00
1200
1FC0
2430
2988
5A04
5194
9034
A048
3840
0420
03E0
ENDCHAR
STARTCHAR uni0100F7
ENCODING 65783
SWIDTH 1000 0
DWIDTH 16 0
BBX 14 4 1 0
BITMAP
FFFC
0104
0088
0070
ENDCHAR
STARTCHAR uni0100F8
ENCODING 65784
SWIDTH 1000 0
DWIDTH 16 0
BBX 10 11 3 0
BITMAP
6000
9000
9000
1000
1000
1000
1000
1FC0
1040
0880
0700
ENDCHAR
STARTCHAR uni0100F9
ENCODING 65785
SWIDTH 1000 0
DWIDTH 16 0
BBX 14 12 1 0
BITMAP
0018
0024
8050
7FE0
4080
2100
2100
1200
5280
9240
8C40
4C80
ENDCHAR
STARTCHAR uni0100FA
ENCODING 65786
SWIDTH 1000 0
DWIDTH 16 0
BBX 13 11 2 0
BITMAP
0008
0000
6010
9000
9020
6780
2820
4800
8740
0000
0080
ENDCHAR
STARTCHAR uni010100
ENCODING 65792
SWIDTH 500 0
DWIDTH 8 0
BBX 1 2 3 0
BITMAP
80
80
ENDCHAR
STARTCHAR uni010101
ENCODING 65793
SWIDTH 500 0
DWIDTH 8 0
BBX 2 2 3 5
BITMAP
C0
C0
ENDCHAR
STARTCHAR uni010102
ENCODING 65794
SWIDTH 500 0
DWIDTH 8 0
BBX 5 5 2 3
BITMAP
88
50
20
50
88
ENDCHAR
STARTCHAR uni010107
ENCODING 65799
SWIDTH 500 0
DWIDTH 8 0
BBX 1 3 4 4
BITMAP
80
80
80
ENDCHAR
STARTCHAR uni010108
ENCODING 65800
SWIDTH 500 0
DWIDTH 8 0
BBX 4 3 2 4
BITMAP
90
90
90
ENDCHAR
STARTCHAR uni010109
ENCODING 65801
SWIDTH 500 0
DWIDTH 8 0
BBX 5 3 2 4
BITMAP
A8
A8
A8
ENDCHAR
STARTCHAR uni01010A
ENCODING 65802
SWIDTH 500 0
DWIDTH 8 0
BBX 4 8 2 1
BITMAP
90
90
90
00
00
90
90
90
ENDCHAR
STARTCHAR uni01010B
ENCODING 65803
SWIDTH 500 0
DWIDTH 8 0
BBX 5 8 2 1
BITMAP
A8
A8
A8
00
00
50
50
50
ENDCHAR
STARTCHAR uni01010C
ENCODING 65804
SWIDTH 500 0
DWIDTH 8 0
BBX 5 8 1 1
BITMAP
A8
A8
A8
00
00
A8
A8
A8
ENDCHAR
STARTCHAR uni01010D
ENCODING 65805
SWIDTH 500 0
DWIDTH 8 0
BBX 7 8 1 1
BITMAP
AA
AA
AA
00
00
54
54
54
ENDCHAR
STARTCHAR uni01010E
ENCODING 65806
SWIDTH 500 0
DWIDTH 8 0
BBX 7 8 1 1
BITMAP
AA
AA
AA
00
00
AA
AA
AA
ENDCHAR
STARTCHAR uni01010F
ENCODING 65807
SWIDTH 500 0
DWIDTH 8 0
BBX 5 10 2 0
BITMAP
A8
A8
00
00
A8
A8
00
00
A8
A8
ENDCHAR
STARTCHAR uni010110
ENCODING 65808
SWIDTH 500 0
DWIDTH 8 0
BBX 4 1 2 3
BITMAP
F0
ENDCHAR
STARTCHAR uni010111
ENCODING 65809
SWIDTH 500 0
DWIDTH 8 0
BBX 4 4 2 1
BITMAP
F0
00
00
F0
ENDCHAR
STARTCHAR uni010112
ENCODING 65810
SWIDTH 500 0
DWIDTH 8 0
BBX 4 7 2 0
BITMAP
F0
00
00
F0
00
00
F0
ENDCHAR
STARTCHAR uni010113
ENCODING 65811
SWIDTH 500 0
DWIDTH 8 0
BBX 6 4 1 1
BITMAP
CC
00
00
CC
ENDCHAR
STARTCHAR uni010114
ENCODING 65812
SWIDTH 500 0
DWIDTH 8 0
BBX 6 5 1 1
BITMAP
C0
0C
C0
0C
C0
ENDCHAR
STARTCHAR uni010115
ENCODING 65813
SWIDTH 500 0
DWIDTH 8 0
BBX 6 5 1 1
BITMAP
CC
00
CC
00
CC
ENDCHAR
STARTCHAR uni010116
ENCODING 65814
SWIDTH 500 0
DWIDTH 8 0
BBX 6 7 1 0
BITMAP
C0
0C
C0
0C
C0
0C
C0
ENDCHAR
STARTCHAR uni010117
ENCODING 65815
SWIDTH 500 0
DWIDTH 8 0
BBX 6 7 1 0
BITMAP
CC
00
CC
00
CC
00
CC
ENDCHAR
STARTCHAR uni010118
ENCODING 65816
SWIDTH 500 0
DWIDTH 8 0
BBX 8 5 0 1
BITMAP
DB
00
DB
00
DB
ENDCHAR
STARTCHAR uni010119
ENCODING 65817
SWIDTH 500 0
DWIDTH 8 0
BBX 4 5 2 4
BITMAP
60
90
90
90
60
ENDCHAR
STARTCHAR uni01011A
ENCODING 65818
SWIDTH 500 0
DWIDTH 8 0
BBX 7 3 1 5
BITMAP
44
AA
44
ENDCHAR
STARTCHAR uni01011B
ENCODING 65819
SWIDTH 500 0
DWIDTH 8 0
BBX 3 11 2 0
BITMAP
40
A0
40
00
40
A0
40
00
40
A0
40
ENDCHAR
STARTCHAR uni01011C
ENCODING 65820
SWIDTH 500 0
DWIDTH 8 0
BBX 7 8 1 2
BITMAP
44
AA
44
00
00
44
AA
44
ENDCHAR
STARTCHAR uni01011D
ENCODING 65821
SWIDTH 500 0
DWIDTH 8 0
BBX 6 11 1 0
BITMAP
40
A0
48
14
48
A0
48
14
48
A0
40
ENDCHAR
STARTCHAR uni01011E
ENCODING 65822
SWIDTH 500 0
DWIDTH 8 0
BBX 7 11 1 0
BITMAP
44
AA
44
00
44
AA
44
00
44
AA
44
ENDCHAR
STARTCHAR uni01011F
ENCODING 65823
SWIDTH 500 0
DWIDTH 8 0
BBX 6 15 1 -2
BITMAP
40
A0
48
14
48
A0
48
14
48
A0
48
14
48
A0
40
ENDCHAR
STARTCHAR uni010120
ENCODING 65824
SWIDTH 500 0
DWIDTH 8 0
BBX 7 15 1 -2
BITMAP
44
AA
44
00
44
AA
44
00
44
AA
44
00
44
AA
44
ENDCHAR
STARTCHAR uni010121
ENCODING 65825
SWIDTH 1000 0
DWIDTH 16 0
BBX 11 11 2 0
BITMAP
4440
AAA0
4440
0000
4440
AAA0
4440
0000
4440
AAA0
4440
ENDCHAR
STARTCHAR uni010122
ENCODING 65826
SWIDTH 500 0
DWIDTH 8 0
BBX 7 7 1 3
BITMAP
10
38
44
C6
44
38
10
ENDCHAR
STARTCHAR uni010123
ENCODING 65827
SWIDTH 1000 0
DWIDTH 16 0
BBX 14 7 1 3
BITMAP
1020
3870
4488
C78C
4488
3870
1020
ENDCHAR
STARTCHAR uni010124
ENCODING 65828
SWIDTH 500 0
DWIDTH 8 0
BBX 7 16 1 -2
BITMAP
38
44
C6
44
38
38
44
C6
44
38
38
44
C6
44
38
10
ENDCHAR
STARTCHAR uni010125
ENCODING 65829
SWIDTH 1000 0
DWIDTH 16 0
BBX 14 12 1 0
BITMAP
1020
3870
4488
C78C
4488
3870
3870
4488
C78C
4488
3870
1020
ENDCHAR
STARTCHAR uni010126
ENCODING 65830
SWIDTH 1000 0
DWIDTH 16 0
BBX 14 16 1 -2
BITMAP
3800
4400
C620
4470
3888
398C
4488
C670
4470
3888
398C
4488
C670
4420
3800
1000
ENDCHAR
STARTCHAR uni010127
ENCODING 65831
SWIDTH 1000 0
DWIDTH 16 0
BBX 14 16 1 -2
BITMAP
3870
4488
C78C
4488
3870
3870
4488
C78C
4488
3870
3870
4488
C78C
4488
3870
1020
ENDCHAR
STARTCHAR uni010128
ENCODING 65832
SWIDTH 1000 0
DWIDTH 16 0
BBX 14 16 1 -2
BITMAP
3870
4488
C78C
4488
3870
4470
C688
458C
3888
4470
C670
4488
398C
4488
C670
3820
ENDCHAR
STARTCHAR uni010129
ENCODING 65833
SWIDTH 1000 0
DWIDTH 16 0
BBX 14 16 1 -2
BITMAP
3870
4488
C78C
4488
3870
4488
C78C
4488
3870
4488
C78C
4488
3870
4488
C78C
3870
ENDCHAR
STARTCHAR uni01012A
ENCODING 65834
SWIDTH 1000 0
DWIDTH 16 0
BBX 16 16 0 -2
BITMAP
318C
4A52
CE73
4A52
318C
318C
4A52
CE73
4A52
318C
318C
4A52
CE73
4A52
318C
1084
ENDCHAR
STARTCHAR uni01012B
ENCODING 65835
SWIDTH 500 0
DWIDTH 8 0
BBX 7 7 1 3
BITMAP
10
38
44
FE
44
38
10
ENDCHAR
STARTCHAR uni01012C
ENCODING 65836
SWIDTH 1000 0
DWIDTH 16 0
BBX 14 7 1 3
BITMAP
1020
3870
4488
FFFC
4488
3870
1020
ENDCHAR
STARTCHAR uni01012D
ENCODING 65837
SWIDTH 500 0
DWIDTH 8 0
BBX 7 16 1 -2
BITMAP
38
44
FE
44
38
38
44
FE
44
38
38
44
FE
44
38
10
ENDCHAR
STARTCHAR uni01012E
ENCODING 65838
SWIDTH 1000 0
DWIDTH 16 0
BBX 14 13 1 -1
BITMAP
1020
3870
4488
FFFC
4488
3870
1020
3870
4488
FFFC
4488
3870
1020
ENDCHAR
STARTCHAR uni01012F
ENCODING 65839
SWIDTH 1000 0
DWIDTH 16 0
BBX 15 16 1 -2
BITMAP
3800
4410
FE38
4444
38FE
3844
4438
FE10
4438
3844
38FE
4444
FE38
4410
3800
1000
ENDCHAR
STARTCHAR uni010130
ENCODING 65840
SWIDTH 1000 0
DWIDTH 16 0
BBX 14 16 1 -2
BITMAP
3870
4488
FFFC
4488
3870
3870
4488
FFFC
4488
3870
3870
4488
FFFC
4488
3870
1020
ENDCHAR
STARTCHAR uni010131
ENCODING 65841
SWIDTH 1000 0
DWIDTH 16 0
BBX 14 16 1 -2
BITMAP
3870
4488
FFFC
4488
3870
4470
FE88
45FC
3888
4470
FE70
4488
39FC
4488
FE70
7C20
ENDCHAR
STARTCHAR uni010132
ENCODING 65842
SWIDTH 1000 0
DWIDTH 16 0
BBX 14 16 1 -2
BITMAP
3870
4488
FFFC
4488
3870
4488
FFFC
4488
3870
4488
FFFC
4488
3870
4488
FFFC
7CF8
ENDCHAR
STARTCHAR uni010133
ENCODING 65843
SWIDTH 1000 0
DWIDTH 16 0
BBX 16 16 0 -2
BITMAP
318C
4A52
FFFF
4A52
318C
318C
4A52
FFFF
4A52
318C
318C
4A52
FFFF
4A52
318C
1084
ENDCHAR
STARTCHAR uni010137
ENCODING 65847
SWIDTH 1000 0
DWIDTH 16 0
BBX 13 12 2 0
BITMAP
0880
0500
7FF0
2220
5250
5250
8A88
8A88
FAF8
0200
0200
0200
ENDCHAR
STARTCHAR uni010138
ENCODING 65848
SWIDTH 500 0
DWIDTH 8 0
BBX 5 11 1 1
BITMAP
60
90
20
48
30
00
60
90
20
48
30
ENDCHAR
STARTCHAR uni010139
ENCODING 65849
SWIDTH 1000 0
DWIDTH 16 0
BBX 9 11 3 0
BITMAP
2200
2200
2200
FF80
2200
2200
2200
FF80
2200
2200
2200
ENDCHAR
STARTCHAR uni01013A
ENCODING 65850
SWIDTH 500 0
DWIDTH 8 0
BBX 6 11 1 0
BITMAP
70
88
24
84
48
30
4C
80
90
44
38
ENDCHAR
STARTCHAR uni01013B
ENCODING 65851
SWIDTH 500 0
DWIDTH 8 0
BBX 5 10 2 0
BITMAP
70
88
88
40
20
F8
20
20
20
20
ENDCHAR
STARTCHAR uni01013C
ENCODING 65852
SWIDTH 500 0
DWIDTH 8 0
BBX 5 10 2 0
BITMAP
F8
00
20
20
20
20
20
20
20
20
ENDCHAR
STARTCHAR uni01013D
ENCODING 65853
SWIDTH 500 0
DWIDTH 8 0
BBX 8 10 0 0
BITMAP
21
42
FC
44
24
04
04
04
04
04
ENDCHAR
STARTCHAR uni01013E
ENCODING 65854
SWIDTH 500 0
DWIDTH 8 0
BBX 5 10 1 0
BITMAP
08
08
38
48
88
88
48
28
08
08
ENDCHAR
STARTCHAR uni01013F
ENCODING 65855
SWIDTH 1000 0
DWIDTH 16 0
BBX 13 7 1 0
BITMAP
6000
9000
9FF8
7008
1008
0810
07E0
ENDCHAR
STARTCHAR uni010140
ENCODING 65856
SWIDTH 500 0
DWIDTH 8 0
BBX 6 10 1 0
BITMAP
E0
10
08
04
04
04
04
08
10
E0
ENDCHAR
STARTCHAR uni010141
ENCODING 65857
SWIDTH 500 0
DWIDTH 8 0
BBX 6 10 1 0
BITMAP
1C
20
40
80
80
80
80
40
20
1C
ENDCHAR
STARTCHAR uni010142
ENCODING 65858
SWIDTH 500 0
DWIDTH 8 0
BBX 6 10 1 0
BITMAP
80
80
80
80
FC
80
80
80
80
80
ENDCHAR
STARTCHAR uni010143
ENCODING 65859
SWIDTH 500 0
DWIDTH 8 0
BBX 6 10 1 0
BITMAP
FC
84
84
80
80
80
80
80
80
80
ENDCHAR
STARTCHAR uni010144
ENCODING 65860
SWIDTH 500 0
DWIDTH 8 0
BBX 7 10 1 0
BITMAP
FE
82
92
A8
C4
FC
80
80
80
80
ENDCHAR
STARTCHAR uni010145
ENCODING 65861
SWIDTH 500 0
DWIDTH 8 0
BBX 7 10 1 0
BITMAP
FE
82
A2
BE
A2
80
80
80
80
80
ENDCHAR
STARTCHAR uni010146
ENCODING 65862
SWIDTH 500 0
DWIDTH 8 0
BBX 7 10 1 0
BITMAP
FE
82
AA
90
A8
80
80
80
80
80
ENDCHAR
STARTCHAR uni010147
ENCODING 65863
SWIDTH 500 0
DWIDTH 8 0
BBX 8 10 0 0
BITMAP
FF
81
A3
B6
AA
A2
80
80
80
80
ENDCHAR
STARTCHAR uni010148
ENCODING 65864
SWIDTH 500 0
DWIDTH 8 0
BBX 7 10 1 0
BITMAP
FE
82
BA
90
90
80
80
80
80
80
ENDCHAR
STARTCHAR uni010149
ENCODING 65865
SWIDTH 500 0
DWIDTH 8 0
BBX 7 11 1 0
BITMAP
10
28
28
44
44
82
82
FE
10
10
10
ENDCHAR
STARTCHAR uni01014A
ENCODING 65866
SWIDTH 500 0
DWIDTH 8 0
BBX 7 10 1 0
BITMAP
FE
82
92
A8
C4
FC
90
90
80
80
ENDCHAR
STARTCHAR uni01014B
ENCODING 65867
SWIDTH 500 0
DWIDTH 8 0
BBX 7 10 1 0
BITMAP
82
82
82
82
82
FE
92
92
92
92
ENDCHAR
STARTCHAR uni01014C
ENCODING 65868
SWIDTH 500 0
DWIDTH 8 0
BBX 7 10 1 0
BITMAP
FE
82
A2
BE
AA
AA
80
80
80
80
ENDCHAR
STARTCHAR uni01014D
ENCODING 65869
SWIDTH 500 0
DWIDTH 8 0
BBX 7 11 1 0
BITMAP
82
44
28
10
28
44
82
FE
10
10
10
ENDCHAR
STARTCHAR uni01014E
ENCODING 65870
SWIDTH 500 0
DWIDTH 8 0
BBX 7 10 1 0
BITMAP
FE
82
AA
90
A8
80
B8
90
90
90
ENDCHAR
STARTCHAR uni01014F
ENCODING 65871
SWIDTH 500 0
DWIDTH 8 0
BBX 7 10 1 0
BITMAP
FE
82
BA
A0
90
A0
B8
80
80
80
ENDCHAR
STARTCHAR uni010150
ENCODING 65872
SWIDTH 500 0
DWIDTH 8 0
BBX 7 13 1 -2
BITMAP
10
28
28
44
44
82
FE
00
38
20
10
20
38
ENDCHAR
STARTCHAR uni010151
ENCODING 65873
SWIDTH 500 0
DWIDTH 8 0
BBX 7 11 1 -1
BITMAP
FE
82
92
A8
FC
80
B8
A0
90
A0
38
ENDCHAR
STARTCHAR uni010152
ENCODING 65874
SWIDTH 500 0
DWIDTH 8 0
BBX 7 10 1 0
BITMAP
82
82
82
FE
82
BA
A2
92
A2
BA
ENDCHAR
STARTCHAR uni010153
ENCODING 65875
SWIDTH 500 0
DWIDTH 8 0
BBX 7 11 1 -1
BITMAP
FE
82
A2
BE
A2
80
B8
A0
90
A0
38
ENDCHAR
STARTCHAR uni010154
ENCODING 65876
SWIDTH 500 0
DWIDTH 8 0
BBX 7 11 1 0
BITMAP
82
44
28
10
28
44
BA
20
10
20
38
ENDCHAR
STARTCHAR uni010155
ENCODING 65877
SWIDTH 500 0
DWIDTH 8 0
BBX 7 10 1 0
BITMAP
82
C6
AA
92
82
BA
A2
92
A2
BA
ENDCHAR
STARTCHAR uni010156
ENCODING 65878
SWIDTH 500 0
DWIDTH 8 0
BBX 8 11 0 -1
BITMAP
FF
81
A3
B6
AA
A2
9C
90
88
90
1C
ENDCHAR
STARTCHAR uni010157
ENCODING 65879
SWIDTH 500 0
DWIDTH 8 0
BBX 7 10 1 0
BITMAP
10
28
44
7C
00
82
C6
AA
92
82
ENDCHAR
STARTCHAR uni010158
ENCODING 65880
SWIDTH 500 0
DWIDTH 8 0
BBX 7 10 1 0
BITMAP
FE
82
9A
98
80
80
80
80
80
80
ENDCHAR
STARTCHAR uni010159
ENCODING 65881
SWIDTH 500 0
DWIDTH 8 0
BBX 5 9 1 0
BITMAP
80
C0
A0
90
F8
90
A0
C0
80
ENDCHAR
STARTCHAR uni01015A
ENCODING 65882
SWIDTH 500 0
DWIDTH 8 0
BBX 7 10 1 0
BITMAP
FE
84
88
90
A0
C0
80
80
80
80
ENDCHAR
STARTCHAR uni01015B
ENCODING 65883
SWIDTH 500 0
DWIDTH 8 0
BBX 2 10 3 0
BITMAP
C0
C0
00
00
00
00
00
00
C0
C0
ENDCHAR
STARTCHAR uni01015C
ENCODING 65884
SWIDTH 500 0
DWIDTH 8 0
BBX 7 10 1 0
BITMAP
FE
80
40
20
10
08
10
20
40
80
ENDCHAR
STARTCHAR uni01015D
ENCODING 65885
SWIDTH 500 0
DWIDTH 8 0
BBX 6 10 1 0
BITMAP
FC
80
80
80
80
80
80
80
80
FC
ENDCHAR
STARTCHAR uni01015E
ENCODING 65886
SWIDTH 500 0
DWIDTH 8 0
BBX 6 10 1 0
BITMAP
FC
00
00
00
00
00
00
00
00
FC
ENDCHAR
STARTCHAR uni01015F
ENCODING 65887
SWIDTH 500 0
DWIDTH 8 0
BBX 6 10 1 0
BITMAP
FC
84
94
A0
90
80
80
80
80
80
ENDCHAR
STARTCHAR uni010160
ENCODING 65888
SWIDTH 500 0
DWIDTH 8 0
BBX 6 10 1 0
BITMAP
FC
04
08
10
20
20
10
08
04
FC
ENDCHAR
STARTCHAR uni010161
ENCODING 65889
SWIDTH 500 0
DWIDTH 8 0
BBX 5 11 1 0
BITMAP
F8
88
88
50
50
20
50
50
88
88
F8
ENDCHAR
STARTCHAR uni010162
ENCODING 65890
SWIDTH 500 0
DWIDTH 8 0
BBX 7 10 1 0
BITMAP
10
38
38
54
54
54
92
92
92
FE
ENDCHAR
STARTCHAR uni010163
ENCODING 65891
SWIDTH 500 0
DWIDTH 8 0
BBX 8 10 0 0
BITMAP
08
9C
5C
2A
09
08
08
08
08
08
ENDCHAR
STARTCHAR uni010164
ENCODING 65892
SWIDTH 500 0
DWIDTH 8 0
BBX 7 9 1 0
BITMAP
C0
A0
90
88
FE
88
90
A0
C0
ENDCHAR
STARTCHAR uni010165
ENCODING 65893
SWIDTH 500 0
DWIDTH 8 0
BBX 8 10 0 0
BITMAP
FC
60
50
48
44
7F
44
48
50
60
ENDCHAR
STARTCHAR uni010166
ENCODING 65894
SWIDTH 500 0
DWIDTH 8 0
BBX 7 10 1 0
BITMAP
FE
92
92
90
90
80
80
80
80
80
ENDCHAR
STARTCHAR uni010167
ENCODING 65895
SWIDTH 500 0
DWIDTH 8 0
BBX 7 10 1 0
BITMAP
FE
82
BA
88
90
88
B8
80
80
80
ENDCHAR
STARTCHAR uni010168
ENCODING 65896
SWIDTH 500 0
DWIDTH 8 0
BBX 7 10 1 0
BITMAP
82
E2
9A
86
80
80
80
80
80
80
ENDCHAR
STARTCHAR uni010169
ENCODING 65897
SWIDTH 1000 0
DWIDTH 16 0
BBX 12 10 1 0
BITMAP
FFF0
8200
8200
8200
83F0
8200
8200
8200
8200
83F0
ENDCHAR
STARTCHAR uni01016A
ENCODING 65898
SWIDTH 1000 0
DWIDTH 16 0
BBX 12 10 1 0
BITMAP
83F0
8200
8200
8200
FFF0
8200
8200
8200
8200
83F0
ENDCHAR
STARTCHAR uni01016B
ENCODING 65899
SWIDTH 1000 0
DWIDTH 16 0
BBX 12 10 1 0
BITMAP
FBF0
2200
2200
2200
3FF0
2200
2200
2200
2200
23F0
ENDCHAR
STARTCHAR uni01016C
ENCODING 65900
SWIDTH 1000 0
DWIDTH 16 0
BBX 11 10 2 0
BITMAP
FE00
8200
8200
83E0
8000
8000
8000
8000
8000
8000
ENDCHAR
STARTCHAR uni01016D
ENCODING 65901
SWIDTH 1000 0
DWIDTH 16 0
BBX 13 10 1 0
BITMAP
FE08
8208
8208
8208
8208
8208
8208
8208
8208
83F8
ENDCHAR
STARTCHAR uni01016E
ENCODING 65902
SWIDTH 1000 0
DWIDTH 16 0
BBX 13 10 1 0
BITMAP
F8F8
8880
8880
8880
8FF8
8880
8880
8880
8880
88F8
ENDCHAR
STARTCHAR uni01016F
ENCODING 65903
SWIDTH 500 0
DWIDTH 8 0
BBX 7 10 1 0
BITMAP
FE
82
82
80
80
80
F8
88
88
88
ENDCHAR
STARTCHAR uni010170
ENCODING 65904
SWIDTH 500 0
DWIDTH 8 0
BBX 7 10 1 0
BITMAP
FE
92
92
92
FE
92
92
92
92
92
ENDCHAR
STARTCHAR uni010171
ENCODING 65905
SWIDTH 500 0
DWIDTH 8 0
BBX 7 10 1 0
BITMAP
92
92
54
54
38
10
10
10
10
10
ENDCHAR
STARTCHAR uni010172
ENCODING 65906
SWIDTH 500 0
DWIDTH 8 0
BBX 7 10 0 0
BITMAP
3E
22
22
A8
70
20
20
20
20
20
ENDCHAR
STARTCHAR uni010173
ENCODING 65907
SWIDTH 500 0
DWIDTH 8 0
BBX 6 10 1 0
BITMAP
30
48
FC
84
84
84
84
84
84
84
ENDCHAR
STARTCHAR uni010174
ENCODING 65908
SWIDTH 500 0
DWIDTH 8 0
BBX 7 14 1 -1
BITMAP
44
6C
54
44
00
FE
82
92
A8
C4
FC
80
80
80
ENDCHAR
STARTCHAR uni010175
ENCODING 65909
SWIDTH 500 0
DWIDTH 8 0
BBX 6 6 1 0
BITMAP
04
08
10
20
40
FC
ENDCHAR
STARTCHAR uni010176
ENCODING 65910
SWIDTH 500 0
DWIDTH 8 0
BBX 7 6 1 2
BITMAP
12
A4
80
7C
02
02
ENDCHAR
STARTCHAR uni010177
ENCODING 65911
SWIDTH 1000 0
DWIDTH 16 0
BBX 12 10 2 0
BITMAP
0020
0010
0010
21A0
4240
81A0
8020
8420
4440
3B80
ENDCHAR
STARTCHAR uni010178
ENCODING 65912
SWIDTH 500 0
DWIDTH 8 0
BBX 6 11 1 0
BITMAP
34
44
84
84
44
34
44
84
84
44
34
ENDCHAR
STARTCHAR uni010179
ENCODING 65913
SWIDTH 500 0
DWIDTH 8 0
BBX 5 5 2 0
BITMAP
80
80
80
40
38
ENDCHAR
STARTCHAR uni01017A
ENCODING 65914
SWIDTH 500 0
DWIDTH 8 0
BBX 7 8 1 0
BITMAP
FE
10
28
28
44
44
82
82
ENDCHAR
STARTCHAR uni01017B
ENCODING 65915
SWIDTH 500 0
DWIDTH 8 0
BBX 5 9 1 0
BITMAP
08
10
20
40
88
40
20
10
08
ENDCHAR
STARTCHAR uni01017C
ENCODING 65916
SWIDTH 500 0
DWIDTH 8 0
BBX 7 3 1 4
BITMAP
0C
92
60
ENDCHAR
STARTCHAR uni01017D
ENCODING 65917
SWIDTH 500 0
DWIDTH 8 0
BBX 7 7 1 1
BITMAP
0C
92
60
00
0C
92
60
ENDCHAR
STARTCHAR uni01017E
ENCODING 65918
SWIDTH 500 0
DWIDTH 8 0
BBX 6 10 1 0
BITMAP
38
44
80
80
80
80
80
80
80
80
ENDCHAR
STARTCHAR uni01017F
ENCODING 65919
SWIDTH 500 0
DWIDTH 8 0
BBX 6 10 1 0
BITMAP
38
44
80
80
80
F8
80
80
80
80
ENDCHAR
STARTCHAR uni010180
ENCODING 65920
SWIDTH 500 0
DWIDTH 8 0
BBX 6 10 1 0
BITMAP
38
44
80
80
F8
80
E0
80
80
80
ENDCHAR
STARTCHAR uni010181
ENCODING 65921
SWIDTH 500 0
DWIDTH 8 0
BBX 5 10 1 0
BITMAP
80
80
80
80
80
F8
80
80
80
F8
ENDCHAR
STARTCHAR uni010182
ENCODING 65922
SWIDTH 500 0
DWIDTH 8 0
BBX 6 10 1 0
BITMAP
84
88
90
A0
C0
C0
A0
94
88
94
ENDCHAR
STARTCHAR uni010183
ENCODING 65923
SWIDTH 500 0
DWIDTH 8 0
BBX 7 10 1 0
BITMAP
7E
84
84
64
04
04
04
04
08
30
ENDCHAR
STARTCHAR uni010184
ENCODING 65924
SWIDTH 500 0
DWIDTH 8 0
BBX 6 10 1 0
BITMAP
FC
84
84
90
A8
90
80
80
80
80
ENDCHAR
STARTCHAR uni010185
ENCODING 65925
SWIDTH 500 0
DWIDTH 8 0
BBX 7 3 1 4
BITMAP
AC
92
6A
ENDCHAR
STARTCHAR uni010186
ENCODING 65926
SWIDTH 500 0
DWIDTH 8 0
BBX 7 5 1 0
BITMAP
FE
00
10
28
10
ENDCHAR
STARTCHAR uni010187
ENCODING 65927
SWIDTH 500 0
DWIDTH 8 0
BBX 6 10 1 0
BITMAP
E0
20
20
40
40
4C
48
44
44
38
ENDCHAR
STARTCHAR uni010188
ENCODING 65928
SWIDTH 1000 0
DWIDTH 16 0
BBX 11 11 1 0
BITMAP
01C0
FE20
8320
82C0
8200
8300
8600
8A00
8000
8000
8000
ENDCHAR
STARTCHAR uni010189
ENCODING 65929
SWIDTH 500 0
DWIDTH 8 0
BBX 7 10 1 0
BITMAP
0E
04
04
44
A4
A8
70
20
20
20
ENDCHAR
STARTCHAR uni01018A
ENCODING 65930
SWIDTH 500 0
DWIDTH 8 0
BBX 7 5 1 0
BITMAP
FE
00
10
28
10
ENDCHAR
STARTCHAR uni01018B
ENCODING 65931
SWIDTH 500 0
DWIDTH 8 0
BBX 5 10 2 0
BITMAP
20
10
08
08
08
68
98
88
88
70
ENDCHAR
STARTCHAR uni01018C
ENCODING 65932
SWIDTH 500 0
DWIDTH 8 0
BBX 4 12 2 -1
BITMAP
20
40
80
80
80
40
20
10
10
10
20
40
ENDCHAR
STARTCHAR uni01018D
ENCODING 65933
SWIDTH 500 0
DWIDTH 8 0
BBX 5 10 2 0
BITMAP
20
20
28
28
70
A0
A0
20
20
20
ENDCHAR
STARTCHAR uni01018E
ENCODING 65934
SWIDTH 500 0
DWIDTH 8 0
BBX 6 14 1 0
BITMAP
30
48
48
30
84
C4
C4
A4
A4
94
94
8C
8C
84
ENDCHAR
STARTCHAR uni010190
ENCODING 65936
SWIDTH 500 0
DWIDTH 8 0
BBX 6 5 1 2
BITMAP
FC
00
00
00
FC
ENDCHAR
STARTCHAR uni010191
ENCODING 65937
SWIDTH 500 0
DWIDTH 8 0
BBX 7 1 0 4
BITMAP
FE
ENDCHAR
STARTCHAR uni010192
ENCODING 65938
SWIDTH 500 0
DWIDTH 8 0
BBX 7 10 1 0
BITMAP
1C
20
20
20
20
20
20
20
7C
C2
ENDCHAR
STARTCHAR uni010193
ENCODING 65939
SWIDTH 500 0
DWIDTH 8 0
BBX 6 10 1 0
BITMAP
78
84
84
04
18
60
80
84
84
78
ENDCHAR
STARTCHAR uni010194
ENCODING 65940
SWIDTH 500 0
DWIDTH 8 0
BBX 8 10 0 0
BITMAP
3C
42
42
02
0C
FF
20
42
42
3C
ENDCHAR
STARTCHAR uni010195
ENCODING 65941
SWIDTH 500 0
DWIDTH 8 0
BBX 6 7 1 0
BITMAP
90
48
24
24
24
48
90
ENDCHAR
STARTCHAR uni010196
ENCODING 65942
SWIDTH 500 0
DWIDTH 8 0
BBX 8 10 0 0
BITMAP
42
42
24
24
18
FF
24
24
42
42
ENDCHAR
STARTCHAR uni010197
ENCODING 65943
SWIDTH 1000 0
DWIDTH 16 0
BBX 9 10 3 0
BITMAP
4100
4100
4100
2200
FF80
2200
1400
1400
0800
0800
ENDCHAR
STARTCHAR uni010198
ENCODING 65944
SWIDTH 1000 0
DWIDTH 16 0
BBX 16 10 0 0
BITMAP
213C
2142
2142
2140
FFFF
210C
2102
2142
2142
213C
ENDCHAR
STARTCHAR uni010199
ENCODING 65945
SWIDTH 1000 0
DWIDTH 16 0
BBX 10 10 3 0
BITMAP
2100
2100
2100
2100
FFC0
2100
2100
2100
2100
2100
ENDCHAR
STARTCHAR uni01019A
ENCODING 65946
SWIDTH 500 0
DWIDTH 8 0
BBX 6 10 1 0
BITMAP
04
04
08
10
FC
20
20
40
80
80
ENDCHAR
STARTCHAR uni01019B
ENCODING 65947
SWIDTH 500 0
DWIDTH 8 0
BBX 7 10 0 0
BITMAP
40
30
0C
02
04
08
10
20
40
80
ENDCHAR
STARTCHAR uni01019C
ENCODING 65948
SWIDTH 500 0
DWIDTH 8 0
BBX 8 12 0 -1
BITMAP
04
88
50
60
90
C8
E4
E2
71
78
30
20
ENDCHAR
STARTCHAR uni0101A0
ENCODING 65952
SWIDTH 500 0
DWIDTH 8 0
BBX 6 10 1 0
BITMAP
1C
24
24
24
38
20
FC
20
20
20
ENDCHAR
STARTCHAR uni0101D0
ENCODING 66000
SWIDTH 1000 0
DWIDTH 16 0
BBX 12 12 2 0
BITMAP
0700
0880
1480
8900
4600
39C0
0920
0910
0F00
0900
1100
2080
ENDCHAR
STARTCHAR uni0101D1
ENCODING 66001
SWIDTH 1000 0
DWIDTH 16 0
BBX 10 13 4 0
BITMAP
2800
2900
5A00
3C80
3D00
42C0
9500
4500
4200
4200
3400
1400
1800
ENDCHAR
STARTCHAR uni0101D2
ENCODING 66002
SWIDTH 1000 0
DWIDTH 16 0
BBX 9 11 3 0
BITMAP
1E00
2100
4080
5280
8280
C880
5100
4200
3400
1400
1800
ENDCHAR
STARTCHAR uni0101D3
ENCODING 66003
SWIDTH 1000 0
DWIDTH 16 0
BBX 9 12 3 0
BITMAP
3800
4400
A400
4400
3800
1A00
1500
1780
1D00
1400
1200
3600
ENDCHAR
STARTCHAR uni0101D4
ENCODING 66004
SWIDTH 1000 0
DWIDTH 16 0
BBX 8 12 3 0
BITMAP
38
44
A4
44
38
1A
35
55
5D
54
12
36
ENDCHAR
STARTCHAR uni0101D5
ENCODING 66005
SWIDTH 1000 0
DWIDTH 16 0
BBX 9 12 5 0
BITMAP
3800
4600
A500
4A80
3000
4C00
BA00
4A00
7800
4400
7C00
2800
ENDCHAR
STARTCHAR uni0101D6
ENCODING 66006
SWIDTH 1000 0
DWIDTH 16 0
BBX 7 9 4 0
BITMAP
38
28
6C
82
82
82
82
82
FE
ENDCHAR
STARTCHAR uni0101D7
ENCODING 66007
SWIDTH 1000 0
DWIDTH 16 0
BBX 11 10 2 0
BITMAP
5500
AAC0
AAA0
9020
C840
6480
5B00
7F00
4100
7F00
ENDCHAR
STARTCHAR uni0101D8
ENCODING 66008
SWIDTH 1000 0
DWIDTH 16 0
BBX 10 12 3 0
BITMAP
1800
3400
5200
7200
8900
A500
A480
A280
A280
E240
3F40
01C0
ENDCHAR
STARTCHAR uni0101D9
ENCODING 66009
SWIDTH 1000 0
DWIDTH 16 0
BBX 7 12 4 0
BITMAP
7C
D6
BA
D6
BA
54
38
10
10
10
10
10
ENDCHAR
STARTCHAR uni0101DA
ENCODING 66010
SWIDTH 500 0
DWIDTH 8 0
BBX 3 13 2 -1
BITMAP
40
20
20
40
80
C0
80
C0
80
40
20
20
40
ENDCHAR
STARTCHAR uni0101DB
ENCODING 66011
SWIDTH 1000 0
DWIDTH 16 0
BBX 9 9 3 1
BITMAP
3E00
4100
9480
8080
AA80
8080
9480
4100
3E00
ENDCHAR
STARTCHAR uni0101DC
ENCODING 66012
SWIDTH 1000 0
DWIDTH 16 0
BBX 5 12 5 0
BITMAP
70
D8
50
D8
50
D8
50
D8
50
50
88
70
ENDCHAR
STARTCHAR uni0101DD
ENCODING 66013
SWIDTH 1000 0
DWIDTH 16 0
BBX 9 11 3 0
BITMAP
FF00
A080
A080
A080
FF00
A000
FF00
A080
A080
A080
FF00
ENDCHAR
STARTCHAR uni0101DE
ENCODING 66014
SWIDTH 1000 0
DWIDTH 16 0
BBX 13 11 1 0
BITMAP
0040
00A0
00A0
7FB0
80A8
7FB0
00A0
0110
0110
0208
01F0
ENDCHAR
STARTCHAR uni0101DF
ENCODING 66015
SWIDTH 1000 0
DWIDTH 16 0
BBX 6 12 4 0
BITMAP
18
24
28
CC
84
84
44
44
48
48
50
60
ENDCHAR
STARTCHAR uni0101E0
ENCODING 66016
SWIDTH 1000 0
DWIDTH 16 0
BBX 6 12 4 0
BITMAP
08
14
24
24
64
A4
A4
64
24
24
14
08
ENDCHAR
STARTCHAR uni0101E1
ENCODING 66017
SWIDTH 1000 0
DWIDTH 16 0
BBX 8 11 3 0
BITMAP
04
0A
11
22
44
88
44
22
11
0A
04
ENDCHAR
STARTCHAR uni0101E2
ENCODING 66018
SWIDTH 1000 0
DWIDTH 16 0
BBX 7 11 3 0
BITMAP
80
80
40
40
22
22
14
14
08
08
04
ENDCHAR
STARTCHAR uni0101E3
ENCODING 66019
SWIDTH 1000 0
DWIDTH 16 0
BBX 6 11 4 0
BITMAP
0C
34
44
B8
C8
8C
B4
C4
58
68
38
ENDCHAR
STARTCHAR uni0101E4
ENCODING 66020
SWIDTH 1000 0
DWIDTH 16 0
BBX 9 11 4 0
BITMAP
5500
5500
FF80
0800
0800
3800
0800
0800
FF80
5500
5500
ENDCHAR
STARTCHAR uni0101E5
ENCODING 66021
SWIDTH 1000 0
DWIDTH 16 0
BBX 6 11 5 0
BITMAP
78
48
48
48
48
30
30
48
48
84
84
ENDCHAR
STARTCHAR uni0101E6
ENCODING 66022
SWIDTH 1000 0
DWIDTH 16 0
BBX 5 11 5 0
BITMAP
F8
88
F8
20
20
20
20
20
20
20
20
ENDCHAR
STARTCHAR uni0101E7
ENCODING 66023
SWIDTH 1000 0
DWIDTH 16 0
BBX 13 12 1 0
BITMAP
0200
0F80
1AC0
2AA0
3FE0
0A80
FFF8
0A80
1FC0
0A80
0A80
0A80
ENDCHAR
STARTCHAR uni0101E8
ENCODING 66024
SWIDTH 1000 0
DWIDTH 16 0
BBX 8 13 4 0
BITMAP
0D
63
BF
89
91
98
90
90
90
90
50
3A
07
ENDCHAR
STARTCHAR uni0101E9
ENCODING 66025
SWIDTH 1000 0
DWIDTH 16 0
BBX 5 12 5 0
BITMAP
30
30
50
50
A0
A0
90
50
48
48
48
78
ENDCHAR
STARTCHAR uni0101EA
ENCODING 66026
SWIDTH 1000 0
DWIDTH 16 0
BBX 13 11 1 0
BITMAP
0F80
0880
F8F8
8008
E038
1040
1040
1040
2020
4D90
3260
ENDCHAR
STARTCHAR uni0101EB
ENCODING 66027
SWIDTH 1000 0
DWIDTH 16 0
BBX 6 11 4 0
BITMAP
3C
24
24
24
48
48
48
88
F8
90
E0
ENDCHAR
STARTCHAR uni0101EC
ENCODING 66028
SWIDTH 1000 0
DWIDTH 16 0
BBX 10 12 2 1
BITMAP
0600
0500
1900
2100
5080
80C0
F040
C080
3100
0900
0A00
0C00
ENDCHAR
STARTCHAR uni0101ED
ENCODING 66029
SWIDTH 1000 0
DWIDTH 16 0
BBX 14 10 1 1
BITMAP
00F8
017C
0E84
118C
6868
8010
8068
7C04
0308
00F0
ENDCHAR
STARTCHAR uni0101EE
ENCODING 66030
SWIDTH 1000 0
DWIDTH 16 0
BBX 14 12 1 0
BITMAP
0600
0A00
1208
1214
71E4
8004
B004
51E4
5254
12C8
0AE0
0660
ENDCHAR
STARTCHAR uni0101EF
ENCODING 66031
SWIDTH 1000 0
DWIDTH 16 0
BBX 10 11 4 0
BITMAP
3000
4800
4800
A800
2800
5500
4E00
4100
3880
17C0
3000
ENDCHAR
STARTCHAR uni0101F0
ENCODING 66032
SWIDTH 1000 0
DWIDTH 16 0
BBX 8 12 4 0
BITMAP
10
10
28
44
94
42
45
44
AA
28
54
6C
ENDCHAR
STARTCHAR uni0101F1
ENCODING 66033
SWIDTH 1000 0
DWIDTH 16 0
BBX 9 10 3 1
BITMAP
4100
8880
9480
5500
2200
4100
4900
8880
9480
6B00
ENDCHAR
STARTCHAR uni0101F2
ENCODING 66034
SWIDTH 1000 0
DWIDTH 16 0
BBX 9 12 3 0
BITMAP
0400
0A00
0A00
7400
9B00
6C80
0B00
6800
9B00
6C80
0B00
0800
ENDCHAR
STARTCHAR uni0101F3
ENCODING 66035
SWIDTH 1000 0
DWIDTH 16 0
BBX 10 12 2 0
BITMAP
4080
E1C0
4080
31C0
6080
2B00
5100
1280
2C00
0C00
0C00
1E00
ENDCHAR
STARTCHAR uni0101F4
ENCODING 66036
SWIDTH 1000 0
DWIDTH 16 0
BBX 7 11 4 0
BITMAP
7C
AA
44
28
10
1C
70
10
18
30
10
ENDCHAR
STARTCHAR uni0101F5
ENCODING 66037
SWIDTH 1000 0
DWIDTH 16 0
BBX 9 9 3 2
BITMAP
3600
4900
AA80
9C80
7700
9C80
AA80
4900
3600
ENDCHAR
STARTCHAR uni0101F6
ENCODING 66038
SWIDTH 1000 0
DWIDTH 16 0
BBX 11 12 2 0
BITMAP
8420
CA60
AAA0
5B40
2240
1880
0900
0A00
0A00
0A00
0A00
0E00
ENDCHAR
STARTCHAR uni0101F7
ENCODING 66039
SWIDTH 1000 0
DWIDTH 16 0
BBX 9 11 3 0
BITMAP
7700
8880
8880
8880
8880
8880
8880
4900
2A00
2A00
7F00
ENDCHAR
STARTCHAR uni0101F8
ENCODING 66040
SWIDTH 1000 0
DWIDTH 16 0
BBX 6 12 5 0
BITMAP
60
98
84
A8
A8
A8
A8
A8
A8
88
48
38
ENDCHAR
STARTCHAR uni0101F9
ENCODING 66041
SWIDTH 1000 0
DWIDTH 16 0
BBX 6 11 4 0
BITMAP
30
48
5C
A8
DC
A8
DC
A8
54
4C
30
ENDCHAR
STARTCHAR uni0101FA
ENCODING 66042
SWIDTH 1000 0
DWIDTH 16 0
BBX 13 7 1 0
BITMAP
FFF8
5550
2AA0
1540
0A80
0500
0200
ENDCHAR
STARTCHAR uni0101FB
ENCODING 66043
SWIDTH 1000 0
DWIDTH 16 0
BBX 10 10 2 1
BITMAP
0400
7A00
4200
4200
4100
8080
7240
0880
0500
0200
ENDCHAR
STARTCHAR uni0101FC
ENCODING 66044
SWIDTH 1000 0
DWIDTH 16 0
BBX 9 13 4 0
BITMAP
1F80
2900
2900
5200
5400
5400
5400
4A00
2A00
2A00
2A00
5200
FC00
ENDCHAR
STARTCHAR uni0101FD
ENCODING 66045
SWIDTH 0 0
DWIDTH 0 0
BBX 4 4 -13 -2
BITMAP
10
20
40
80
ENDCHAR
STARTCHAR uni010280
ENCODING 66176
SWIDTH 500 0
DWIDTH 8 0
BBX 5 10 2 0
BITMAP
80
C0
A0
90
F8
80
80
80
80
80
ENDCHAR
STARTCHAR uni010281
ENCODING 66177
SWIDTH 500 0
DWIDTH 8 0
BBX 5 10 2 0
BITMAP
20
70
A8
20
20
20
20
20
20
20
ENDCHAR
STARTCHAR uni010282
ENCODING 66178
SWIDTH 500 0
DWIDTH 8 0
BBX 6 10 1 0
BITMAP
F8
84
84
84
F8
84
84
84
84
F8
ENDCHAR
STARTCHAR uni010283
ENCODING 66179
SWIDTH 500 0
DWIDTH 8 0
BBX 6 10 1 0
BITMAP
80
D4
D4
A8
A8
80
80
80
80
80
ENDCHAR
STARTCHAR uni010284
ENCODING 66180
SWIDTH 500 0
DWIDTH 8 0
BBX 4 10 2 0
BITMAP
90
A0
C0
80
80
80
80
80
80
80
ENDCHAR
STARTCHAR uni010285
ENCODING 66181
SWIDTH 500 0
DWIDTH 8 0
BBX 7 10 1 0
BITMAP
10
10
28
28
44
44
44
82
82
FE
ENDCHAR
STARTCHAR uni010286
ENCODING 66182
SWIDTH 500 0
DWIDTH 8 0
BBX 6 10 1 0
BITMAP
FC
80
80
80
F8
80
80
80
80
FC
ENDCHAR
STARTCHAR uni010287
ENCODING 66183
SWIDTH 500 0
DWIDTH 8 0
BBX 6 10 1 0
BITMAP
FC
80
80
80
F8
80
80
80
80
80
ENDCHAR
STARTCHAR uni010288
ENCODING 66184
SWIDTH 500 0
DWIDTH 8 0
BBX 5 10 2 0
BITMAP
F8
20
20
20
20
20
20
20
20
F8
ENDCHAR
STARTCHAR uni010289
ENCODING 66185
SWIDTH 500 0
DWIDTH 8 0
BBX 7 10 1 0
BITMAP
C6
28
28
10
10
10
10
28
28
C6
ENDCHAR
STARTCHAR uni01028A
ENCODING 66186
SWIDTH 500 0
DWIDTH 8 0
BBX 1 10 4 0
BITMAP
80
80
80
80
80
80
80
80
80
80
ENDCHAR
STARTCHAR uni01028B
ENCODING 66187
SWIDTH 500 0
DWIDTH 8 0
BBX 5 10 2 0
BITMAP
80
88
90
A0
C0
C0
A0
90
88
80
ENDCHAR
STARTCHAR uni01028C
ENCODING 66188
SWIDTH 500 0
DWIDTH 8 0
BBX 7 10 1 0
BITMAP
10
92
54
38
10
38
54
92
10
10
ENDCHAR
STARTCHAR uni01028D
ENCODING 66189
SWIDTH 500 0
DWIDTH 8 0
BBX 7 10 1 0
BITMAP
10
10
28
28
44
44
44
82
82
82
ENDCHAR
STARTCHAR uni01028E
ENCODING 66190
SWIDTH 1000 0
DWIDTH 16 0
BBX 9 6 3 4
BITMAP
2200
2200
5500
5500
8880
8880
ENDCHAR
STARTCHAR uni01028F
ENCODING 66191
SWIDTH 1000 0
DWIDTH 16 0
BBX 13 6 1 4
BITMAP
0408
0C10
1220
2240
4180
8100
ENDCHAR
STARTCHAR uni010290
ENCODING 66192
SWIDTH 500 0
DWIDTH 8 0
BBX 7 7 1 2
BITMAP
82
44
28
10
28
44
82
ENDCHAR
STARTCHAR uni010291
ENCODING 66193
SWIDTH 500 0
DWIDTH 8 0
BBX 5 10 2 0
BITMAP
F8
20
20
20
F8
20
20
20
20
F8
ENDCHAR
STARTCHAR uni010292
ENCODING 66194
SWIDTH 500 0
DWIDTH 8 0
BBX 6 10 1 0
BITMAP
78
84
84
84
84
84
84
84
84
78
ENDCHAR
STARTCHAR uni010293
ENCODING 66195
SWIDTH 500 0
DWIDTH 8 0
BBX 5 10 2 0
BITMAP
E0
90
88
88
88
80
80
80
80
80
ENDCHAR
STARTCHAR uni010294
ENCODING 66196
SWIDTH 500 0
DWIDTH 8 0
BBX 5 10 2 0
BITMAP
20
20
50
50
88
88
50
50
20
20
ENDCHAR
STARTCHAR uni010295
ENCODING 66197
SWIDTH 500 0
DWIDTH 8 0
BBX 6 10 1 0
BITMAP
F8
84
84
84
F8
80
80
80
80
80
ENDCHAR
STARTCHAR uni010296
ENCODING 66198
SWIDTH 500 0
DWIDTH 8 0
BBX 6 10 1 0
BITMAP
78
84
84
80
60
18
04
84
84
78
ENDCHAR
STARTCHAR uni010297
ENCODING 66199
SWIDTH 500 0
DWIDTH 8 0
BBX 7 10 1 0
BITMAP
FE
10
10
10
10
10
10
10
10
10
ENDCHAR
STARTCHAR uni010298
ENCODING 66200
SWIDTH 1000 0
DWIDTH 16 0
BBX 9 10 3 0
BITMAP
8880
5500
2200
0800
0800
0800
0800
0800
0800
0800
ENDCHAR
STARTCHAR uni010299
ENCODING 66201
SWIDTH 500 0
DWIDTH 8 0
BBX 8 10 0 0
BITMAP
95
95
8A
4A
44
44
28
28
10
10
ENDCHAR
STARTCHAR uni01029A
ENCODING 66202
SWIDTH 1000 0
DWIDTH 16 0
BBX 9 10 3 0
BITMAP
1400
8880
5500
2200
0800
0800
0800
0800
0800
0800
ENDCHAR
STARTCHAR uni01029B
ENCODING 66203
SWIDTH 500 0
DWIDTH 8 0
BBX 5 10 2 0
BITMAP
20
20
20
20
F8
20
20
20
20
20
ENDCHAR
STARTCHAR uni01029C
ENCODING 66204
SWIDTH 500 0
DWIDTH 8 0
BBX 7 10 1 0
BITMAP
92
92
92
54
54
54
38
38
10
10
ENDCHAR
STARTCHAR uni0102A0
ENCODING 66208
SWIDTH 500 0
DWIDTH 8 0
BBX 7 10 1 0
BITMAP
10
10
28
28
44
44
7C
82
82
82
ENDCHAR
STARTCHAR uni0102A1
ENCODING 66209
SWIDTH 500 0
DWIDTH 8 0
BBX 4 10 2 0
BITMAP
C0
A0
90
90
E0
A0
90
90
A0
C0
ENDCHAR
STARTCHAR uni0102A2
ENCODING 66210
SWIDTH 500 0
DWIDTH 8 0
BBX 5 11 2 0
BITMAP
18
20
40
40
80
80
80
40
40
20
18
ENDCHAR
STARTCHAR uni0102A3
ENCODING 66211
SWIDTH 500 0
DWIDTH 8 0
BBX 7 10 1 0
BITMAP
10
10
28
28
44
44
44
82
82
FE
ENDCHAR
STARTCHAR uni0102A4
ENCODING 66212
SWIDTH 500 0
DWIDTH 8 0
BBX 5 12 1 0
BITMAP
80
E0
98
80
80
80
E0
90
80
80
E0
98
ENDCHAR
STARTCHAR uni0102A5
ENCODING 66213
SWIDTH 500 0
DWIDTH 8 0
BBX 5 12 1 0
BITMAP
80
E0
98
80
80
80
E0
90
80
80
80
80
ENDCHAR
STARTCHAR uni0102A6
ENCODING 66214
SWIDTH 500 0
DWIDTH 8 0
BBX 5 10 2 0
BITMAP
F8
20
20
20
20
20
20
20
20
F8
ENDCHAR
STARTCHAR uni0102A7
ENCODING 66215
SWIDTH 500 0
DWIDTH 8 0
BBX 7 10 1 0
BITMAP
FE
82
82
82
FE
82
82
82
82
FE
ENDCHAR
STARTCHAR uni0102A8
ENCODING 66216
SWIDTH 500 0
DWIDTH 8 0
BBX 7 10 1 0
BITMAP
38
54
92
92
FE
92
92
92
54
38
ENDCHAR
STARTCHAR uni0102A9
ENCODING 66217
SWIDTH 500 0
DWIDTH 8 0
BBX 5 12 1 0
BITMAP
80
E0
98
80
80
80
80
80
80
80
80
80
ENDCHAR
STARTCHAR uni0102AA
ENCODING 66218
SWIDTH 500 0
DWIDTH 8 0
BBX 6 10 1 0
BITMAP
84
C4
A4
94
8C
84
80
80
80
80
ENDCHAR
STARTCHAR uni0102AB
ENCODING 66219
SWIDTH 500 0
DWIDTH 8 0
BBX 7 10 1 0
BITMAP
38
44
82
82
82
82
82
82
44
38
ENDCHAR
STARTCHAR uni0102AC
ENCODING 66220
SWIDTH 500 0
DWIDTH 8 0
BBX 7 10 1 0
BITMAP
38
44
82
82
82
80
80
80
80
80
ENDCHAR
STARTCHAR uni0102AD
ENCODING 66221
SWIDTH 500 0
DWIDTH 8 0
BBX 7 10 1 0
BITMAP
38
44
82
82
82
44
38
10
10
10
ENDCHAR
STARTCHAR uni0102AE
ENCODING 66222
SWIDTH 500 0
DWIDTH 8 0
BBX 5 10 2 0
BITMAP
08
08
38
48
88
88
48
38
08
08
ENDCHAR
STARTCHAR uni0102AF
ENCODING 66223
SWIDTH 500 0
DWIDTH 8 0
BBX 5 10 2 0
BITMAP
C0
B0
88
88
88
B0
C0
A0
90
80
ENDCHAR
STARTCHAR uni0102B0
ENCODING 66224
SWIDTH 1000 0
DWIDTH 16 0
BBX 13 10 2 0
BITMAP
1040
28A0
28A0
28A0
4510
4510
4510
8208
8208
8208
ENDCHAR
STARTCHAR uni0102B1
ENCODING 66225
SWIDTH 500 0
DWIDTH 8 0
BBX 7 10 1 0
BITMAP
FE
10
10
10
10
10
10
10
10
10
ENDCHAR
STARTCHAR uni0102B2
ENCODING 66226
SWIDTH 500 0
DWIDTH 8 0
BBX 7 10 1 0
BITMAP
82
44
44
28
28
10
10
10
10
10
ENDCHAR
STARTCHAR uni0102B3
ENCODING 66227
SWIDTH 500 0
DWIDTH 8 0
BBX 7 11 1 0
BITMAP
10
10
38
54
92
92
92
54
38
10
10
ENDCHAR
STARTCHAR uni0102B4
ENCODING 66228
SWIDTH 500 0
DWIDTH 8 0
BBX 7 7 1 2
BITMAP
82
44
28
10
28
44
82
ENDCHAR
STARTCHAR uni0102B5
ENCODING 66229
SWIDTH 500 0
DWIDTH 8 0
BBX 7 10 1 0
BITMAP
92
54
54
38
38
10
10
10
10
10
ENDCHAR
STARTCHAR uni0102B6
ENCODING 66230
SWIDTH 500 0
DWIDTH 8 0
BBX 7 10 1 0
BITMAP
7C
82
82
82
82
82
44
28
28
EE
ENDCHAR
STARTCHAR uni0102B7
ENCODING 66231
SWIDTH 1000 0
DWIDTH 16 0
BBX 13 10 2 0
BITMAP
1040
28A0
28A0
28A0
4510
4510
4510
8208
8208
FFF8
ENDCHAR
STARTCHAR uni0102B8
ENCODING 66232
SWIDTH 500 0
DWIDTH 8 0
BBX 7 10 1 0
BITMAP
38
54
92
92
92
92
92
92
54
38
ENDCHAR
STARTCHAR uni0102B9
ENCODING 66233
SWIDTH 500 0
DWIDTH 8 0
BBX 5 10 2 0
BITMAP
38
48
88
88
F8
88
88
88
48
38
ENDCHAR
STARTCHAR uni0102BA
ENCODING 66234
SWIDTH 500 0
DWIDTH 8 0
BBX 7 7 1 3
BITMAP
FE
82
82
82
82
82
FE
ENDCHAR
STARTCHAR uni0102BB
ENCODING 66235
SWIDTH 500 0
DWIDTH 8 0
BBX 7 10 1 0
BITMAP
FE
82
82
82
82
82
FE
10
10
10
ENDCHAR
STARTCHAR uni0102BC
ENCODING 66236
SWIDTH 500 0
DWIDTH 8 0
BBX 7 10 1 0
BITMAP
FE
82
82
44
44
44
28
28
10
10
ENDCHAR
STARTCHAR uni0102BD
ENCODING 66237
SWIDTH 500 0
DWIDTH 8 0
BBX 7 10 1 0
BITMAP
FE
44
44
28
28
10
10
10
10
10
ENDCHAR
STARTCHAR uni0102BE
ENCODING 66238
SWIDTH 500 0
DWIDTH 8 0
BBX 7 10 1 0
BITMAP
10
28
44
82
00
00
10
28
44
82
ENDCHAR
STARTCHAR uni0102BF
ENCODING 66239
SWIDTH 500 0
DWIDTH 8 0
BBX 7 10 1 0
BITMAP
FE
92
92
92
92
92
92
92
92
92
ENDCHAR
STARTCHAR uni0102C0
ENCODING 66240
SWIDTH 500 0
DWIDTH 8 0
BBX 7 11 1 0
BITMAP
FE
44
44
28
28
10
28
28
44
44
FE
ENDCHAR
STARTCHAR uni0102C1
ENCODING 66241
SWIDTH 500 0
DWIDTH 8 0
BBX 7 11 1 0
BITMAP
FE
44
44
28
28
10
28
28
44
44
82
ENDCHAR
STARTCHAR uni0102C2
ENCODING 66242
SWIDTH 500 0
DWIDTH 8 0
BBX 8 12 0 -1
BITMAP
81
42
42
24
24
24
24
24
24
42
42
81
ENDCHAR
STARTCHAR uni0102C3
ENCODING 66243
SWIDTH 500 0
DWIDTH 8 0
BBX 7 10 1 0
BITMAP
30
40
80
98
84
42
32
02
04
18
ENDCHAR
STARTCHAR uni0102C4
ENCODING 66244
SWIDTH 500 0
DWIDTH 8 0
BBX 7 10 1 0
BITMAP
44
44
AA
AA
10
28
28
44
44
82
ENDCHAR
STARTCHAR uni0102C5
ENCODING 66245
SWIDTH 500 0
DWIDTH 8 0
BBX 7 10 1 0
BITMAP
92
92
92
92
FE
92
92
92
92
92
ENDCHAR
STARTCHAR uni0102C6
ENCODING 66246
SWIDTH 500 0
DWIDTH 8 0
BBX 7 10 1 0
BITMAP
40
20
10
F8
20
40
40
42
22
1C
ENDCHAR
STARTCHAR uni0102C7
ENCODING 66247
SWIDTH 500 0
DWIDTH 8 0
BBX 7 10 1 0
BITMAP
10
38
54
92
10
10
10
10
10
10
ENDCHAR
STARTCHAR uni0102C8
ENCODING 66248
SWIDTH 500 0
DWIDTH 8 0
BBX 7 10 1 0
BITMAP
82
82
82
82
92
92
10
10
10
10
ENDCHAR
STARTCHAR uni0102C9
ENCODING 66249
SWIDTH 500 0
DWIDTH 8 0
BBX 6 10 1 0
BITMAP
38
40
80
80
B8
84
84
84
44
38
ENDCHAR
STARTCHAR uni0102CA
ENCODING 66250
SWIDTH 500 0
DWIDTH 8 0
BBX 7 10 1 0
BITMAP
84
42
42
22
22
24
24
48
50
E0
ENDCHAR
STARTCHAR uni0102CB
ENCODING 66251
SWIDTH 500 0
DWIDTH 8 0
BBX 7 10 1 0
BITMAP
E0
50
48
24
24
22
22
42
42
84
ENDCHAR
STARTCHAR uni0102CC
ENCODING 66252
SWIDTH 500 0
DWIDTH 8 0
BBX 7 10 1 0
BITMAP
44
84
88
88
48
3E
08
08
04
04
ENDCHAR
STARTCHAR uni0102CD
ENCODING 66253
SWIDTH 500 0
DWIDTH 8 0
BBX 5 10 2 0
BITMAP
88
88
88
88
90
E0
80
80
80
80
ENDCHAR
STARTCHAR uni0102CE
ENCODING 66254
SWIDTH 500 0
DWIDTH 8 0
BBX 7 10 1 0
BITMAP
10
10
28
28
44
44
44
82
BA
82
ENDCHAR
STARTCHAR uni0102CF
ENCODING 66255
SWIDTH 500 0
DWIDTH 8 0
BBX 6 10 1 0
BITMAP
84
84
84
84
FC
84
84
84
84
84
ENDCHAR
STARTCHAR uni0102D0
ENCODING 66256
SWIDTH 500 0
DWIDTH 8 0
BBX 7 10 1 0
BITMAP
92
92
92
92
FE
10
10
10
10
10
ENDCHAR
STARTCHAR uni0102E0
ENCODING 66272
SWIDTH 0 0
DWIDTH 0 0
BBX 3 3 -3 -2
BITMAP
20
40
80
ENDCHAR
STARTCHAR uni0102E1
ENCODING 66273
SWIDTH 500 0
DWIDTH 8 0
BBX 5 5 1 0
BITMAP
20
10
08
08
F0
ENDCHAR
STARTCHAR uni0102E2
ENCODING 66274
SWIDTH 500 0
DWIDTH 8 0
BBX 7 4 0 0
BITMAP
92
92
92
6C
ENDCHAR
STARTCHAR uni0102E3
ENCODING 66275
SWIDTH 500 0
DWIDTH 8 0
BBX 8 5 0 -1
BITMAP
11
AE
A0
60
20
ENDCHAR
STARTCHAR uni0102E4
ENCODING 66276
SWIDTH 500 0
DWIDTH 8 0
BBX 5 7 1 -2
BITMAP
30
48
08
10
20
40
80
ENDCHAR
STARTCHAR uni0102E5
ENCODING 66277
SWIDTH 500 0
DWIDTH 8 0
BBX 4 7 1 0
BITMAP
70
80
80
70
80
80
70
ENDCHAR
STARTCHAR uni0102E6
ENCODING 66278
SWIDTH 500 0
DWIDTH 8 0
BBX 6 8 1 0
BITMAP
0C
70
80
80
70
80
80
70
ENDCHAR
STARTCHAR uni0102E7
ENCODING 66279
SWIDTH 500 0
DWIDTH 8 0
BBX 4 7 2 0
BITMAP
E0
10
10
E0
10
10
E0
ENDCHAR
STARTCHAR uni0102E8
ENCODING 66280
SWIDTH 500 0
DWIDTH 8 0
BBX 6 10 1 0
BITMAP
40
40
40
40
40
40
58
64
44
F8
ENDCHAR
STARTCHAR uni0102E9
ENCODING 66281
SWIDTH 500 0
DWIDTH 8 0
BBX 7 9 1 0
BITMAP
30
48
48
84
FE
84
48
48
30
ENDCHAR
STARTCHAR uni0102EA
ENCODING 66282
SWIDTH 500 0
DWIDTH 8 0
BBX 3 6 2 0
BITMAP
80
80
80
80
80
60
ENDCHAR
STARTCHAR uni0102EB
ENCODING 66283
SWIDTH 500 0
DWIDTH 8 0
BBX 7 9 1 0
BITMAP
80
80
80
80
80
92
92
92
6C
ENDCHAR
STARTCHAR uni0102EC
ENCODING 66284
SWIDTH 500 0
DWIDTH 8 0
BBX 7 10 1 -2
BITMAP
08
08
08
08
08
0E
08
88
88
70
ENDCHAR
STARTCHAR uni0102ED
ENCODING 66285
SWIDTH 500 0
DWIDTH 8 0
BBX 7 6 0 0
BITMAP
92
92
6C
20
40
FE
ENDCHAR
STARTCHAR uni0102EE
ENCODING 66286
SWIDTH 500 0
DWIDTH 8 0
BBX 6 7 1 0
BITMAP
08
44
24
24
24
48
F0
ENDCHAR
STARTCHAR uni0102EF
ENCODING 66287
SWIDTH 500 0
DWIDTH 8 0
BBX 5 6 2 0
BITMAP
C0
30
48
88
90
E0
ENDCHAR
STARTCHAR uni0102F0
ENCODING 66288
SWIDTH 500 0
DWIDTH 8 0
BBX 5 6 2 0
BITMAP
40
20
50
88
50
20
ENDCHAR
STARTCHAR uni0102F1
ENCODING 66289
SWIDTH 500 0
DWIDTH 8 0
BBX 7 8 0 0
BITMAP
02
04
08
34
42
92
92
6C
ENDCHAR
STARTCHAR uni0102F2
ENCODING 66290
SWIDTH 500 0
DWIDTH 8 0
BBX 8 6 0 -1
BITMAP
06
09
0E
08
30
C0
ENDCHAR
STARTCHAR uni0102F3
ENCODING 66291
SWIDTH 500 0
DWIDTH 8 0
BBX 5 6 1 0
BITMAP
40
20
10
60
80
F8
ENDCHAR
STARTCHAR uni0102F4
ENCODING 66292
SWIDTH 500 0
DWIDTH 8 0
BBX 6 6 1 0
BITMAP
04
18
60
80
90
60
ENDCHAR
STARTCHAR uni0102F5
ENCODING 66293
SWIDTH 500 0
DWIDTH 8 0
BBX 5 5 1 0
BITMAP
F0
10
60
80
F8
ENDCHAR
STARTCHAR uni0102F6
ENCODING 66294
SWIDTH 500 0
DWIDTH 8 0
BBX 5 5 1 0
BITMAP
30
40
88
80
70
ENDCHAR
STARTCHAR uni0102F7
ENCODING 66295
SWIDTH 500 0
DWIDTH 8 0
BBX 6 7 1 0
BITMAP
78
94
78
08
30
40
7C
ENDCHAR
STARTCHAR uni0102F8
ENCODING 66296
SWIDTH 500 0
DWIDTH 8 0
BBX 6 10 1 -2
BITMAP
08
0C
18
28
18
0C
08
88
88
70
ENDCHAR
STARTCHAR uni0102F9
ENCODING 66297
SWIDTH 500 0
DWIDTH 8 0
BBX 5 7 1 -2
BITMAP
40
20
78
10
60
80
F8
ENDCHAR
STARTCHAR uni0102FA
ENCODING 66298
SWIDTH 500 0
DWIDTH 8 0
BBX 7 8 0 0
BITMAP
10
00
44
00
92
92
92
6C
ENDCHAR
STARTCHAR uni0102FB
ENCODING 66299
SWIDTH 500 0
DWIDTH 8 0
BBX 6 7 1 0
BITMAP
44
38
18
10
60
80
F8
ENDCHAR
STARTCHAR uni010300
ENCODING 66304
SWIDTH 500 0
DWIDTH 8 0
BBX 6 10 1 0
BITMAP
C0
A0
90
90
88
88
FC
84
84
84
ENDCHAR
STARTCHAR uni010301
ENCODING 66305
SWIDTH 500 0
DWIDTH 8 0
BBX 4 10 2 0
BITMAP
C0
A0
90
90
E0
A0
90
90
A0
C0
ENDCHAR
STARTCHAR uni010302
ENCODING 66306
SWIDTH 500 0
DWIDTH 8 0
BBX 5 11 2 0
BITMAP
18
20
40
40
80
80
80
40
40
20
18
ENDCHAR
STARTCHAR uni010303
ENCODING 66307
SWIDTH 500 0
DWIDTH 8 0
BBX 6 10 1 0
BITMAP
E0
90
88
84
84
84
88
88
90
90
ENDCHAR
STARTCHAR uni010304
ENCODING 66308
SWIDTH 500 0
DWIDTH 8 0
BBX 5 12 1 0
BITMAP
80
E0
98
80
80
80
E0
90
80
80
E0
98
ENDCHAR
STARTCHAR uni010305
ENCODING 66309
SWIDTH 500 0
DWIDTH 8 0
BBX 5 12 1 0
BITMAP
80
E0
98
80
80
80
E0
90
80
80
80
80
ENDCHAR
STARTCHAR uni010306
ENCODING 66310
SWIDTH 500 0
DWIDTH 8 0
BBX 5 10 2 0
BITMAP
E0
38
20
20
20
20
20
20
E0
18
ENDCHAR
STARTCHAR uni010307
ENCODING 66311
SWIDTH 500 0
DWIDTH 8 0
BBX 7 10 1 0
BITMAP
FE
82
82
82
FE
82
82
82
82
FE
ENDCHAR
STARTCHAR uni010308
ENCODING 66312
SWIDTH 500 0
DWIDTH 8 0
BBX 7 10 1 0
BITMAP
38
44
C6
AA
92
92
AA
C6
44
38
ENDCHAR
STARTCHAR uni010309
ENCODING 66313
SWIDTH 500 0
DWIDTH 8 0
BBX 1 10 4 0
BITMAP
80
80
80
80
80
80
80
80
80
80
ENDCHAR
STARTCHAR uni01030A
ENCODING 66314
SWIDTH 500 0
DWIDTH 8 0
BBX 5 10 1 0
BITMAP
80
88
90
A0
C0
C0
A0
90
88
80
ENDCHAR
STARTCHAR uni01030B
ENCODING 66315
SWIDTH 500 0
DWIDTH 8 0
BBX 5 10 2 0
BITMAP
80
80
80
80
80
80
80
98
E0
80
ENDCHAR
STARTCHAR uni01030C
ENCODING 66316
SWIDTH 500 0
DWIDTH 8 0
BBX 6 10 1 0
BITMAP
80
D4
D4
A8
A8
80
80
80
80
80
ENDCHAR
STARTCHAR uni01030D
ENCODING 66317
SWIDTH 500 0
DWIDTH 8 0
BBX 7 10 1 0
BITMAP
82
C4
A8
90
80
80
80
80
80
80
ENDCHAR
STARTCHAR uni01030E
ENCODING 66318
SWIDTH 500 0
DWIDTH 8 0
BBX 7 10 1 0
BITMAP
FE
92
92
92
FE
92
92
92
92
FE
ENDCHAR
STARTCHAR uni01030F
ENCODING 66319
SWIDTH 500 0
DWIDTH 8 0
BBX 7 10 1 0
BITMAP
38
44
82
82
82
82
82
82
44
38
ENDCHAR
STARTCHAR uni010310
ENCODING 66320
SWIDTH 500 0
DWIDTH 8 0
BBX 5 10 2 0
BITMAP
E0
90
88
88
88
80
80
80
80
80
ENDCHAR
STARTCHAR uni010311
ENCODING 66321
SWIDTH 500 0
DWIDTH 8 0
BBX 7 10 1 0
BITMAP
82
C6
AA
92
82
82
82
82
82
82
ENDCHAR
STARTCHAR uni010312
ENCODING 66322
SWIDTH 500 0
DWIDTH 8 0
BBX 7 10 1 0
BITMAP
38
44
82
82
82
44
38
10
10
10
ENDCHAR
STARTCHAR uni010313
ENCODING 66323
SWIDTH 500 0
DWIDTH 8 0
BBX 5 10 2 0
BITMAP
C0
B0
88
88
88
B0
C0
80
80
80
ENDCHAR
STARTCHAR uni010314
ENCODING 66324
SWIDTH 500 0
DWIDTH 8 0
BBX 4 10 2 0
BITMAP
10
20
40
80
40
20
10
20
40
80
ENDCHAR
STARTCHAR uni010315
ENCODING 66325
SWIDTH 500 0
DWIDTH 8 0
BBX 7 10 1 0
BITMAP
FE
10
10
10
10
10
10
10
10
10
ENDCHAR
STARTCHAR uni010316
ENCODING 66326
SWIDTH 500 0
DWIDTH 8 0
BBX 7 10 1 0
BITMAP
82
44
28
10
10
10
10
10
10
10
ENDCHAR
STARTCHAR uni010317
ENCODING 66327
SWIDTH 500 0
DWIDTH 8 0
BBX 7 7 1 2
BITMAP
82
44
28
10
28
44
82
ENDCHAR
STARTCHAR uni010318
ENCODING 66328
SWIDTH 500 0
DWIDTH 8 0
BBX 7 10 1 0
BITMAP
38
54
92
92
92
54
38
10
10
10
ENDCHAR
STARTCHAR uni010319
ENCODING 66329
SWIDTH 500 0
DWIDTH 8 0
BBX 7 10 1 0
BITMAP
92
54
38
10
10
10
10
10
10
10
ENDCHAR
STARTCHAR uni01031A
ENCODING 66330
SWIDTH 500 0
DWIDTH 8 0
BBX 5 9 2 0
BITMAP
70
88
88
88
70
88
88
88
70
ENDCHAR
STARTCHAR uni01031B
ENCODING 66331
SWIDTH 500 0
DWIDTH 8 0
BBX 5 10 2 0
BITMAP
C0
B0
88
88
B0
C0
80
80
80
80
ENDCHAR
STARTCHAR uni01031C
ENCODING 66332
SWIDTH 500 0
DWIDTH 8 0
BBX 5 10 2 0
BITMAP
80
80
80
80
C0
B0
88
88
B0
C0
ENDCHAR
STARTCHAR uni01031D
ENCODING 66333
SWIDTH 500 0
DWIDTH 8 0
BBX 4 10 2 0
BITMAP
10
10
10
10
F0
10
10
10
10
10
ENDCHAR
STARTCHAR uni01031E
ENCODING 66334
SWIDTH 500 0
DWIDTH 8 0
BBX 7 10 1 0
BITMAP
82
92
92
44
44
44
28
28
10
10
ENDCHAR
STARTCHAR uni01031F
ENCODING 66335
SWIDTH 500 0
DWIDTH 8 0
BBX 7 10 1 0
BITMAP
10
10
92
54
38
10
38
54
92
10
ENDCHAR
STARTCHAR uni010320
ENCODING 66336
SWIDTH 500 0
DWIDTH 8 0
BBX 1 10 4 0
BITMAP
80
80
80
80
80
80
80
80
80
80
ENDCHAR
STARTCHAR uni010321
ENCODING 66337
SWIDTH 500 0
DWIDTH 8 0
BBX 7 10 1 0
BITMAP
10
10
28
28
44
44
44
82
82
82
ENDCHAR
STARTCHAR uni010322
ENCODING 66338
SWIDTH 500 0
DWIDTH 8 0
BBX 7 7 1 2
BITMAP
82
44
28
10
28
44
82
ENDCHAR
STARTCHAR uni010323
ENCODING 66339
SWIDTH 500 0
DWIDTH 8 0
BBX 7 10 1 0
BITMAP
10
38
54
92
10
10
10
10
10
10
ENDCHAR
STARTCHAR uni01032D
ENCODING 66349
SWIDTH 500 0
DWIDTH 8 0
BBX 5 9 1 0
BITMAP
08
10
20
40
80
40
20
10
08
ENDCHAR
STARTCHAR uni01032E
ENCODING 66350
SWIDTH 500 0
DWIDTH 8 0
BBX 7 10 1 0
BITMAP
10
38
54
92
10
10
10
10
10
10
ENDCHAR
STARTCHAR uni01032F
ENCODING 66351
SWIDTH 500 0
DWIDTH 8 0
BBX 6 10 1 0
BITMAP
80
F0
8C
F0
8C
F0
8C
F0
8C
F0
ENDCHAR
STARTCHAR uni010330
ENCODING 66352
SWIDTH 500 0
DWIDTH 8 0
BBX 6 9 1 -1
BITMAP
C0
20
50
50
48
48
44
44
40
ENDCHAR
STARTCHAR uni010331
ENCODING 66353
SWIDTH 500 0
DWIDTH 8 0
BBX 6 8 1 0
BITMAP
90
90
A0
F8
84
84
84
F8
ENDCHAR
STARTCHAR uni010332
ENCODING 66354
SWIDTH 500 0
DWIDTH 8 0
BBX 6 8 1 0
BITMAP
FC
84
80
80
80
80
80
80
ENDCHAR
STARTCHAR uni010333
ENCODING 66355
SWIDTH 500 0
DWIDTH 8 0
BBX 6 8 1 0
BITMAP
C0
20
10
10
08
88
8C
74
ENDCHAR
STARTCHAR uni010334
ENCODING 66356
SWIDTH 500 0
DWIDTH 8 0
BBX 6 8 1 0
BITMAP
38
44
80
FC
84
80
44
38
ENDCHAR
STARTCHAR uni010335
ENCODING 66357
SWIDTH 500 0
DWIDTH 8 0
BBX 6 8 1 0
BITMAP
88
88
88
88
88
88
88
7C
ENDCHAR
STARTCHAR uni010336
ENCODING 66358
SWIDTH 500 0
DWIDTH 8 0
BBX 6 8 1 0
BITMAP
FC
04
08
10
20
40
80
FC
ENDCHAR
STARTCHAR uni010337
ENCODING 66359
SWIDTH 500 0
DWIDTH 8 0
BBX 6 10 1 0
BITMAP
80
80
80
F8
84
84
84
84
84
84
ENDCHAR
STARTCHAR uni010338
ENCODING 66360
SWIDTH 500 0
DWIDTH 8 0
BBX 7 11 1 -1
BITMAP
10
10
54
92
92
92
54
38
10
10
10
ENDCHAR
STARTCHAR uni010339
ENCODING 66361
SWIDTH 500 0
DWIDTH 8 0
BBX 1 8 4 0
BITMAP
80
80
80
80
80
80
80
80
ENDCHAR
STARTCHAR uni01033A
ENCODING 66362
SWIDTH 500 0
DWIDTH 8 0
BBX 6 8 1 0
BITMAP
84
88
90
E0
90
88
88
84
ENDCHAR
STARTCHAR uni01033B
ENCODING 66363
SWIDTH 500 0
DWIDTH 8 0
BBX 6 8 1 0
BITMAP
80
40
40
A0
90
90
88
84
ENDCHAR
STARTCHAR uni01033C
ENCODING 66364
SWIDTH 500 0
DWIDTH 8 0
BBX 6 8 1 0
BITMAP
84
CC
B4
84
84
84
84
84
ENDCHAR
STARTCHAR uni01033D
ENCODING 66365
SWIDTH 500 0
DWIDTH 8 0
BBX 6 8 1 0
BITMAP
84
84
C4
A4
94
8C
84
84
ENDCHAR
STARTCHAR uni01033E
ENCODING 66366
SWIDTH 500 0
DWIDTH 8 0
BBX 6 10 1 -2
BITMAP
78
84
84
80
80
84
8C
74
04
08
ENDCHAR
STARTCHAR uni01033F
ENCODING 66367
SWIDTH 500 0
DWIDTH 8 0
BBX 6 8 1 0
BITMAP
F8
44
44
44
44
44
44
44
ENDCHAR
STARTCHAR uni010340
ENCODING 66368
SWIDTH 500 0
DWIDTH 8 0
BBX 6 8 1 0
BITMAP
FC
84
84
84
84
84
84
84
ENDCHAR
STARTCHAR uni010341
ENCODING 66369
SWIDTH 500 0
DWIDTH 8 0
BBX 6 8 1 0
BITMAP
84
84
84
84
7C
04
04
04
ENDCHAR
STARTCHAR uni010342
ENCODING 66370
SWIDTH 500 0
DWIDTH 8 0
BBX 6 9 1 -1
BITMAP
88
88
90
E0
A0
90
88
84
80
ENDCHAR
STARTCHAR uni010343
ENCODING 66371
SWIDTH 500 0
DWIDTH 8 0
BBX 6 8 1 0
BITMAP
78
84
80
60
18
04
84
78
ENDCHAR
STARTCHAR uni010344
ENCODING 66372
SWIDTH 500 0
DWIDTH 8 0
BBX 7 8 1 0
BITMAP
FE
92
10
10
10
10
10
10
ENDCHAR
STARTCHAR uni010345
ENCODING 66373
SWIDTH 500 0
DWIDTH 8 0
BBX 6 10 1 -2
BITMAP
84
84
44
48
28
28
10
10
10
10
ENDCHAR
STARTCHAR uni010346
ENCODING 66374
SWIDTH 500 0
DWIDTH 8 0
BBX 6 10 1 -1
BITMAP
80
FC
84
80
80
FC
84
80
80
80
ENDCHAR
STARTCHAR uni010347
ENCODING 66375
SWIDTH 500 0
DWIDTH 8 0
BBX 6 8 1 0
BITMAP
84
84
48
30
30
48
84
84
ENDCHAR
STARTCHAR uni010348
ENCODING 66376
SWIDTH 500 0
DWIDTH 8 0
BBX 6 8 1 0
BITMAP
78
84
84
B4
B4
84
84
78
ENDCHAR
STARTCHAR uni010349
ENCODING 66377
SWIDTH 500 0
DWIDTH 8 0
BBX 6 8 1 0
BITMAP
78
84
84
84
48
30
48
84
ENDCHAR
STARTCHAR uni01034A
ENCODING 66378
SWIDTH 500 0
DWIDTH 8 0
BBX 7 10 1 -1
BITMAP
10
38
54
92
10
10
10
10
10
10
ENDCHAR
STARTCHAR uni010350
ENCODING 66384
SWIDTH 500 0
DWIDTH 8 0
BBX 7 10 1 0
BITMAP
FC
84
88
08
12
14
38
30
60
40
ENDCHAR
STARTCHAR uni010351
ENCODING 66385
SWIDTH 500 0
DWIDTH 8 0
BBX 7 10 1 0
BITMAP
10
10
10
10
10
7C
92
92
92
6C
ENDCHAR
STARTCHAR uni010352
ENCODING 66386
SWIDTH 500 0
DWIDTH 8 0
BBX 7 10 1 0
BITMAP
7E
92
92
50
10
10
10
10
10
10
ENDCHAR
STARTCHAR uni010353
ENCODING 66387
SWIDTH 500 0
DWIDTH 8 0
BBX 7 10 1 0
BITMAP
08
08
08
10
20
50
88
84
82
42
ENDCHAR
STARTCHAR uni010354
ENCODING 66388
SWIDTH 500 0
DWIDTH 8 0
BBX 6 10 1 0
BITMAP
04
04
04
88
88
90
E0
80
80
80
ENDCHAR
STARTCHAR uni010355
ENCODING 66389
SWIDTH 500 0
DWIDTH 8 0
BBX 8 10 0 0
BITMAP
FE
92
92
92
92
92
92
92
91
91
ENDCHAR
STARTCHAR uni010356
ENCODING 66390
SWIDTH 500 0
DWIDTH 8 0
BBX 8 10 0 0
BITMAP
FE
92
92
92
92
92
92
91
9F
F0
ENDCHAR
STARTCHAR uni010357
ENCODING 66391
SWIDTH 500 0
DWIDTH 8 0
BBX 6 10 1 0
BITMAP
0C
74
44
44
44
84
84
84
B4
CC
ENDCHAR
STARTCHAR uni010358
ENCODING 66392
SWIDTH 500 0
DWIDTH 8 0
BBX 2 9 3 0
BITMAP
80
40
40
40
80
80
80
80
40
ENDCHAR
STARTCHAR uni010359
ENCODING 66393
SWIDTH 500 0
DWIDTH 8 0
BBX 6 10 1 0
BITMAP
FC
84
84
84
08
08
08
08
08
04
ENDCHAR
STARTCHAR uni01035A
ENCODING 66394
SWIDTH 500 0
DWIDTH 8 0
BBX 6 10 1 0
BITMAP
08
14
10
10
20
20
20
FC
84
84
ENDCHAR
STARTCHAR uni01035B
ENCODING 66395
SWIDTH 500 0
DWIDTH 8 0
BBX 6 10 1 0
BITMAP
80
80
44
44
24
28
10
10
08
08
ENDCHAR
STARTCHAR uni01035C
ENCODING 66396
SWIDTH 500 0
DWIDTH 8 0
BBX 8 6 0 0
BITMAP
8E
8A
52
52
22
21
ENDCHAR
STARTCHAR uni01035D
ENCODING 66397
SWIDTH 500 0
DWIDTH 8 0
BBX 7 7 0 0
BITMAP
42
A2
22
14
14
08
08
ENDCHAR
STARTCHAR uni01035E
ENCODING 66398
SWIDTH 500 0
DWIDTH 8 0
BBX 6 10 1 0
BITMAP
80
80
98
E4
84
80
80
80
80
80
ENDCHAR
STARTCHAR uni01035F
ENCODING 66399
SWIDTH 500 0
DWIDTH 8 0
BBX 6 10 1 0
BITMAP
80
80
80
BC
C4
04
08
08
10
10
ENDCHAR
STARTCHAR uni010360
ENCODING 66400
SWIDTH 500 0
DWIDTH 8 0
BBX 7 10 1 0
BITMAP
FE
82
82
84
84
44
48
28
28
10
ENDCHAR
STARTCHAR uni010361
ENCODING 66401
SWIDTH 500 0
DWIDTH 8 0
BBX 6 10 1 0
BITMAP
C0
A0
80
80
80
40
40
24
28
10
ENDCHAR
STARTCHAR uni010362
ENCODING 66402
SWIDTH 500 0
DWIDTH 8 0
BBX 7 10 1 0
BITMAP
7E
82
92
50
10
10
10
10
92
7C
ENDCHAR
STARTCHAR uni010363
ENCODING 66403
SWIDTH 500 0
DWIDTH 8 0
BBX 6 10 1 0
BITMAP
88
94
94
A4
A0
C0
80
80
80
80
ENDCHAR
STARTCHAR uni010364
ENCODING 66404
SWIDTH 500 0
DWIDTH 8 0
BBX 8 11 0 -1
BITMAP
02
01
01
01
01
12
0A
04
18
E0
80
ENDCHAR
STARTCHAR uni010365
ENCODING 66405
SWIDTH 500 0
DWIDTH 8 0
BBX 7 11 0 0
BITMAP
0C
12
12
2C
28
28
44
44
44
82
82
ENDCHAR
STARTCHAR uni010366
ENCODING 66406
SWIDTH 500 0
DWIDTH 8 0
BBX 8 10 0 0
BITMAP
91
91
92
92
92
92
92
92
92
FE
ENDCHAR
STARTCHAR uni010367
ENCODING 66407
SWIDTH 500 0
DWIDTH 8 0
BBX 7 10 0 0
BITMAP
F0
90
90
90
10
10
10
10
10
1E
ENDCHAR
STARTCHAR uni010368
ENCODING 66408
SWIDTH 500 0
DWIDTH 8 0
BBX 8 10 0 0
BITMAP
BE
A2
92
92
92
92
92
92
92
F1
ENDCHAR
STARTCHAR uni010369
ENCODING 66409
SWIDTH 500 0
DWIDTH 8 0
BBX 6 10 2 0
BITMAP
3C
44
48
88
88
88
88
88
88
84
ENDCHAR
STARTCHAR uni01036A
ENCODING 66410
SWIDTH 500 0
DWIDTH 8 0
BBX 7 10 0 0
BITMAP
92
92
92
92
92
92
92
AA
AA
44
ENDCHAR
STARTCHAR uni01036B
ENCODING 66411
SWIDTH 500 0
DWIDTH 8 0
BBX 7 11 0 0
BITMAP
4E
50
20
5C
82
82
92
92
AA
AA
44
ENDCHAR
STARTCHAR uni01036C
ENCODING 66412
SWIDTH 500 0
DWIDTH 8 0
BBX 6 10 0 0
BITMAP
04
04
08
08
10
FC
20
20
40
C0
ENDCHAR
STARTCHAR uni01036D
ENCODING 66413
SWIDTH 500 0
DWIDTH 8 0
BBX 1 10 3 0
BITMAP
80
80
80
80
80
80
80
80
80
80
ENDCHAR
STARTCHAR uni01036E
ENCODING 66414
SWIDTH 500 0
DWIDTH 8 0
BBX 7 10 0 0
BITMAP
FC
44
28
28
10
10
28
28
40
7E
ENDCHAR
STARTCHAR uni01036F
ENCODING 66415
SWIDTH 500 0
DWIDTH 8 0
BBX 7 10 0 0
BITMAP
F0
90
90
90
10
14
12
12
12
1E
ENDCHAR
STARTCHAR uni010370
ENCODING 66416
SWIDTH 500 0
DWIDTH 8 0
BBX 6 10 1 0
BITMAP
80
80
80
80
80
80
80
84
84
FC
ENDCHAR
STARTCHAR uni010371
ENCODING 66417
SWIDTH 500 0
DWIDTH 8 0
BBX 7 10 1 0
BITMAP
7E
92
92
90
10
10
1C
12
12
1C
ENDCHAR
STARTCHAR uni010372
ENCODING 66418
SWIDTH 500 0
DWIDTH 8 0
BBX 8 10 0 0
BITMAP
22
1C
61
91
91
0A
0A
0A
04
04
ENDCHAR
STARTCHAR uni010373
ENCODING 66419
SWIDTH 500 0
DWIDTH 8 0
BBX 8 10 0 0
BITMAP
9B
6D
49
49
4A
48
48
48
4A
4C
ENDCHAR
STARTCHAR uni010374
ENCODING 66420
SWIDTH 500 0
DWIDTH 8 0
BBX 8 10 0 0
BITMAP
4C
B4
A4
A4
24
24
24
24
25
26
ENDCHAR
STARTCHAR uni010375
ENCODING 66421
SWIDTH 500 0
DWIDTH 8 0
BBX 7 10 0 0
BITMAP
82
82
54
6C
44
28
28
28
10
10
ENDCHAR
STARTCHAR uni010376
ENCODING 66422
SWIDTH 0 0
DWIDTH 0 0
BBX 5 4 -6 10
BITMAP
F0
90
38
40
ENDCHAR
STARTCHAR uni010377
ENCODING 66423
SWIDTH 0 0
DWIDTH 0 0
BBX 5 4 -7 10
BITMAP
20
70
88
88
ENDCHAR
STARTCHAR uni010378
ENCODING 66424
SWIDTH 0 0
DWIDTH 0 0
BBX 3 4 -6 10
BITMAP
E0
A0
A0
E0
ENDCHAR
STARTCHAR uni010379
ENCODING 66425
SWIDTH 0 0
DWIDTH 0 0
BBX 7 4 -8 10
BITMAP
C2
24
28
10
ENDCHAR
STARTCHAR uni01037A
ENCODING 66426
SWIDTH 0 0
DWIDTH 0 0
BBX 3 4 -5 10
BITMAP
C0
80
A0
C0
ENDCHAR
STARTCHAR uni010380
ENCODING 66432
SWIDTH 1000 0
DWIDTH 16 0
BBX 14 5 1 4
BITMAP
8800
CC00
FFFC
CC00
8800
ENDCHAR
STARTCHAR uni010381
ENCODING 66433
SWIDTH 1000 0
DWIDTH 16 0
BBX 14 14 1 -1
BITMAP
7DF0
38E0
1040
1040
1040
1040
1040
1040
0000
8800
CC00
FFFC
CC00
8800
ENDCHAR
STARTCHAR uni010382
ENCODING 66434
SWIDTH 1000 0
DWIDTH 16 0
BBX 5 14 5 -1
BITMAP
F8
70
20
20
20
20
20
20
20
20
20
20
20
20
ENDCHAR
STARTCHAR uni010383
ENCODING 66435
SWIDTH 1000 0
DWIDTH 16 0
BBX 5 14 5 -1
BITMAP
F8
70
20
20
F8
70
20
20
F8
70
20
20
20
20
ENDCHAR
STARTCHAR uni010384
ENCODING 66436
SWIDTH 1000 0
DWIDTH 16 0
BBX 15 14 0 -1
BITMAP
FFFE
739C
2108
2108
2108
2108
2108
2108
0000
4440
6660
7FFE
6660
4440
ENDCHAR
STARTCHAR uni010385
ENCODING 66437
SWIDTH 1000 0
DWIDTH 16 0
BBX 14 15 1 -1
BITMAP
8000
C000
FFFC
C000
8000
8000
C000
FFFC
C000
8000
8000
C000
FFFC
C000
8000
ENDCHAR
STARTCHAR uni010386
ENCODING 66438
SWIDTH 1000 0
DWIDTH 16 0
BBX 15 11 1 1
BITMAP
8000
C000
F800
C220
8330
03FE
8330
C220
F800
C000
8000
ENDCHAR
STARTCHAR uni010387
ENCODING 66439
SWIDTH 1000 0
DWIDTH 16 0
BBX 5 14 5 -1
BITMAP
F8
70
20
20
F8
70
20
20
20
20
20
20
20
20
ENDCHAR
STARTCHAR uni010388
ENCODING 66440
SWIDTH 1000 0
DWIDTH 16 0
BBX 14 15 1 -2
BITMAP
0F80
0700
0204
0208
0210
8230
C270
FFF0
C270
8430
0C10
1C08
0C04
0400
0200
ENDCHAR
STARTCHAR uni010389
ENCODING 66441
SWIDTH 1000 0
DWIDTH 16 0
BBX 14 14 1 -1
BITMAP
0F80
0700
0204
0208
0210
8230
C270
FFF0
C270
8230
0210
0208
0204
0200
ENDCHAR
STARTCHAR uni01038A
ENCODING 66442
SWIDTH 1000 0
DWIDTH 16 0
BBX 11 14 2 -1
BITMAP
FBE0
71C0
2080
2080
FBE0
71C0
2080
2080
FBE0
71C0
2080
2080
2080
2080
ENDCHAR
STARTCHAR uni01038B
ENCODING 66443
SWIDTH 1000 0
DWIDTH 16 0
BBX 15 11 1 1
BITMAP
8000
C000
F800
C200
8300
03FE
8300
C200
F800
C000
8000
ENDCHAR
STARTCHAR uni01038C
ENCODING 66444
SWIDTH 1000 0
DWIDTH 16 0
BBX 15 14 1 -1
BITMAP
07C0
0380
0130
051C
091E
1110
3110
7120
F120
7140
3140
1100
0900
0500
ENDCHAR
STARTCHAR uni01038D
ENCODING 66445
SWIDTH 1000 0
DWIDTH 16 0
BBX 15 14 0 -1
BITMAP
FFFE
739C
2108
2108
2108
2108
2108
2108
2108
2108
2108
2108
2108
2108
ENDCHAR
STARTCHAR uni01038E
ENCODING 66446
SWIDTH 1000 0
DWIDTH 16 0
BBX 12 14 2 -1
BITMAP
81F0
C0E0
FFC0
C040
8040
0040
0040
0040
0040
0040
0040
0040
0040
0040
ENDCHAR
STARTCHAR uni01038F
ENCODING 66447
SWIDTH 1000 0
DWIDTH 16 0
BBX 14 11 1 1
BITMAP
0460
0838
103C
3020
7020
F040
7040
3080
1080
0900
0500
ENDCHAR
STARTCHAR uni010390
ENCODING 66448
SWIDTH 1000 0
DWIDTH 16 0
BBX 14 5 1 4
BITMAP
8880
CCC0
FFFC
CCC0
8880
ENDCHAR
STARTCHAR uni010391
ENCODING 66449
SWIDTH 1000 0
DWIDTH 16 0
BBX 14 11 1 1
BITMAP
8004
C008
FF90
C030
8070
00F0
8070
C030
FF90
C008
8004
ENDCHAR
STARTCHAR uni010392
ENCODING 66450
SWIDTH 1000 0
DWIDTH 16 0
BBX 11 11 2 1
BITMAP
FBE0
71C0
2080
2080
2080
0000
1F00
0E00
0400
0400
0400
ENDCHAR
STARTCHAR uni010393
ENCODING 66451
SWIDTH 1000 0
DWIDTH 16 0
BBX 6 11 5 1
BITMAP
04
08
10
30
70
F0
70
30
10
08
04
ENDCHAR
STARTCHAR uni010394
ENCODING 66452
SWIDTH 1000 0
DWIDTH 16 0
BBX 14 11 1 1
BITMAP
8000
C000
FFFC
C000
8000
0000
8000
C000
FFFC
C000
8000
ENDCHAR
STARTCHAR uni010395
ENCODING 66453
SWIDTH 1000 0
DWIDTH 16 0
BBX 11 14 2 -1
BITMAP
FBE0
71C0
2080
2080
2080
2080
2080
2080
2080
2080
2080
2080
2080
2080
ENDCHAR
STARTCHAR uni010396
ENCODING 66454
SWIDTH 1000 0
DWIDTH 16 0
BBX 14 11 1 1
BITMAP
0004
0008
0010
8030
C070
FFF0
C070
8030
0010
0008
0004
ENDCHAR
STARTCHAR uni010397
ENCODING 66455
SWIDTH 1000 0
DWIDTH 16 0
BBX 15 11 1 1
BITMAP
8800
CC00
FF80
CC20
8830
003E
8830
CC20
FF80
CC00
8800
ENDCHAR
STARTCHAR uni010398
ENCODING 66456
SWIDTH 1000 0
DWIDTH 16 0
BBX 6 14 4 -1
BITMAP
7C
38
10
14
18
10
30
70
F0
70
30
10
18
14
ENDCHAR
STARTCHAR uni010399
ENCODING 66457
SWIDTH 1000 0
DWIDTH 16 0
BBX 14 10 1 0
BITMAP
0008
8010
C020
FFFC
C080
8100
1E00
0E00
0600
0200
ENDCHAR
STARTCHAR uni01039A
ENCODING 66458
SWIDTH 1000 0
DWIDTH 16 0
BBX 14 5 1 4
BITMAP
8000
C000
FFFC
C000
8000
ENDCHAR
STARTCHAR uni01039B
ENCODING 66459
SWIDTH 1000 0
DWIDTH 16 0
BBX 14 16 1 -2
BITMAP
8000
C000
FFFC
C000
8000
8000
C000
FFFC
C000
8000
8000
C000
FFFC
DC00
8800
0800
ENDCHAR
STARTCHAR uni01039C
ENCODING 66460
SWIDTH 1000 0
DWIDTH 16 0
BBX 15 15 0 -2
BITMAP
FFFE
739C
2108
2108
2108
2108
2108
2108
2108
0000
4000
6000
7FFE
6000
4000
ENDCHAR
STARTCHAR uni01039D
ENCODING 66461
SWIDTH 1000 0
DWIDTH 16 0
BBX 13 15 1 -1
BITMAP
2008
4F90
C730
4210
2208
2208
4210
C230
4210
2208
2208
4210
C230
4210
2208
ENDCHAR
STARTCHAR uni01039F
ENCODING 66463
SWIDTH 1000 0
DWIDTH 16 0
BBX 5 5 5 3
BITMAP
F8
70
20
20
20
ENDCHAR
STARTCHAR uni0103A0
ENCODING 66464
SWIDTH 1000 0
DWIDTH 16 0
BBX 15 14 1 -1
BITMAP
8000
C000
BFFE
C000
8000
0000
FFFE
5294
2108
2108
2108
2108
2108
2108
ENDCHAR
STARTCHAR uni0103A1
ENCODING 66465
SWIDTH 1000 0
DWIDTH 16 0
BBX 14 14 1 -1
BITMAP
8800
CC00
BBFC
CC00
8800
0000
7DF0
28A0
1040
1040
1040
1040
1040
1040
ENDCHAR
STARTCHAR uni0103A2
ENCODING 66466
SWIDTH 1000 0
DWIDTH 16 0
BBX 16 14 0 -1
BITMAP
0100
0580
097F
1180
3100
5000
93FF
514A
3084
1084
0884
0484
0084
0084
ENDCHAR
STARTCHAR uni0103A3
ENCODING 66467
SWIDTH 1000 0
DWIDTH 16 0
BBX 14 14 1 -1
BITMAP
F800
5000
2400
2600
25FC
2600
2400
2000
2400
2600
25FC
2600
2400
2000
ENDCHAR
STARTCHAR uni0103A4
ENCODING 66468
SWIDTH 1000 0
DWIDTH 16 0
BBX 12 14 2 -1
BITMAP
01F0
04A0
0840
1040
3040
5040
9040
5040
3040
1040
0840
0440
0040
0040
ENDCHAR
STARTCHAR uni0103A5
ENCODING 66469
SWIDTH 1000 0
DWIDTH 16 0
BBX 16 14 0 -1
BITMAP
0FF8
0550
0220
0A20
1220
3228
522C
922B
522C
3228
1220
0A20
0220
0220
ENDCHAR
STARTCHAR uni0103A6
ENCODING 66470
SWIDTH 1000 0
DWIDTH 16 0
BBX 16 13 0 0
BITMAP
0110
0598
0977
1198
3110
5180
917F
5180
3100
1180
097F
0580
0100
ENDCHAR
STARTCHAR uni0103A7
ENCODING 66471
SWIDTH 1000 0
DWIDTH 16 0
BBX 16 14 0 -1
BITMAP
01FF
00AA
0044
1144
2244
6644
AA44
6644
2244
1144
0044
0044
0044
0044
ENDCHAR
STARTCHAR uni0103A8
ENCODING 66472
SWIDTH 1000 0
DWIDTH 16 0
BBX 15 15 1 -1
BITMAP
8000
C000
BFE0
C000
8000
0000
FBE0
5140
2080
20A0
20B0
20AE
20B0
20A0
2080
ENDCHAR
STARTCHAR uni0103A9
ENCODING 66473
SWIDTH 1000 0
DWIDTH 16 0
BBX 14 14 1 -1
BITMAP
0F80
0500
0204
0208
0210
8230
C250
BF90
C250
8230
0210
0208
0204
0200
ENDCHAR
STARTCHAR uni0103AA
ENCODING 66474
SWIDTH 1000 0
DWIDTH 16 0
BBX 15 13 1 0
BITMAP
0040
0060
015E
0260
8640
CA60
B25E
CA60
8640
0260
015E
0060
0040
ENDCHAR
STARTCHAR uni0103AB
ENCODING 66475
SWIDTH 1000 0
DWIDTH 16 0
BBX 15 14 1 -1
BITMAP
0FBE
0514
0208
83F8
C2A8
BA48
C248
8248
C248
BA48
C248
8248
0248
0248
ENDCHAR
STARTCHAR uni0103AC
ENCODING 66476
SWIDTH 1000 0
DWIDTH 16 0
BBX 16 14 0 -1
BITMAP
FFF8
5550
2220
2220
2228
222C
222B
222C
2228
2220
2220
2220
2220
2220
ENDCHAR
STARTCHAR uni0103AD
ENCODING 66477
SWIDTH 1000 0
DWIDTH 16 0
BBX 14 14 1 -1
BITMAP
8000
C000
BFFC
C000
8000
0000
7DF0
28A0
1040
1040
1040
1040
1040
1040
ENDCHAR
STARTCHAR uni0103AE
ENCODING 66478
SWIDTH 1000 0
DWIDTH 16 0
BBX 15 15 1 -1
BITMAP
8000
C3FE
BD54
C088
8088
8088
C088
BE88
C088
8088
8088
C088
BE88
C088
8088
ENDCHAR
STARTCHAR uni0103AF
ENCODING 66479
SWIDTH 1000 0
DWIDTH 16 0
BBX 16 14 0 -1
BITMAP
001F
020A
0B04
12F4
3344
5264
905C
5264
3344
12F4
0B04
0204
0004
0004
ENDCHAR
STARTCHAR uni0103B0
ENCODING 66480
SWIDTH 1000 0
DWIDTH 16 0
BBX 14 14 1 -1
BITMAP
F87C
5028
2090
2110
2310
2510
2910
2510
2310
2110
2090
2010
2010
2010
ENDCHAR
STARTCHAR uni0103B1
ENCODING 66481
SWIDTH 1000 0
DWIDTH 16 0
BBX 14 15 1 -1
BITMAP
8000
C000
BFFC
C800
8C00
0BFC
8C00
C800
BFFC
C000
BFF0
14A0
0840
0840
0840
ENDCHAR
STARTCHAR uni0103B2
ENCODING 66482
SWIDTH 1000 0
DWIDTH 16 0
BBX 14 14 1 -1
BITMAP
007C
8028
C010
BFD0
C010
8010
0010
8010
C010
BFD0
C010
8010
0010
0010
ENDCHAR
STARTCHAR uni0103B3
ENCODING 66483
SWIDTH 1000 0
DWIDTH 16 0
BBX 15 14 0 -1
BITMAP
F800
5042
2084
2108
2318
2528
2948
2528
2318
2108
2084
2042
2000
2000
ENDCHAR
STARTCHAR uni0103B4
ENCODING 66484
SWIDTH 1000 0
DWIDTH 16 0
BBX 15 11 0 1
BITMAP
8002
C004
BFC8
C018
8028
0048
8028
C018
BFC8
C004
8002
ENDCHAR
STARTCHAR uni0103B5
ENCODING 66485
SWIDTH 1000 0
DWIDTH 16 0
BBX 16 11 0 1
BITMAP
0010
0858
1097
3198
5290
9480
5290
3198
1097
0858
0010
ENDCHAR
STARTCHAR uni0103B6
ENCODING 66486
SWIDTH 1000 0
DWIDTH 16 0
BBX 15 14 0 -1
BITMAP
0FBE
0514
0208
0208
83F8
C2A8
BA48
C248
8248
0248
0248
0248
0248
0248
ENDCHAR
STARTCHAR uni0103B7
ENCODING 66487
SWIDTH 1000 0
DWIDTH 16 0
BBX 15 14 0 -1
BITMAP
F800
5020
20B0
212E
2330
2520
2D00
2520
2330
212E
20B0
2020
2000
2000
ENDCHAR
STARTCHAR uni0103B8
ENCODING 66488
SWIDTH 1000 0
DWIDTH 16 0
BBX 16 11 0 1
BITMAP
8010
C020
BE40
D0D0
9958
1657
9958
D0D0
BE40
C020
8010
ENDCHAR
STARTCHAR uni0103B9
ENCODING 66489
SWIDTH 1000 0
DWIDTH 16 0
BBX 15 14 0 -1
BITMAP
F800
5040
2080
2100
2340
2560
295E
2560
2340
2100
2080
2040
2000
2000
ENDCHAR
STARTCHAR uni0103BA
ENCODING 66490
SWIDTH 1000 0
DWIDTH 16 0
BBX 15 14 0 -1
BITMAP
1F00
0A00
0500
0580
057E
85A0
C530
BC2E
C530
85A0
057E
0580
0500
0400
ENDCHAR
STARTCHAR uni0103BB
ENCODING 66491
SWIDTH 1000 0
DWIDTH 16 0
BBX 14 14 1 -1
BITMAP
0F80
0500
0200
8200
C200
BFFC
C200
8200
0000
7DF0
28A0
1040
1040
1040
ENDCHAR
STARTCHAR uni0103BC
ENCODING 66492
SWIDTH 1000 0
DWIDTH 16 0
BBX 14 15 1 -1
BITMAP
8000
C07C
BF28
C010
8010
8010
C010
BFD0
C010
8010
8010
C010
BFD0
C010
8010
ENDCHAR
STARTCHAR uni0103BD
ENCODING 66493
SWIDTH 1000 0
DWIDTH 16 0
BBX 16 11 0 1
BITMAP
0021
0042
0084
818C
C294
BCA4
C294
818C
0084
0042
0021
ENDCHAR
STARTCHAR uni0103BE
ENCODING 66494
SWIDTH 1000 0
DWIDTH 16 0
BBX 13 14 2 -1
BITMAP
00F8
0050
0420
0620
05E0
8620
C420
B820
C420
8620
05E0
0620
0420
0020
ENDCHAR
STARTCHAR uni0103BF
ENCODING 66495
SWIDTH 1000 0
DWIDTH 16 0
BBX 14 14 1 -1
BITMAP
F800
5000
2400
2600
25FC
2640
2460
205C
2460
2640
25FC
2600
2400
2000
ENDCHAR
STARTCHAR uni0103C0
ENCODING 66496
SWIDTH 1000 0
DWIDTH 16 0
BBX 15 14 1 -1
BITMAP
F83E
5014
2008
2008
2888
2CC8
2BB8
2CC8
2888
2008
2008
2008
2008
2008
ENDCHAR
STARTCHAR uni0103C1
ENCODING 66497
SWIDTH 1000 0
DWIDTH 16 0
BBX 14 13 1 0
BITMAP
8000
C000
BFFC
C000
8210
0420
0C60
14A0
2520
14A0
0C60
0420
0210
ENDCHAR
STARTCHAR uni0103C2
ENCODING 66498
SWIDTH 1000 0
DWIDTH 16 0
BBX 14 14 1 -1
BITMAP
8000
C000
BFFC
C000
8000
8000
C000
BFFC
C000
BFF0
14A0
0840
0840
0840
ENDCHAR
STARTCHAR uni0103C3
ENCODING 66499
SWIDTH 1000 0
DWIDTH 16 0
BBX 16 11 0 1
BITMAP
0501
0982
1164
318C
5114
9024
5114
318C
1164
0982
0501
ENDCHAR
STARTCHAR uni0103C8
ENCODING 66504
SWIDTH 1000 0
DWIDTH 16 0
BBX 16 14 0 -1
BITMAP
01F0
88A0
CC41
BB42
CC46
884A
0052
884A
CC46
BB42
CC41
8840
0040
0040
ENDCHAR
STARTCHAR uni0103C9
ENCODING 66505
SWIDTH 1000 0
DWIDTH 16 0
BBX 16 16 0 -2
BITMAP
0880
0CDF
0BBA
0CC4
8884
CCC4
BBBC
CCC4
8884
CCC4
BBBC
CCC4
8884
0CC4
0BBC
0CC0
ENDCHAR
STARTCHAR uni0103CA
ENCODING 66506
SWIDTH 1000 0
DWIDTH 16 0
BBX 16 16 0 -2
BITMAP
1200
1BF8
16D0
1B20
9221
DB22
B6E6
DB2A
9232
DB2A
B6E6
DB22
9221
1B20
16E0
1B00
ENDCHAR
STARTCHAR uni0103CB
ENCODING 66507
SWIDTH 1000 0
DWIDTH 16 0
BBX 16 14 0 -1
BITMAP
01F0
00A0
8040
C141
B242
C646
8A4A
1252
8A4A
C646
B242
C141
8040
0040
ENDCHAR
STARTCHAR uni0103CC
ENCODING 66508
SWIDTH 1000 0
DWIDTH 16 0
BBX 14 15 1 -1
BITMAP
1100
227C
6628
AA10
6610
2210
1110
0010
1110
2210
6610
AA10
6610
2210
1110
ENDCHAR
STARTCHAR uni0103CD
ENCODING 66509
SWIDTH 1000 0
DWIDTH 16 0
BBX 16 15 0 -1
BITMAP
1200
25FF
6CAA
B444
6C44
2444
1244
0044
1244
2444
6C44
B444
6C44
2444
1244
ENDCHAR
STARTCHAR uni0103CE
ENCODING 66510
SWIDTH 1000 0
DWIDTH 16 0
BBX 16 9 0 2
BITMAP
0011
0022
9066
D8AA
B732
D8AA
9066
0022
0011
ENDCHAR
STARTCHAR uni0103CF
ENCODING 66511
SWIDTH 1000 0
DWIDTH 16 0
BBX 15 15 0 -1
BITMAP
4440
6660
5DDE
6660
4440
0000
0842
1084
318C
5294
94A4
5294
318C
1084
0842
ENDCHAR
STARTCHAR uni0103D0
ENCODING 66512
SWIDTH 1000 0
DWIDTH 16 0
BBX 10 10 3 1
BITMAP
1000
3000
5000
F000
0800
0400
0200
0100
0080
0040
ENDCHAR
STARTCHAR uni0103D1
ENCODING 66513
SWIDTH 1000 0
DWIDTH 16 0
BBX 5 14 5 -1
BITMAP
F8
50
20
20
20
20
20
20
20
20
20
20
20
20
ENDCHAR
STARTCHAR uni0103D2
ENCODING 66514
SWIDTH 1000 0
DWIDTH 16 0
BBX 5 14 5 -1
BITMAP
F8
50
20
20
F8
50
20
20
20
20
20
20
20
20
ENDCHAR
STARTCHAR uni0103D3
ENCODING 66515
SWIDTH 1000 0
DWIDTH 16 0
BBX 6 11 5 1
BITMAP
04
08
10
30
50
90
50
30
10
08
04
ENDCHAR
STARTCHAR uni0103D4
ENCODING 66516
SWIDTH 1000 0
DWIDTH 16 0
BBX 4 15 6 -1
BITMAP
10
20
60
A0
60
20
10
00
10
20
60
A0
60
20
10
ENDCHAR
STARTCHAR uni0103D5
ENCODING 66517
SWIDTH 1000 0
DWIDTH 16 0
BBX 11 14 2 -1
BITMAP
8020
C060
BFA0
C060
8020
1F00
0A00
0400
0400
0400
0400
0400
0400
0400
ENDCHAR
STARTCHAR uni010400
ENCODING 66560
SWIDTH 500 0
DWIDTH 8 0
BBX 6 10 1 0
BITMAP
78
84
04
04
7C
84
84
84
84
78
ENDCHAR
STARTCHAR uni010401
ENCODING 66561
SWIDTH 500 0
DWIDTH 8 0
BBX 6 10 1 0
BITMAP
78
84
84
80
78
80
80
84
84
78
ENDCHAR
STARTCHAR uni010402
ENCODING 66562
SWIDTH 500 0
DWIDTH 8 0
BBX 6 10 1 0
BITMAP
70
88
84
84
74
84
84
84
88
70
ENDCHAR
STARTCHAR uni010403
ENCODING 66563
SWIDTH 500 0
DWIDTH 8 0
BBX 7 10 1 0
BITMAP
38
54
54
92
8E
82
82
44
44
38
ENDCHAR
STARTCHAR uni010404
ENCODING 66564
SWIDTH 500 0
DWIDTH 8 0
BBX 7 10 1 0
BITMAP
38
44
44
82
82
82
82
44
44
38
ENDCHAR
STARTCHAR uni010405
ENCODING 66565
SWIDTH 500 0
DWIDTH 8 0
BBX 7 10 1 0
BITMAP
38
54
54
92
92
92
92
54
54
38
ENDCHAR
STARTCHAR uni010406
ENCODING 66566
SWIDTH 500 0
DWIDTH 8 0
BBX 5 10 2 0
BITMAP
20
20
A0
60
30
28
20
20
20
20
ENDCHAR
STARTCHAR uni010407
ENCODING 66567
SWIDTH 500 0
DWIDTH 8 0
BBX 6 10 1 0
BITMAP
04
04
04
04
04
04
04
04
74
8C
ENDCHAR
STARTCHAR uni010408
ENCODING 66568
SWIDTH 500 0
DWIDTH 8 0
BBX 5 10 1 0
BITMAP
08
08
08
08
08
08
88
48
28
18
ENDCHAR
STARTCHAR uni010409
ENCODING 66569
SWIDTH 500 0
DWIDTH 8 0
BBX 7 10 1 0
BITMAP
02
02
02
02
02
02
02
92
5A
36
ENDCHAR
STARTCHAR uni01040A
ENCODING 66570
SWIDTH 500 0
DWIDTH 8 0
BBX 6 10 1 0
BITMAP
C4
B8
80
80
80
80
80
80
80
80
ENDCHAR
STARTCHAR uni01040B
ENCODING 66571
SWIDTH 500 0
DWIDTH 8 0
BBX 4 10 2 0
BITMAP
60
90
90
90
70
10
10
10
10
10
ENDCHAR
STARTCHAR uni01040C
ENCODING 66572
SWIDTH 500 0
DWIDTH 8 0
BBX 6 10 1 0
BITMAP
10
10
10
10
10
10
78
94
94
64
ENDCHAR
STARTCHAR uni01040D
ENCODING 66573
SWIDTH 500 0
DWIDTH 8 0
BBX 6 10 1 0
BITMAP
70
A8
A4
94
6C
84
84
84
88
70
ENDCHAR
STARTCHAR uni01040E
ENCODING 66574
SWIDTH 500 0
DWIDTH 8 0
BBX 7 10 1 0
BITMAP
82
82
82
82
82
82
92
92
92
6C
ENDCHAR
STARTCHAR uni01040F
ENCODING 66575
SWIDTH 500 0
DWIDTH 8 0
BBX 8 10 0 0
BITMAP
42
A2
A4
7F
24
24
28
28
28
10
ENDCHAR
STARTCHAR uni010410
ENCODING 66576
SWIDTH 500 0
DWIDTH 8 0
BBX 6 10 1 0
BITMAP
98
A4
A4
78
20
20
20
20
20
20
ENDCHAR
STARTCHAR uni010411
ENCODING 66577
SWIDTH 500 0
DWIDTH 8 0
BBX 6 10 1 0
BITMAP
FC
04
04
04
04
04
04
04
04
04
ENDCHAR
STARTCHAR uni010412
ENCODING 66578
SWIDTH 500 0
DWIDTH 8 0
BBX 6 10 1 0
BITMAP
74
8C
84
84
74
84
84
84
8C
74
ENDCHAR
STARTCHAR uni010413
ENCODING 66579
SWIDTH 500 0
DWIDTH 8 0
BBX 5 10 2 0
BITMAP
70
88
88
88
08
08
08
08
08
08
ENDCHAR
STARTCHAR uni010414
ENCODING 66580
SWIDTH 500 0
DWIDTH 8 0
BBX 6 10 1 0
BITMAP
34
4C
44
8C
F4
84
84
44
4C
34
ENDCHAR
STARTCHAR uni010415
ENCODING 66581
SWIDTH 500 0
DWIDTH 8 0
BBX 6 10 1 0
BITMAP
38
44
84
80
80
80
80
84
44
38
ENDCHAR
STARTCHAR uni010416
ENCODING 66582
SWIDTH 500 0
DWIDTH 8 0
BBX 4 10 2 0
BITMAP
60
90
80
80
70
20
40
40
80
80
ENDCHAR
STARTCHAR uni010417
ENCODING 66583
SWIDTH 500 0
DWIDTH 8 0
BBX 7 10 1 0
BITMAP
38
44
82
82
82
82
92
92
92
6C
ENDCHAR
STARTCHAR uni010418
ENCODING 66584
SWIDTH 500 0
DWIDTH 8 0
BBX 7 10 1 0
BITMAP
38
54
92
8E
82
82
92
92
92
6C
ENDCHAR
STARTCHAR uni010419
ENCODING 66585
SWIDTH 500 0
DWIDTH 8 0
BBX 5 10 2 0
BITMAP
30
48
88
88
F0
80
80
80
80
80
ENDCHAR
STARTCHAR uni01041A
ENCODING 66586
SWIDTH 500 0
DWIDTH 8 0
BBX 6 10 1 0
BITMAP
38
44
84
84
B8
84
84
84
44
38
ENDCHAR
STARTCHAR uni01041B
ENCODING 66587
SWIDTH 500 0
DWIDTH 8 0
BBX 6 10 1 0
BITMAP
80
80
80
80
80
80
80
80
80
FC
ENDCHAR
STARTCHAR uni01041C
ENCODING 66588
SWIDTH 500 0
DWIDTH 8 0
BBX 7 10 1 0
BITMAP
82
82
44
44
28
10
28
44
44
38
ENDCHAR
STARTCHAR uni01041D
ENCODING 66589
SWIDTH 500 0
DWIDTH 8 0
BBX 7 10 1 0
BITMAP
18
24
24
A8
70
1C
2A
48
48
30
ENDCHAR
STARTCHAR uni01041E
ENCODING 66590
SWIDTH 500 0
DWIDTH 8 0
BBX 5 10 2 0
BITMAP
30
48
80
80
E0
90
88
88
88
70
ENDCHAR
STARTCHAR uni01041F
ENCODING 66591
SWIDTH 500 0
DWIDTH 8 0
BBX 7 10 1 0
BITMAP
B8
C4
82
82
82
82
82
82
C4
B8
ENDCHAR
STARTCHAR uni010420
ENCODING 66592
SWIDTH 500 0
DWIDTH 8 0
BBX 6 10 1 0
BITMAP
78
84
84
80
60
18
04
84
84
78
ENDCHAR
STARTCHAR uni010421
ENCODING 66593
SWIDTH 500 0
DWIDTH 8 0
BBX 7 10 1 0
BITMAP
10
10
54
B2
92
7C
10
10
10
10
ENDCHAR
STARTCHAR uni010422
ENCODING 66594
SWIDTH 500 0
DWIDTH 8 0
BBX 5 10 2 0
BITMAP
80
80
80
80
80
80
80
88
88
70
ENDCHAR
STARTCHAR uni010423
ENCODING 66595
SWIDTH 500 0
DWIDTH 8 0
BBX 6 10 1 0
BITMAP
70
88
84
04
04
04
04
84
88
70
ENDCHAR
STARTCHAR uni010424
ENCODING 66596
SWIDTH 500 0
DWIDTH 8 0
BBX 4 10 2 0
BITMAP
80
80
80
80
B0
D0
10
10
10
10
ENDCHAR
STARTCHAR uni010425
ENCODING 66597
SWIDTH 500 0
DWIDTH 8 0
BBX 6 10 1 0
BITMAP
84
8C
8C
94
94
A4
A4
C4
C4
84
ENDCHAR
STARTCHAR uni010426
ENCODING 66598
SWIDTH 500 0
DWIDTH 8 0
BBX 8 10 0 0
BITMAP
02
02
12
0A
06
03
02
92
5A
36
ENDCHAR
STARTCHAR uni010427
ENCODING 66599
SWIDTH 500 0
DWIDTH 8 0
BBX 7 10 1 0
BITMAP
38
54
54
92
B2
9A
92
54
54
38
ENDCHAR
STARTCHAR uni010428
ENCODING 66600
SWIDTH 500 0
DWIDTH 8 0
BBX 6 7 1 0
BITMAP
78
84
04
7C
84
84
78
ENDCHAR
STARTCHAR uni010429
ENCODING 66601
SWIDTH 500 0
DWIDTH 8 0
BBX 6 7 1 0
BITMAP
78
84
80
70
80
84
78
ENDCHAR
STARTCHAR uni01042A
ENCODING 66602
SWIDTH 500 0
DWIDTH 8 0
BBX 6 7 1 0
BITMAP
78
84
84
74
84
84
78
ENDCHAR
STARTCHAR uni01042B
ENCODING 66603
SWIDTH 500 0
DWIDTH 8 0
BBX 7 7 1 0
BITMAP
38
54
92
8E
82
44
38
ENDCHAR
STARTCHAR uni01042C
ENCODING 66604
SWIDTH 500 0
DWIDTH 8 0
BBX 7 7 1 0
BITMAP
38
44
82
82
82
44
38
ENDCHAR
STARTCHAR uni01042D
ENCODING 66605
SWIDTH 500 0
DWIDTH 8 0
BBX 7 7 1 0
BITMAP
38
54
92
92
92
54
38
ENDCHAR
STARTCHAR uni01042E
ENCODING 66606
SWIDTH 500 0
DWIDTH 8 0
BBX 5 7 2 0
BITMAP
20
A0
60
30
28
20
20
ENDCHAR
STARTCHAR uni01042F
ENCODING 66607
SWIDTH 500 0
DWIDTH 8 0
BBX 6 7 1 0
BITMAP
04
04
04
04
04
74
8C
ENDCHAR
STARTCHAR uni010430
ENCODING 66608
SWIDTH 500 0
DWIDTH 8 0
BBX 4 7 2 0
BITMAP
10
10
10
10
90
50
30
ENDCHAR
STARTCHAR uni010431
ENCODING 66609
SWIDTH 500 0
DWIDTH 8 0
BBX 7 7 1 0
BITMAP
02
02
02
02
92
5A
36
ENDCHAR
STARTCHAR uni010432
ENCODING 66610
SWIDTH 500 0
DWIDTH 8 0
BBX 6 7 1 0
BITMAP
C4
B8
80
80
80
80
80
ENDCHAR
STARTCHAR uni010433
ENCODING 66611
SWIDTH 500 0
DWIDTH 8 0
BBX 4 7 2 0
BITMAP
60
90
90
70
10
10
10
ENDCHAR
STARTCHAR uni010434
ENCODING 66612
SWIDTH 500 0
DWIDTH 8 0
BBX 6 7 1 0
BITMAP
10
10
10
10
78
94
64
ENDCHAR
STARTCHAR uni010435
ENCODING 66613
SWIDTH 500 0
DWIDTH 8 0
BBX 6 7 1 0
BITMAP
78
94
94
6C
84
84
78
ENDCHAR
STARTCHAR uni010436
ENCODING 66614
SWIDTH 500 0
DWIDTH 8 0
BBX 7 7 1 0
BITMAP
82
82
82
82
92
92
6C
ENDCHAR
STARTCHAR uni010437
ENCODING 66615
SWIDTH 500 0
DWIDTH 8 0
BBX 8 7 0 0
BITMAP
42
A2
A4
7F
24
28
10
ENDCHAR
STARTCHAR uni010438
ENCODING 66616
SWIDTH 500 0
DWIDTH 8 0
BBX 6 7 1 0
BITMAP
98
A4
78
20
20
20
20
ENDCHAR
STARTCHAR uni010439
ENCODING 66617
SWIDTH 500 0
DWIDTH 8 0
BBX 5 7 2 0
BITMAP
F8
08
08
08
08
08
08
ENDCHAR
STARTCHAR uni01043A
ENCODING 66618
SWIDTH 500 0
DWIDTH 8 0
BBX 6 7 1 0
BITMAP
74
8C
84
7C
84
8C
74
ENDCHAR
STARTCHAR uni01043B
ENCODING 66619
SWIDTH 500 0
DWIDTH 8 0
BBX 5 7 2 0
BITMAP
70
88
88
08
08
08
08
ENDCHAR
STARTCHAR uni01043C
ENCODING 66620
SWIDTH 500 0
DWIDTH 8 0
BBX 6 7 1 0
BITMAP
34
4C
8C
F4
84
4C
34
ENDCHAR
STARTCHAR uni01043D
ENCODING 66621
SWIDTH 500 0
DWIDTH 8 0
BBX 6 7 1 0
BITMAP
38
44
80
80
80
44
38
ENDCHAR
STARTCHAR uni01043E
ENCODING 66622
SWIDTH 500 0
DWIDTH 8 0
BBX 4 7 2 0
BITMAP
60
90
80
70
20
40
80
ENDCHAR
STARTCHAR uni01043F
ENCODING 66623
SWIDTH 500 0
DWIDTH 8 0
BBX 7 7 1 0
BITMAP
38
44
82
82
92
92
6C
ENDCHAR
STARTCHAR uni010440
ENCODING 66624
SWIDTH 500 0
DWIDTH 8 0
BBX 7 7 1 0
BITMAP
38
54
92
8E
82
92
6C
ENDCHAR
STARTCHAR uni010441
ENCODING 66625
SWIDTH 500 0
DWIDTH 8 0
BBX 5 7 2 0
BITMAP
70
88
88
F0
80
80
80
ENDCHAR
STARTCHAR uni010442
ENCODING 66626
SWIDTH 500 0
DWIDTH 8 0
BBX 6 7 1 0
BITMAP
78
84
84
B8
84
84
78
ENDCHAR
STARTCHAR uni010443
ENCODING 66627
SWIDTH 500 0
DWIDTH 8 0
BBX 5 7 2 0
BITMAP
80
80
80
80
80
80
F8
ENDCHAR
STARTCHAR uni010444
ENCODING 66628
SWIDTH 500 0
DWIDTH 8 0
BBX 7 7 1 0
BITMAP
82
44
28
10
28
28
10
ENDCHAR
STARTCHAR uni010445
ENCODING 66629
SWIDTH 500 0
DWIDTH 8 0
BBX 8 7 0 0
BITMAP
18
24
A8
7E
15
24
18
ENDCHAR
STARTCHAR uni010446
ENCODING 66630
SWIDTH 500 0
DWIDTH 8 0
BBX 4 7 2 0
BITMAP
60
90
80
E0
90
90
60
ENDCHAR
STARTCHAR uni010447
ENCODING 66631
SWIDTH 500 0
DWIDTH 8 0
BBX 6 7 1 0
BITMAP
B8
C4
84
84
84
C4
B8
ENDCHAR
STARTCHAR uni010448
ENCODING 66632
SWIDTH 500 0
DWIDTH 8 0
BBX 6 7 1 0
BITMAP
78
84
80
78
04
84
78
ENDCHAR
STARTCHAR uni010449
ENCODING 66633
SWIDTH 500 0
DWIDTH 8 0
BBX 7 7 1 0
BITMAP
10
D4
B2
7C
10
10
10
ENDCHAR
STARTCHAR uni01044A
ENCODING 66634
SWIDTH 500 0
DWIDTH 8 0
BBX 5 7 2 0
BITMAP
80
80
80
80
88
88
70
ENDCHAR
STARTCHAR uni01044B
ENCODING 66635
SWIDTH 500 0
DWIDTH 8 0
BBX 6 7 1 0
BITMAP
70
88
04
04
04
88
70
ENDCHAR
STARTCHAR uni01044C
ENCODING 66636
SWIDTH 500 0
DWIDTH 8 0
BBX 4 7 2 0
BITMAP
80
80
80
B0
D0
10
10
ENDCHAR
STARTCHAR uni01044D
ENCODING 66637
SWIDTH 500 0
DWIDTH 8 0
BBX 6 7 1 0
BITMAP
84
8C
94
A4
C4
84
84
ENDCHAR
STARTCHAR uni01044E
ENCODING 66638
SWIDTH 500 0
DWIDTH 8 0
BBX 8 7 0 0
BITMAP
02
0A
06
03
92
5A
36
ENDCHAR
STARTCHAR uni01044F
ENCODING 66639
SWIDTH 500 0
DWIDTH 8 0
BBX 7 7 1 0
BITMAP
38
54
92
BA
92
54
38
ENDCHAR
STARTCHAR uni010450
ENCODING 66640
SWIDTH 500 0
DWIDTH 8 0
BBX 5 10 1 0
BITMAP
E0
10
08
08
08
08
08
08
08
08
ENDCHAR
STARTCHAR uni010451
ENCODING 66641
SWIDTH 500 0
DWIDTH 8 0
BBX 4 9 2 0
BITMAP
10
30
50
90
10
10
10
10
10
ENDCHAR
STARTCHAR uni010452
ENCODING 66642
SWIDTH 500 0
DWIDTH 8 0
BBX 5 10 2 0
BITMAP
08
08
08
68
98
88
80
80
40
38
ENDCHAR
STARTCHAR uni010453
ENCODING 66643
SWIDTH 500 0
DWIDTH 8 0
BBX 5 10 1 0
BITMAP
08
08
08
08
08
08
08
08
10
E0
ENDCHAR
STARTCHAR uni010454
ENCODING 66644
SWIDTH 500 0
DWIDTH 8 0
BBX 6 10 1 0
BITMAP
80
40
20
10
48
84
84
84
48
30
ENDCHAR
STARTCHAR uni010455
ENCODING 66645
SWIDTH 500 0
DWIDTH 8 0
BBX 5 10 1 0
BITMAP
70
80
80
40
20
10
08
08
08
F0
ENDCHAR
STARTCHAR uni010456
ENCODING 66646
SWIDTH 500 0
DWIDTH 8 0
BBX 6 10 1 0
BITMAP
04
08
10
20
40
80
80
80
40
3C
ENDCHAR
STARTCHAR uni010457
ENCODING 66647
SWIDTH 500 0
DWIDTH 8 0
BBX 6 10 1 0
BITMAP
04
78
10
20
40
80
80
80
40
3C
ENDCHAR
STARTCHAR uni010458
ENCODING 66648
SWIDTH 500 0
DWIDTH 8 0
BBX 5 10 1 0
BITMAP
80
80
40
40
20
20
10
10
08
08
ENDCHAR
STARTCHAR uni010459
ENCODING 66649
SWIDTH 500 0
DWIDTH 8 0
BBX 5 10 1 0
BITMAP
70
88
88
88
88
88
50
20
50
88
ENDCHAR
STARTCHAR uni01045A
ENCODING 66650
SWIDTH 500 0
DWIDTH 8 0
BBX 5 10 1 -2
BITMAP
80
80
80
80
80
80
80
80
40
38
ENDCHAR
STARTCHAR uni01045B
ENCODING 66651
SWIDTH 500 0
DWIDTH 8 0
BBX 4 9 2 -1
BITMAP
80
80
80
80
80
90
A0
C0
80
ENDCHAR
STARTCHAR uni01045C
ENCODING 66652
SWIDTH 500 0
DWIDTH 8 0
BBX 5 10 1 -2
BITMAP
E0
10
08
08
88
C8
B0
80
80
80
ENDCHAR
STARTCHAR uni01045D
ENCODING 66653
SWIDTH 500 0
DWIDTH 8 0
BBX 5 10 1 -2
BITMAP
38
40
80
80
80
80
80
80
80
80
ENDCHAR
STARTCHAR uni01045E
ENCODING 66654
SWIDTH 500 0
DWIDTH 8 0
BBX 6 10 1 -2
BITMAP
30
48
84
84
84
88
40
20
10
08
ENDCHAR
STARTCHAR uni01045F
ENCODING 66655
SWIDTH 500 0
DWIDTH 8 0
BBX 5 10 1 -2
BITMAP
F0
08
08
08
10
20
40
80
80
70
ENDCHAR
STARTCHAR uni010460
ENCODING 66656
SWIDTH 500 0
DWIDTH 8 0
BBX 6 10 1 -2
BITMAP
F0
08
04
04
04
08
10
20
40
80
ENDCHAR
STARTCHAR uni010461
ENCODING 66657
SWIDTH 500 0
DWIDTH 8 0
BBX 6 10 1 -2
BITMAP
F0
08
04
04
04
08
10
20
78
80
ENDCHAR
STARTCHAR uni010462
ENCODING 66658
SWIDTH 500 0
DWIDTH 8 0
BBX 5 10 1 -2
BITMAP
08
08
10
10
20
20
40
40
80
80
ENDCHAR
STARTCHAR uni010463
ENCODING 66659
SWIDTH 500 0
DWIDTH 8 0
BBX 5 10 1 -2
BITMAP
88
50
20
50
88
88
88
88
88
70
ENDCHAR
STARTCHAR uni010464
ENCODING 66660
SWIDTH 500 0
DWIDTH 8 0
BBX 5 7 1 0
BITMAP
38
40
80
80
80
40
38
ENDCHAR
STARTCHAR uni010465
ENCODING 66661
SWIDTH 500 0
DWIDTH 8 0
BBX 7 7 1 0
BITMAP
06
08
10
10
10
20
C0
ENDCHAR
STARTCHAR uni010466
ENCODING 66662
SWIDTH 500 0
DWIDTH 8 0
BBX 1 7 4 0
BITMAP
80
80
80
80
80
80
80
ENDCHAR
STARTCHAR uni010467
ENCODING 66663
SWIDTH 500 0
DWIDTH 8 0
BBX 5 7 1 0
BITMAP
80
80
80
80
80
40
38
ENDCHAR
STARTCHAR uni010468
ENCODING 66664
SWIDTH 500 0
DWIDTH 8 0
BBX 5 7 1 0
BITMAP
08
08
08
08
08
10
E0
ENDCHAR
STARTCHAR uni010469
ENCODING 66665
SWIDTH 500 0
DWIDTH 8 0
BBX 5 7 1 0
BITMAP
38
40
80
80
80
80
80
ENDCHAR
STARTCHAR uni01046A
ENCODING 66666
SWIDTH 500 0
DWIDTH 8 0
BBX 5 7 1 0
BITMAP
E0
10
08
08
08
08
08
ENDCHAR
STARTCHAR uni01046B
ENCODING 66667
SWIDTH 500 0
DWIDTH 8 0
BBX 7 7 1 0
BITMAP
82
82
44
44
28
28
10
ENDCHAR
STARTCHAR uni01046C
ENCODING 66668
SWIDTH 500 0
DWIDTH 8 0
BBX 5 7 2 0
BITMAP
10
20
40
C0
20
20
18
ENDCHAR
STARTCHAR uni01046D
ENCODING 66669
SWIDTH 500 0
DWIDTH 8 0
BBX 6 7 1 0
BITMAP
1C
20
40
38
08
10
E0
ENDCHAR
STARTCHAR uni01046E
ENCODING 66670
SWIDTH 500 0
DWIDTH 8 0
BBX 5 7 2 0
BITMAP
E0
10
08
08
08
10
E0
ENDCHAR
STARTCHAR uni01046F
ENCODING 66671
SWIDTH 500 0
DWIDTH 8 0
BBX 7 7 1 0
BITMAP
C0
20
10
10
10
08
06
ENDCHAR
STARTCHAR uni010470
ENCODING 66672
SWIDTH 500 0
DWIDTH 8 0
BBX 4 7 2 0
BITMAP
80
80
B0
D0
10
10
10
ENDCHAR
STARTCHAR uni010471
ENCODING 66673
SWIDTH 500 0
DWIDTH 8 0
BBX 6 7 1 0
BITMAP
FC
80
80
80
80
40
38
ENDCHAR
STARTCHAR uni010472
ENCODING 66674
SWIDTH 500 0
DWIDTH 8 0
BBX 6 7 1 0
BITMAP
FC
04
04
04
04
08
70
ENDCHAR
STARTCHAR uni010473
ENCODING 66675
SWIDTH 500 0
DWIDTH 8 0
BBX 5 7 1 0
BITMAP
F8
08
10
20
20
20
20
ENDCHAR
STARTCHAR uni010474
ENCODING 66676
SWIDTH 500 0
DWIDTH 8 0
BBX 5 7 1 0
BITMAP
70
88
88
88
88
88
70
ENDCHAR
STARTCHAR uni010475
ENCODING 66677
SWIDTH 500 0
DWIDTH 8 0
BBX 7 7 1 0
BITMAP
10
28
28
44
44
82
82
ENDCHAR
STARTCHAR uni010476
ENCODING 66678
SWIDTH 500 0
DWIDTH 8 0
BBX 5 7 1 0
BITMAP
C0
20
20
18
10
20
40
ENDCHAR
STARTCHAR uni010477
ENCODING 66679
SWIDTH 500 0
DWIDTH 8 0
BBX 6 7 1 0
BITMAP
E0
10
08
70
40
20
1C
ENDCHAR
STARTCHAR uni010478
ENCODING 66680
SWIDTH 500 0
DWIDTH 8 0
BBX 7 7 1 0
BITMAP
78
84
82
62
22
42
8C
ENDCHAR
STARTCHAR uni010479
ENCODING 66681
SWIDTH 500 0
DWIDTH 8 0
BBX 7 7 1 0
BITMAP
CC
22
22
C2
82
44
38
ENDCHAR
STARTCHAR uni01047A
ENCODING 66682
SWIDTH 500 0
DWIDTH 8 0
BBX 7 7 1 0
BITMAP
38
44
42
32
42
82
8C
ENDCHAR
STARTCHAR uni01047B
ENCODING 66683
SWIDTH 500 0
DWIDTH 8 0
BBX 7 7 1 0
BITMAP
8C
82
42
32
42
44
38
ENDCHAR
STARTCHAR uni01047C
ENCODING 66684
SWIDTH 500 0
DWIDTH 8 0
BBX 6 7 1 0
BITMAP
38
44
84
84
84
84
98
ENDCHAR
STARTCHAR uni01047D
ENCODING 66685
SWIDTH 500 0
DWIDTH 8 0
BBX 6 7 1 0
BITMAP
B8
C4
84
84
84
84
98
ENDCHAR
STARTCHAR uni01047E
ENCODING 66686
SWIDTH 500 0
DWIDTH 8 0
BBX 6 7 1 0
BITMAP
9C
A0
C0
80
80
80
80
ENDCHAR
STARTCHAR uni01047F
ENCODING 66687
SWIDTH 500 0
DWIDTH 8 0
BBX 7 10 1 0
BITMAP
80
80
80
88
54
54
54
52
22
22
ENDCHAR
STARTCHAR uni010480
ENCODING 66688
SWIDTH 500 0
DWIDTH 8 0
BBX 7 10 1 0
BITMAP
44
28
10
28
44
82
82
82
44
38
ENDCHAR
STARTCHAR uni010481
ENCODING 66689
SWIDTH 500 0
DWIDTH 8 0
BBX 6 10 1 0
BITMAP
A8
A8
A8
A8
58
08
10
7C
90
60
ENDCHAR
STARTCHAR uni010482
ENCODING 66690
SWIDTH 500 0
DWIDTH 8 0
BBX 7 10 1 0
BITMAP
10
50
B0
B0
50
10
22
22
22
1C
ENDCHAR
STARTCHAR uni010483
ENCODING 66691
SWIDTH 500 0
DWIDTH 8 0
BBX 3 10 2 0
BITMAP
20
20
20
40
40
40
40
80
80
80
ENDCHAR
STARTCHAR uni010484
ENCODING 66692
SWIDTH 1000 0
DWIDTH 16 0
BBX 12 10 1 0
BITMAP
2080
3180
2E80
2080
4100
4100
4110
8210
8220
81C0
ENDCHAR
STARTCHAR uni010485
ENCODING 66693
SWIDTH 500 0
DWIDTH 8 0
BBX 7 10 1 0
BITMAP
70
88
80
80
E0
90
92
92
92
8C
ENDCHAR
STARTCHAR uni010486
ENCODING 66694
SWIDTH 500 0
DWIDTH 8 0
BBX 7 10 1 0
BITMAP
38
44
44
82
82
82
82
44
44
38
ENDCHAR
STARTCHAR uni010487
ENCODING 66695
SWIDTH 500 0
DWIDTH 8 0
BBX 7 10 1 0
BITMAP
62
9E
02
04
04
04
08
08
08
08
ENDCHAR
STARTCHAR uni010488
ENCODING 66696
SWIDTH 500 0
DWIDTH 8 0
BBX 6 10 1 0
BITMAP
70
88
08
10
20
78
84
84
84
78
ENDCHAR
STARTCHAR uni010489
ENCODING 66697
SWIDTH 500 0
DWIDTH 8 0
BBX 6 10 1 0
BITMAP
78
84
84
84
78
10
20
40
44
38
ENDCHAR
STARTCHAR uni01048A
ENCODING 66698
SWIDTH 500 0
DWIDTH 8 0
BBX 7 10 1 0
BITMAP
F0
10
10
20
20
20
46
44
44
38
ENDCHAR
STARTCHAR uni01048B
ENCODING 66699
SWIDTH 500 0
DWIDTH 8 0
BBX 6 10 1 0
BITMAP
48
48
48
48
38
08
10
7C
90
60
ENDCHAR
STARTCHAR uni01048C
ENCODING 66700
SWIDTH 500 0
DWIDTH 8 0
BBX 7 10 1 0
BITMAP
60
90
90
90
60
90
92
92
92
8C
ENDCHAR
STARTCHAR uni01048D
ENCODING 66701
SWIDTH 500 0
DWIDTH 8 0
BBX 6 10 1 0
BITMAP
90
90
90
90
70
10
20
24
24
18
ENDCHAR
STARTCHAR uni01048E
ENCODING 66702
SWIDTH 1000 0
DWIDTH 16 0
BBX 14 10 1 0
BITMAP
7030
8848
8848
08F0
0B40
3C40
4840
4844
4844
3038
ENDCHAR
STARTCHAR uni01048F
ENCODING 66703
SWIDTH 500 0
DWIDTH 8 0
BBX 6 10 1 0
BITMAP
24
24
24
1C
04
04
08
68
98
88
ENDCHAR
STARTCHAR uni010490
ENCODING 66704
SWIDTH 1000 0
DWIDTH 16 0
BBX 10 10 3 0
BITMAP
1C00
2200
2200
2200
4400
4440
4440
8880
8880
8700
ENDCHAR
STARTCHAR uni010491
ENCODING 66705
SWIDTH 500 0
DWIDTH 8 0
BBX 5 10 2 0
BITMAP
40
40
40
70
48
08
08
08
88
70
ENDCHAR
STARTCHAR uni010492
ENCODING 66706
SWIDTH 500 0
DWIDTH 8 0
BBX 5 10 2 0
BITMAP
70
88
08
08
30
40
80
80
88
70
ENDCHAR
STARTCHAR uni010493
ENCODING 66707
SWIDTH 1000 0
DWIDTH 16 0
BBX 13 11 1 0
BITMAP
8800
8800
9800
6B00
0C80
1088
1088
1110
2110
2110
20E0
ENDCHAR
STARTCHAR uni010494
ENCODING 66708
SWIDTH 500 0
DWIDTH 8 0
BBX 6 10 2 0
BITMAP
88
88
44
44
38
40
80
80
84
78
ENDCHAR
STARTCHAR uni010495
ENCODING 66709
SWIDTH 500 0
DWIDTH 8 0
BBX 6 10 2 0
BITMAP
20
50
50
20
50
48
80
80
84
78
ENDCHAR
STARTCHAR uni010496
ENCODING 66710
SWIDTH 500 0
DWIDTH 8 0
BBX 5 10 2 0
BITMAP
70
88
80
80
60
10
08
08
88
70
ENDCHAR
STARTCHAR uni010497
ENCODING 66711
SWIDTH 500 0
DWIDTH 8 0
BBX 5 10 2 0
BITMAP
80
80
80
80
80
80
88
88
88
70
ENDCHAR
STARTCHAR uni010498
ENCODING 66712
SWIDTH 500 0
DWIDTH 8 0
BBX 6 10 1 0
BITMAP
78
84
84
84
84
7C
04
04
08
30
ENDCHAR
STARTCHAR uni010499
ENCODING 66713
SWIDTH 500 0
DWIDTH 8 0
BBX 8 10 0 0
BITMAP
60
90
10
20
30
28
49
49
49
46
ENDCHAR
STARTCHAR uni01049A
ENCODING 66714
SWIDTH 500 0
DWIDTH 8 0
BBX 7 10 1 0
BITMAP
1C
22
02
02
04
04
04
74
88
88
ENDCHAR
STARTCHAR uni01049B
ENCODING 66715
SWIDTH 500 0
DWIDTH 8 0
BBX 5 10 2 0
BITMAP
70
88
80
80
80
90
70
10
10
10
ENDCHAR
STARTCHAR uni01049C
ENCODING 66716
SWIDTH 500 0
DWIDTH 8 0
BBX 8 10 0 0
BITMAP
22
22
22
44
44
44
88
89
89
76
ENDCHAR
STARTCHAR uni01049D
ENCODING 66717
SWIDTH 1000 0
DWIDTH 16 0
BBX 14 10 1 0
BITMAP
6000
9000
9000
1DC0
2220
2220
2224
4444
4448
4430
ENDCHAR
STARTCHAR uni0104A0
ENCODING 66720
SWIDTH 500 0
DWIDTH 8 0
BBX 7 10 1 0
BITMAP
38
44
44
82
82
82
82
44
44
38
ENDCHAR
STARTCHAR uni0104A1
ENCODING 66721
SWIDTH 500 0
DWIDTH 8 0
BBX 5 10 3 0
BITMAP
38
40
40
40
20
20
10
10
10
E0
ENDCHAR
STARTCHAR uni0104A2
ENCODING 66722
SWIDTH 500 0
DWIDTH 8 0
BBX 7 10 1 0
BITMAP
38
44
80
80
60
80
82
82
44
38
ENDCHAR
STARTCHAR uni0104A3
ENCODING 66723
SWIDTH 500 0
DWIDTH 8 0
BBX 7 10 1 0
BITMAP
FC
20
40
40
60
90
90
92
92
8C
ENDCHAR
STARTCHAR uni0104A4
ENCODING 66724
SWIDTH 500 0
DWIDTH 8 0
BBX 7 10 1 0
BITMAP
44
28
10
28
44
82
82
82
44
38
ENDCHAR
STARTCHAR uni0104A5
ENCODING 66725
SWIDTH 500 0
DWIDTH 8 0
BBX 7 10 1 0
BITMAP
18
24
24
38
40
80
82
82
44
38
ENDCHAR
STARTCHAR uni0104A6
ENCODING 66726
SWIDTH 500 0
DWIDTH 8 0
BBX 5 10 2 0
BITMAP
88
88
88
70
10
10
20
20
20
C0
ENDCHAR
STARTCHAR uni0104A7
ENCODING 66727
SWIDTH 500 0
DWIDTH 8 0
BBX 7 10 1 0
BITMAP
38
44
02
02
02
04
04
04
88
70
ENDCHAR
STARTCHAR uni0104A8
ENCODING 66728
SWIDTH 500 0
DWIDTH 8 0
BBX 7 10 1 0
BITMAP
1C
22
40
40
40
80
80
80
44
38
ENDCHAR
STARTCHAR uni0104A9
ENCODING 66729
SWIDTH 500 0
DWIDTH 8 0
BBX 7 10 1 0
BITMAP
22
22
22
44
44
44
88
88
88
70
ENDCHAR
STARTCHAR uni0104B0
ENCODING 66736
SWIDTH 500 0
DWIDTH 8 0
BBX 7 10 0 0
BITMAP
10
10
28
28
44
44
44
82
82
82
ENDCHAR
STARTCHAR uni0104B1
ENCODING 66737
SWIDTH 500 0
DWIDTH 8 0
BBX 7 10 0 0
BITMAP
10
10
28
28
44
44
54
92
92
92
ENDCHAR
STARTCHAR uni0104B2
ENCODING 66738
SWIDTH 500 0
DWIDTH 8 0
BBX 7 10 0 0
BITMAP
10
10
28
28
44
44
54
BA
92
82
ENDCHAR
STARTCHAR uni0104B3
ENCODING 66739
SWIDTH 500 0
DWIDTH 8 0
BBX 7 10 0 0
BITMAP
10
10
10
10
10
28
44
44
82
82
ENDCHAR
STARTCHAR uni0104B4
ENCODING 66740
SWIDTH 500 0
DWIDTH 8 0
BBX 7 12 1 -2
BITMAP
80
80
B8
C4
84
84
84
F8
90
88
04
02
ENDCHAR
STARTCHAR uni0104B5
ENCODING 66741
SWIDTH 500 0
DWIDTH 8 0
BBX 6 10 1 0
BITMAP
38
44
80
80
88
94
94
A4
A4
64
ENDCHAR
STARTCHAR uni0104B6
ENCODING 66742
SWIDTH 500 0
DWIDTH 8 0
BBX 7 10 1 0
BITMAP
38
44
80
80
88
94
94
A4
AE
64
ENDCHAR
STARTCHAR uni0104B7
ENCODING 66743
SWIDTH 500 0
DWIDTH 8 0
BBX 6 10 1 0
BITMAP
74
8C
88
88
88
88
88
88
8C
74
ENDCHAR
STARTCHAR uni0104B8
ENCODING 66744
SWIDTH 500 0
DWIDTH 8 0
BBX 6 10 1 0
BITMAP
74
8C
88
88
A8
A8
88
88
8C
74
ENDCHAR
STARTCHAR uni0104B9
ENCODING 66745
SWIDTH 500 0
DWIDTH 8 0
BBX 6 10 1 0
BITMAP
1C
20
20
20
10
08
04
84
84
78
ENDCHAR
STARTCHAR uni0104BA
ENCODING 66746
SWIDTH 500 0
DWIDTH 8 0
BBX 6 10 1 0
BITMAP
04
1C
24
24
10
08
04
84
84
78
ENDCHAR
STARTCHAR uni0104BB
ENCODING 66747
SWIDTH 500 0
DWIDTH 8 0
BBX 6 10 1 0
BITMAP
78
84
84
84
84
84
84
84
84
84
ENDCHAR
STARTCHAR uni0104BC
ENCODING 66748
SWIDTH 500 0
DWIDTH 8 0
BBX 6 12 1 -2
BITMAP
84
88
90
A0
D0
88
84
84
84
84
08
30
ENDCHAR
STARTCHAR uni0104BD
ENCODING 66749
SWIDTH 500 0
DWIDTH 8 0
BBX 7 12 0 -2
BITMAP
42
E4
48
50
68
44
42
42
42
42
04
18
ENDCHAR
STARTCHAR uni0104BE
ENCODING 66750
SWIDTH 500 0
DWIDTH 8 0
BBX 6 12 1 -2
BITMAP
84
88
90
A0
D0
88
84
84
84
94
28
14
ENDCHAR
STARTCHAR uni0104BF
ENCODING 66751
SWIDTH 500 0
DWIDTH 8 0
BBX 6 10 1 0
BITMAP
1C
60
80
80
80
80
80
84
84
78
ENDCHAR
STARTCHAR uni0104C0
ENCODING 66752
SWIDTH 500 0
DWIDTH 8 0
BBX 7 10 0 0
BITMAP
6C
92
AA
A8
A8
90
80
80
80
80
ENDCHAR
STARTCHAR uni0104C1
ENCODING 66753
SWIDTH 500 0
DWIDTH 8 0
BBX 7 10 0 0
BITMAP
10
10
20
20
60
60
60
90
92
8C
ENDCHAR
STARTCHAR uni0104C2
ENCODING 66754
SWIDTH 500 0
DWIDTH 8 0
BBX 7 10 0 0
BITMAP
7C
82
82
82
82
82
82
82
82
7C
ENDCHAR
STARTCHAR uni0104C3
ENCODING 66755
SWIDTH 500 0
DWIDTH 8 0
BBX 7 10 0 0
BITMAP
7C
82
82
82
92
92
82
82
82
7C
ENDCHAR
STARTCHAR uni0104C4
ENCODING 66756
SWIDTH 500 0
DWIDTH 8 0
BBX 6 10 1 0
BITMAP
80
80
B8
C4
84
84
C4
B8
80
80
ENDCHAR
STARTCHAR uni0104C5
ENCODING 66757
SWIDTH 500 0
DWIDTH 8 0
BBX 7 10 0 0
BITMAP
40
40
5C
62
F2
42
62
5C
40
40
ENDCHAR
STARTCHAR uni0104C6
ENCODING 66758
SWIDTH 500 0
DWIDTH 8 0
BBX 6 10 1 0
BITMAP
74
8C
84
84
80
80
80
80
60
1C
ENDCHAR
STARTCHAR uni0104C7
ENCODING 66759
SWIDTH 500 0
DWIDTH 8 0
BBX 6 10 1 0
BITMAP
70
88
88
80
40
20
78
94
94
64
ENDCHAR
STARTCHAR uni0104C8
ENCODING 66760
SWIDTH 500 0
DWIDTH 8 0
BBX 6 10 1 0
BITMAP
F0
18
24
24
24
24
44
44
48
F0
ENDCHAR
STARTCHAR uni0104C9
ENCODING 66761
SWIDTH 500 0
DWIDTH 8 0
BBX 6 10 1 0
BITMAP
F0
18
24
24
F4
24
44
44
48
F0
ENDCHAR
STARTCHAR uni0104CA
ENCODING 66762
SWIDTH 500 0
DWIDTH 8 0
BBX 6 12 1 -2
BITMAP
F8
24
24
24
38
60
80
80
80
84
84
78
ENDCHAR
STARTCHAR uni0104CB
ENCODING 66763
SWIDTH 500 0
DWIDTH 8 0
BBX 6 12 1 -2
BITMAP
F8
24
74
24
38
60
80
80
80
84
84
78
ENDCHAR
STARTCHAR uni0104CC
ENCODING 66764
SWIDTH 500 0
DWIDTH 8 0
BBX 7 12 0 -2
BITMAP
7C
12
12
12
1C
30
40
40
F0
42
42
3C
ENDCHAR
STARTCHAR uni0104CD
ENCODING 66765
SWIDTH 500 0
DWIDTH 8 0
BBX 7 10 0 0
BITMAP
FE
20
20
2C
32
22
22
22
22
22
ENDCHAR
STARTCHAR uni0104CE
ENCODING 66766
SWIDTH 500 0
DWIDTH 8 0
BBX 6 10 1 0
BITMAP
84
84
84
84
84
84
84
84
84
78
ENDCHAR
STARTCHAR uni0104CF
ENCODING 66767
SWIDTH 500 0
DWIDTH 8 0
BBX 6 10 1 0
BITMAP
20
20
40
40
FC
04
08
08
10
10
ENDCHAR
STARTCHAR uni0104D0
ENCODING 66768
SWIDTH 500 0
DWIDTH 8 0
BBX 7 10 0 0
BITMAP
10
10
10
10
7C
92
92
92
92
92
ENDCHAR
STARTCHAR uni0104D1
ENCODING 66769
SWIDTH 500 0
DWIDTH 8 0
BBX 7 10 0 0
BITMAP
92
92
92
92
92
7C
10
10
10
10
ENDCHAR
STARTCHAR uni0104D2
ENCODING 66770
SWIDTH 500 0
DWIDTH 8 0
BBX 6 10 1 0
BITMAP
FC
04
04
08
10
20
40
80
80
80
ENDCHAR
STARTCHAR uni0104D3
ENCODING 66771
SWIDTH 500 0
DWIDTH 8 0
BBX 6 10 1 0
BITMAP
FC
04
04
08
10
20
40
F0
88
84
ENDCHAR
STARTCHAR uni0104D8
ENCODING 66776
SWIDTH 500 0
DWIDTH 8 0
BBX 7 8 0 0
BITMAP
10
10
28
28
44
44
82
82
ENDCHAR
STARTCHAR uni0104D9
ENCODING 66777
SWIDTH 500 0
DWIDTH 8 0
BBX 7 8 0 0
BITMAP
10
10
28
28
44
54
92
92
ENDCHAR
STARTCHAR uni0104DA
ENCODING 66778
SWIDTH 500 0
DWIDTH 8 0
BBX 7 8 0 0
BITMAP
10
10
28
28
44
54
BA
92
ENDCHAR
STARTCHAR uni0104DB
ENCODING 66779
SWIDTH 500 0
DWIDTH 8 0
BBX 6 10 1 0
BITMAP
40
40
20
20
10
30
48
48
84
84
ENDCHAR
STARTCHAR uni0104DC
ENCODING 66780
SWIDTH 500 0
DWIDTH 8 0
BBX 7 10 1 -2
BITMAP
80
F8
84
84
84
F8
90
88
04
02
ENDCHAR
STARTCHAR uni0104DD
ENCODING 66781
SWIDTH 500 0
DWIDTH 8 0
BBX 6 8 1 0
BITMAP
38
44
80
88
94
A4
A4
64
ENDCHAR
STARTCHAR uni0104DE
ENCODING 66782
SWIDTH 500 0
DWIDTH 8 0
BBX 7 8 1 0
BITMAP
38
44
80
88
94
A4
AE
64
ENDCHAR
STARTCHAR uni0104DF
ENCODING 66783
SWIDTH 500 0
DWIDTH 8 0
BBX 6 8 1 0
BITMAP
74
8C
88
88
88
88
8C
74
ENDCHAR
STARTCHAR uni0104E0
ENCODING 66784
SWIDTH 500 0
DWIDTH 8 0
BBX 6 8 1 0
BITMAP
74
8C
88
A8
A8
88
8C
74
ENDCHAR
STARTCHAR uni0104E1
ENCODING 66785
SWIDTH 500 0
DWIDTH 8 0
BBX 6 8 1 0
BITMAP
0C
10
10
08
08
84
84
78
ENDCHAR
STARTCHAR uni0104E2
ENCODING 66786
SWIDTH 500 0
DWIDTH 8 0
BBX 6 8 1 0
BITMAP
04
1C
24
10
08
04
84
78
ENDCHAR
STARTCHAR uni0104E3
ENCODING 66787
SWIDTH 500 0
DWIDTH 8 0
BBX 6 8 1 0
BITMAP
78
84
84
84
84
84
84
84
ENDCHAR
STARTCHAR uni0104E4
ENCODING 66788
SWIDTH 500 0
DWIDTH 8 0
BBX 6 13 1 -2
BITMAP
80
80
80
84
88
90
A0
D0
88
84
84
08
30
ENDCHAR
STARTCHAR uni0104E5
ENCODING 66789
SWIDTH 500 0
DWIDTH 8 0
BBX 7 13 0 -2
BITMAP
40
F0
40
42
44
48
50
68
44
42
42
04
18
ENDCHAR
STARTCHAR uni0104E6
ENCODING 66790
SWIDTH 500 0
DWIDTH 8 0
BBX 6 13 1 -2
BITMAP
80
80
80
84
88
90
A0
D0
88
84
94
28
14
ENDCHAR
STARTCHAR uni0104E7
ENCODING 66791
SWIDTH 500 0
DWIDTH 8 0
BBX 6 8 1 0
BITMAP
1C
60
80
80
80
84
84
78
ENDCHAR
STARTCHAR uni0104E8
ENCODING 66792
SWIDTH 500 0
DWIDTH 8 0
BBX 7 8 1 0
BITMAP
6C
92
AA
A8
A8
90
80
80
ENDCHAR
STARTCHAR uni0104E9
ENCODING 66793
SWIDTH 500 0
DWIDTH 8 0
BBX 7 8 0 0
BITMAP
10
10
20
20
60
60
92
8C
ENDCHAR
STARTCHAR uni0104EA
ENCODING 66794
SWIDTH 500 0
DWIDTH 8 0
BBX 7 8 0 0
BITMAP
7C
82
82
82
82
82
82
7C
ENDCHAR
STARTCHAR uni0104EB
ENCODING 66795
SWIDTH 500 0
DWIDTH 8 0
BBX 7 8 0 0
BITMAP
7C
82
82
92
92
82
82
7C
ENDCHAR
STARTCHAR uni0104EC
ENCODING 66796
SWIDTH 500 0
DWIDTH 8 0
BBX 6 8 1 0
BITMAP
80
F8
84
84
84
F8
80
80
ENDCHAR
STARTCHAR uni0104ED
ENCODING 66797
SWIDTH 500 0
DWIDTH 8 0
BBX 7 8 0 0
BITMAP
40
7C
42
F2
42
7C
40
40
ENDCHAR
STARTCHAR uni0104EE
ENCODING 66798
SWIDTH 500 0
DWIDTH 8 0
BBX 6 10 1 -2
BITMAP
74
8C
84
84
80
80
40
20
10
0C
ENDCHAR
STARTCHAR uni0104EF
ENCODING 66799
SWIDTH 500 0
DWIDTH 8 0
BBX 6 8 1 0
BITMAP
70
88
80
40
20
78
94
64
ENDCHAR
STARTCHAR uni0104F0
ENCODING 66800
SWIDTH 500 0
DWIDTH 8 0
BBX 6 8 1 0
BITMAP
F0
18
24
24
24
44
48
F0
ENDCHAR
STARTCHAR uni0104F1
ENCODING 66801
SWIDTH 500 0
DWIDTH 8 0
BBX 6 8 1 0
BITMAP
F0
18
24
F4
24
44
48
F0
ENDCHAR
STARTCHAR uni0104F2
ENCODING 66802
SWIDTH 500 0
DWIDTH 8 0
BBX 6 10 1 -2
BITMAP
F8
24
24
24
38
60
80
84
84
78
ENDCHAR
STARTCHAR uni0104F3
ENCODING 66803
SWIDTH 500 0
DWIDTH 8 0
BBX 6 10 1 -2
BITMAP
F8
24
74
24
38
60
80
84
84
78
ENDCHAR
STARTCHAR uni0104F4
ENCODING 66804
SWIDTH 500 0
DWIDTH 8 0
BBX 7 10 0 -2
BITMAP
7C
12
12
12
1C
30
40
F2
42
3C
ENDCHAR
STARTCHAR uni0104F5
ENCODING 66805
SWIDTH 500 0
DWIDTH 8 0
BBX 7 8 0 0
BITMAP
FE
20
20
2C
32
22
22
22
ENDCHAR
STARTCHAR uni0104F6
ENCODING 66806
SWIDTH 500 0
DWIDTH 8 0
BBX 6 8 1 0
BITMAP
84
84
84
84
84
84
84
78
ENDCHAR
STARTCHAR uni0104F7
ENCODING 66807
SWIDTH 500 0
DWIDTH 8 0
BBX 6 8 1 0
BITMAP
20
40
40
FC
04
08
08
10
ENDCHAR
STARTCHAR uni0104F8
ENCODING 66808
SWIDTH 500 0
DWIDTH 8 0
BBX 7 12 0 -2
BITMAP
10
10
7C
92
92
92
92
92
10
10
10
10
ENDCHAR
STARTCHAR uni0104F9
ENCODING 66809
SWIDTH 500 0
DWIDTH 8 0
BBX 7 12 0 -2
BITMAP
10
10
92
92
92
92
92
7C
10
10
10
10
ENDCHAR
STARTCHAR uni0104FA
ENCODING 66810
SWIDTH 500 0
DWIDTH 8 0
BBX 6 8 1 0
BITMAP
FC
04
08
10
20
40
80
80
ENDCHAR
STARTCHAR uni0104FB
ENCODING 66811
SWIDTH 500 0
DWIDTH 8 0
BBX 6 8 1 0
BITMAP
FC
04
08
10
20
40
F8
84
ENDCHAR
STARTCHAR uni010500
ENCODING 66816
SWIDTH 500 0
DWIDTH 8 0
BBX 7 7 0 0
BITMAP
22
44
88
F8
88
44
22
ENDCHAR
STARTCHAR uni010501
ENCODING 66817
SWIDTH 500 0
DWIDTH 8 0
BBX 7 7 0 0
BITMAP
82
44
28
10
28
44
FE
ENDCHAR
STARTCHAR uni010502
ENCODING 66818
SWIDTH 500 0
DWIDTH 8 0
BBX 6 12 1 -2
BITMAP
C0
30
08
04
04
84
84
88
F0
80
80
80
ENDCHAR
STARTCHAR uni010503
ENCODING 66819
SWIDTH 500 0
DWIDTH 8 0
BBX 7 11 0 0
BITMAP
02
02
02
02
02
C2
22
22
22
22
1C
ENDCHAR
STARTCHAR uni010504
ENCODING 66820
SWIDTH 500 0
DWIDTH 8 0
BBX 7 11 0 0
BITMAP
02
02
02
02
02
02
82
82
82
82
FE
ENDCHAR
STARTCHAR uni010505
ENCODING 66821
SWIDTH 500 0
DWIDTH 8 0
BBX 7 11 0 0
BITMAP
02
02
02
02
82
02
82
82
82
82
FE
ENDCHAR
STARTCHAR uni010506
ENCODING 66822
SWIDTH 500 0
DWIDTH 8 0
BBX 7 7 0 0
BITMAP
FE
44
44
28
28
10
10
ENDCHAR
STARTCHAR uni010507
ENCODING 66823
SWIDTH 500 0
DWIDTH 8 0
BBX 7 7 0 0
BITMAP
FE
04
08
10
20
40
FE
ENDCHAR
STARTCHAR uni010508
ENCODING 66824
SWIDTH 500 0
DWIDTH 8 0
BBX 5 9 1 -2
BITMAP
30
40
80
F8
08
08
08
08
08
ENDCHAR
STARTCHAR uni010509
ENCODING 66825
SWIDTH 500 0
DWIDTH 8 0
BBX 6 7 1 0
BITMAP
80
80
80
F8
84
84
F8
ENDCHAR
STARTCHAR uni01050A
ENCODING 66826
SWIDTH 500 0
DWIDTH 8 0
BBX 7 7 0 0
BITMAP
F8
10
20
24
42
42
3C
ENDCHAR
STARTCHAR uni01050B
ENCODING 66827
SWIDTH 500 0
DWIDTH 8 0
BBX 7 9 0 -2
BITMAP
60
8C
92
92
92
92
7C
10
10
ENDCHAR
STARTCHAR uni01050C
ENCODING 66828
SWIDTH 500 0
DWIDTH 8 0
BBX 7 9 0 -2
BITMAP
30
40
80
88
48
38
08
08
06
ENDCHAR
STARTCHAR uni01050D
ENCODING 66829
SWIDTH 500 0
DWIDTH 8 0
BBX 7 7 0 0
BITMAP
82
86
8A
92
A2
C2
82
ENDCHAR
STARTCHAR uni01050E
ENCODING 66830
SWIDTH 500 0
DWIDTH 8 0
BBX 1 7 3 0
BITMAP
80
80
80
80
80
80
80
ENDCHAR
STARTCHAR uni01050F
ENCODING 66831
SWIDTH 500 0
DWIDTH 8 0
BBX 6 7 1 0
BITMAP
FC
80
80
80
80
80
80
ENDCHAR
STARTCHAR uni010510
ENCODING 66832
SWIDTH 500 0
DWIDTH 8 0
BBX 7 7 0 0
BITMAP
10
10
28
28
44
44
82
ENDCHAR
STARTCHAR uni010511
ENCODING 66833
SWIDTH 500 0
DWIDTH 8 0
BBX 7 9 0 0
BITMAP
10
00
10
10
28
28
44
44
82
ENDCHAR
STARTCHAR uni010512
ENCODING 66834
SWIDTH 500 0
DWIDTH 8 0
BBX 7 8 0 0
BITMAP
80
80
FE
82
82
82
82
82
ENDCHAR
STARTCHAR uni010513
ENCODING 66835
SWIDTH 500 0
DWIDTH 8 0
BBX 7 7 0 0
BITMAP
82
C2
A2
92
8A
86
82
ENDCHAR
STARTCHAR uni010514
ENCODING 66836
SWIDTH 500 0
DWIDTH 8 0
BBX 6 9 1 -2
BITMAP
04
0C
14
24
44
84
F4
04
04
ENDCHAR
STARTCHAR uni010515
ENCODING 66837
SWIDTH 500 0
DWIDTH 8 0
BBX 6 7 1 0
BITMAP
FC
04
04
04
04
04
04
ENDCHAR
STARTCHAR uni010516
ENCODING 66838
SWIDTH 500 0
DWIDTH 8 0
BBX 7 7 0 0
BITMAP
38
44
82
82
82
44
38
ENDCHAR
STARTCHAR uni010517
ENCODING 66839
SWIDTH 500 0
DWIDTH 8 0
BBX 6 7 1 0
BITMAP
FC
84
84
84
84
84
84
ENDCHAR
STARTCHAR uni010518
ENCODING 66840
SWIDTH 500 0
DWIDTH 8 0
BBX 5 7 1 0
BITMAP
88
90
A0
E0
90
88
88
ENDCHAR
STARTCHAR uni010519
ENCODING 66841
SWIDTH 500 0
DWIDTH 8 0
BBX 7 9 0 -2
BITMAP
82
82
82
82
82
FE
02
02
02
ENDCHAR
STARTCHAR uni01051A
ENCODING 66842
SWIDTH 500 0
DWIDTH 8 0
BBX 7 11 0 -2
BITMAP
10
00
82
82
82
82
82
FE
02
02
02
ENDCHAR
STARTCHAR uni01051B
ENCODING 66843
SWIDTH 500 0
DWIDTH 8 0
BBX 6 7 1 0
BITMAP
78
84
80
80
80
84
78
ENDCHAR
STARTCHAR uni01051C
ENCODING 66844
SWIDTH 500 0
DWIDTH 8 0
BBX 6 7 1 0
BITMAP
FC
84
84
FC
84
84
84
ENDCHAR
STARTCHAR uni01051D
ENCODING 66845
SWIDTH 500 0
DWIDTH 8 0
BBX 7 7 0 0
BITMAP
82
44
44
28
28
10
10
ENDCHAR
STARTCHAR uni01051E
ENCODING 66846
SWIDTH 500 0
DWIDTH 8 0
BBX 7 11 0 0
BITMAP
38
44
44
82
82
FE
82
82
44
44
38
ENDCHAR
STARTCHAR uni01051F
ENCODING 66847
SWIDTH 500 0
DWIDTH 8 0
BBX 5 7 1 0
BITMAP
88
50
20
50
88
88
70
ENDCHAR
STARTCHAR uni010520
ENCODING 66848
SWIDTH 500 0
DWIDTH 8 0
BBX 7 9 0 -2
BITMAP
82
82
82
82
82
FE
80
80
80
ENDCHAR
STARTCHAR uni010521
ENCODING 66849
SWIDTH 500 0
DWIDTH 8 0
BBX 6 9 1 -2
BITMAP
80
80
98
A4
C4
88
90
20
40
ENDCHAR
STARTCHAR uni010522
ENCODING 66850
SWIDTH 500 0
DWIDTH 8 0
BBX 6 11 1 0
BITMAP
38
44
44
04
88
50
20
50
88
88
70
ENDCHAR
STARTCHAR uni010523
ENCODING 66851
SWIDTH 500 0
DWIDTH 8 0
BBX 6 9 1 -2
BITMAP
3C
40
80
80
78
04
04
84
78
ENDCHAR
STARTCHAR uni010524
ENCODING 66852
SWIDTH 500 0
DWIDTH 8 0
BBX 6 9 1 -2
BITMAP
84
84
84
84
8C
74
04
84
78
ENDCHAR
STARTCHAR uni010525
ENCODING 66853
SWIDTH 500 0
DWIDTH 8 0
BBX 6 7 1 0
BITMAP
FC
80
80
FC
80
80
80
ENDCHAR
STARTCHAR uni010526
ENCODING 66854
SWIDTH 500 0
DWIDTH 8 0
BBX 4 7 2 0
BITMAP
80
80
80
80
80
80
F0
ENDCHAR
STARTCHAR uni010527
ENCODING 66855
SWIDTH 500 0
DWIDTH 8 0
BBX 8 9 0 -2
BITMAP
21
21
12
14
08
14
24
40
80
ENDCHAR
STARTCHAR uni010530
ENCODING 66864
SWIDTH 1000 0
DWIDTH 16 0
BBX 11 11 2 2
BITMAP
3F00
7380
E1C0
E1C0
7380
1F00
0400
0800
1FC0
70E0
6060
ENDCHAR
STARTCHAR uni010531
ENCODING 66865
SWIDTH 1000 0
DWIDTH 16 0
BBX 11 11 2 2
BITMAP
E000
FFC0
E0C0
E080
E000
FF00
F1C0
E0E0
E0E0
71C0
3F80
ENDCHAR
STARTCHAR uni010532
ENCODING 66866
SWIDTH 1000 0
DWIDTH 16 0
BBX 11 11 2 2
BITMAP
3FC0
70E0
E0E0
E000
E000
E000
7000
3F00
0700
0700
0700
ENDCHAR
STARTCHAR uni010533
ENCODING 66867
SWIDTH 1000 0
DWIDTH 16 0
BBX 11 11 2 2
BITMAP
1F00
71C0
E0E0
E0E0
E0E0
71C0
1F00
0E00
0E00
0E00
0E00
ENDCHAR
STARTCHAR uni010534
ENCODING 66868
SWIDTH 1000 0
DWIDTH 16 0
BBX 15 11 0 2
BITMAP
01C0
01C0
01C0
01C0
01C0
01FE
61C6
E1C4
7380
7380
1E00
ENDCHAR
STARTCHAR uni010535
ENCODING 66869
SWIDTH 1000 0
DWIDTH 16 0
BBX 11 11 2 2
BITMAP
3800
3800
3800
1C00
0F00
03C0
01C0
60E0
E0E0
71C0
3F80
ENDCHAR
STARTCHAR uni010536
ENCODING 66870
SWIDTH 1000 0
DWIDTH 16 0
BBX 11 13 2 0
BITMAP
FFE0
E060
E040
E000
E000
E000
E000
E000
E000
7000
3FE0
0060
0040
ENDCHAR
STARTCHAR uni010537
ENCODING 66871
SWIDTH 1000 0
DWIDTH 16 0
BBX 11 12 2 1
BITMAP
FE00
E700
E380
E380
E700
FE00
E000
FFE0
E060
E040
E000
C000
ENDCHAR
STARTCHAR uni010538
ENCODING 66872
SWIDTH 1000 0
DWIDTH 16 0
BBX 11 12 2 2
BITMAP
0020
0FE0
3DE0
70E0
38E0
00E0
00E0
60E0
E0E0
E0E0
71C0
3F80
ENDCHAR
STARTCHAR uni010539
ENCODING 66873
SWIDTH 1000 0
DWIDTH 16 0
BBX 15 12 0 1
BITMAP
E000
E000
E000
E000
E000
E000
E000
E180
EF8E
FB8E
F3DE
C0F8
ENDCHAR
STARTCHAR uni01053A
ENCODING 66874
SWIDTH 1000 0
DWIDTH 16 0
BBX 11 12 2 1
BITMAP
4000
C000
FFE0
00E0
00E0
00E0
00E0
00E0
00E0
00E0
00E0
00E0
ENDCHAR
STARTCHAR uni01053B
ENCODING 66875
SWIDTH 1000 0
DWIDTH 16 0
BBX 11 11 2 2
BITMAP
0020
0060
0080
0100
0200
0400
0E00
1700
2380
41C0
C080
ENDCHAR
STARTCHAR uni01053C
ENCODING 66876
SWIDTH 1000 0
DWIDTH 16 0
BBX 11 12 2 1
BITMAP
E0E0
E0E0
E0E0
E0E0
70E0
3FE0
00E0
00E0
00E0
00E0
00E0
00E0
ENDCHAR
STARTCHAR uni01053D
ENCODING 66877
SWIDTH 1000 0
DWIDTH 16 0
BBX 11 11 2 2
BITMAP
6000
E000
E000
E000
E000
FF00
F1C0
E0E0
E0E0
F1C0
7F80
ENDCHAR
STARTCHAR uni01053E
ENCODING 66878
SWIDTH 1000 0
DWIDTH 16 0
BBX 11 11 2 2
BITMAP
3F80
71C0
E0E0
E0E0
E0E0
00E0
00E0
00E0
00E0
00E0
00E0
ENDCHAR
STARTCHAR uni01053F
ENCODING 66879
SWIDTH 1000 0
DWIDTH 16 0
BBX 11 13 2 0
BITMAP
0600
0E00
0E00
0E00
0E00
0E00
0E00
0E00
4E00
CE00
FFE0
0060
0040
ENDCHAR
STARTCHAR uni010540
ENCODING 66880
SWIDTH 1000 0
DWIDTH 16 0
BBX 11 11 2 2
BITMAP
00E0
1FE0
78E0
F0E0
78E0
1FE0
00E0
00E0
00E0
00E0
00E0
ENDCHAR
STARTCHAR uni010541
ENCODING 66881
SWIDTH 1000 0
DWIDTH 16 0
BBX 11 11 2 2
BITMAP
C000
E000
E000
E000
FFC0
E1E0
E0E0
E0E0
E000
E000
E000
ENDCHAR
STARTCHAR uni010542
ENCODING 66882
SWIDTH 1000 0
DWIDTH 16 0
BBX 15 12 0 1
BITMAP
3F00
7380
E1C0
E1C0
7380
1F00
0400
0800
1F8E
738E
61DC
00F8
ENDCHAR
STARTCHAR uni010543
ENCODING 66883
SWIDTH 1000 0
DWIDTH 16 0
BBX 11 14 2 -1
BITMAP
E000
E000
E000
FF80
E1C0
E0E0
E0E0
E1C0
E000
E000
E000
7FC0
00C0
0040
ENDCHAR
STARTCHAR uni010544
ENCODING 66884
SWIDTH 1000 0
DWIDTH 16 0
BBX 11 13 2 0
BITMAP
FFE0
E060
7040
3800
1C00
0E00
1C00
3800
7000
E000
FFE0
0060
0040
ENDCHAR
STARTCHAR uni010545
ENCODING 66885
SWIDTH 1000 0
DWIDTH 16 0
BBX 15 11 0 2
BITMAP
3FFE
71C6
E0E4
E0E0
E0E0
00E0
00E0
00E0
00E0
00E0
00E0
ENDCHAR
STARTCHAR uni010546
ENCODING 66886
SWIDTH 1000 0
DWIDTH 16 0
BBX 11 12 2 1
BITMAP
0F80
01C0
01C0
01C0
01E0
00E0
00C0
0300
0C00
3000
C000
E000
ENDCHAR
STARTCHAR uni010547
ENCODING 66887
SWIDTH 1000 0
DWIDTH 16 0
BBX 11 11 2 2
BITMAP
0060
00E0
00E0
40E0
C0E0
FFE0
00E0
00E0
00E0
00E0
00C0
ENDCHAR
STARTCHAR uni010548
ENCODING 66888
SWIDTH 1000 0
DWIDTH 16 0
BBX 12 12 2 1
BITMAP
E000
E000
7C70
1C70
1C70
1C70
1C70
1C70
1C70
1C70
0EE0
07C0
ENDCHAR
STARTCHAR uni010549
ENCODING 66889
SWIDTH 1000 0
DWIDTH 16 0
BBX 15 12 0 1
BITMAP
E380
E380
E380
E380
E380
E380
E380
E3FE
E380
E380
7700
3E00
ENDCHAR
STARTCHAR uni01054A
ENCODING 66890
SWIDTH 1000 0
DWIDTH 16 0
BBX 15 11 0 2
BITMAP
0FC0
39C0
71C0
39C0
0FC0
01C0
1FFE
71C6
E1C0
7380
3F00
ENDCHAR
STARTCHAR uni01054B
ENCODING 66891
SWIDTH 1000 0
DWIDTH 16 0
BBX 11 13 2 0
BITMAP
3C00
7000
E000
7000
3FE0
00C0
0180
1E00
7060
E0E0
E0E0
71C0
1F00
ENDCHAR
STARTCHAR uni01054C
ENCODING 66892
SWIDTH 1000 0
DWIDTH 16 0
BBX 15 13 0 0
BITMAP
1F80
7380
E380
E380
7380
1F80
0380
0380
4380
C380
FFFE
0006
0004
ENDCHAR
STARTCHAR uni01054D
ENCODING 66893
SWIDTH 1000 0
DWIDTH 16 0
BBX 11 13 2 0
BITMAP
3F80
71C0
E0E0
E1C0
7380
3F00
0E00
1C00
3800
7000
F0E0
7FE0
01E0
ENDCHAR
STARTCHAR uni01054E
ENCODING 66894
SWIDTH 1000 0
DWIDTH 16 0
BBX 11 11 2 2
BITMAP
E000
E000
7CE0
1CE0
1CE0
0EE0
07E0
00E0
00E0
00E0
00E0
ENDCHAR
STARTCHAR uni01054F
ENCODING 66895
SWIDTH 1000 0
DWIDTH 16 0
BBX 15 11 0 2
BITMAP
01C0
01C0
01C0
01C0
01C0
01FE
61C0
E1C0
7380
7380
1E00
ENDCHAR
STARTCHAR uni010550
ENCODING 66896
SWIDTH 1000 0
DWIDTH 16 0
BBX 15 12 0 2
BITMAP
2000
6000
7FC0
01C0
01C0
01C0
01C0
1FFE
71C6
E1C4
7380
3F00
ENDCHAR
STARTCHAR uni010551
ENCODING 66897
SWIDTH 1000 0
DWIDTH 16 0
BBX 11 11 2 2
BITMAP
1E00
7380
E380
E380
7380
1F80
0380
0380
03A0
03C0
0380
ENDCHAR
STARTCHAR uni010552
ENCODING 66898
SWIDTH 1000 0
DWIDTH 16 0
BBX 15 11 0 2
BITMAP
1F00
3180
71C0
E0E0
E0E0
E0FE
E0E6
E0E4
71C0
3180
1F00
ENDCHAR
STARTCHAR uni010553
ENCODING 66899
SWIDTH 1000 0
DWIDTH 16 0
BBX 11 14 2 0
BITMAP
4000
C000
FF80
0180
0380
0700
0E00
1C00
3800
7000
E000
FFE0
0060
0040
ENDCHAR
STARTCHAR uni010554
ENCODING 66900
SWIDTH 1000 0
DWIDTH 16 0
BBX 15 12 0 2
BITMAP
4000
C000
FFFE
0386
0384
0380
0380
6380
E380
7700
7700
1C00
ENDCHAR
STARTCHAR uni010555
ENCODING 66901
SWIDTH 1000 0
DWIDTH 16 0
BBX 11 11 2 2
BITMAP
0020
0060
0080
0100
0200
0400
0800
1E60
2660
43C0
C000
ENDCHAR
STARTCHAR uni010556
ENCODING 66902
SWIDTH 1000 0
DWIDTH 16 0
BBX 11 12 2 2
BITMAP
8000
C000
FF80
0700
0700
0380
01C0
00E0
00E0
41C0
6380
7F00
ENDCHAR
STARTCHAR uni010557
ENCODING 66903
SWIDTH 1000 0
DWIDTH 16 0
BBX 15 11 0 2
BITMAP
1F80
7380
E380
7380
1FFC
038E
0386
038E
039C
0380
0380
ENDCHAR
STARTCHAR uni010558
ENCODING 66904
SWIDTH 1000 0
DWIDTH 16 0
BBX 11 11 2 2
BITMAP
03E0
7E60
7040
1C00
0E00
0700
0380
6380
E380
7700
1C00
ENDCHAR
STARTCHAR uni010559
ENCODING 66905
SWIDTH 1000 0
DWIDTH 16 0
BBX 15 11 0 2
BITMAP
0380
0380
0380
0380
0380
0380
0380
E38E
E38E
77DC
1CF0
ENDCHAR
STARTCHAR uni01055A
ENCODING 66906
SWIDTH 1000 0
DWIDTH 16 0
BBX 11 12 2 2
BITMAP
4000
C000
FF00
0700
0E00
0E00
0FC0
1EE0
1CE0
1CE0
38E0
38E0
ENDCHAR
STARTCHAR uni01055B
ENCODING 66907
SWIDTH 1000 0
DWIDTH 16 0
BBX 15 11 0 2
BITMAP
E000
E000
E000
E000
FF8E
E38E
E1DC
E070
E000
E000
E000
ENDCHAR
STARTCHAR uni01055C
ENCODING 66908
SWIDTH 1000 0
DWIDTH 16 0
BBX 15 12 0 2
BITMAP
4000
C000
FF00
0700
0700
0700
0700
07F0
079C
470E
CF9C
FBF8
ENDCHAR
STARTCHAR uni01055D
ENCODING 66909
SWIDTH 1000 0
DWIDTH 16 0
BBX 11 11 2 2
BITMAP
1F00
3B80
3B80
1700
0E00
3C00
73C0
E0E0
E0E0
71C0
1F00
ENDCHAR
STARTCHAR uni01055E
ENCODING 66910
SWIDTH 1000 0
DWIDTH 16 0
BBX 15 12 0 1
BITMAP
E000
E000
7C70
1C70
1C70
1C70
1C70
1C7E
1C76
1C74
0EE0
07C0
ENDCHAR
STARTCHAR uni01055F
ENCODING 66911
SWIDTH 1000 0
DWIDTH 16 0
BBX 15 11 0 2
BITMAP
E3F8
E39C
E38E
E38E
738E
3F8E
0380
0380
0380
0380
0380
ENDCHAR
STARTCHAR uni010560
ENCODING 66912
SWIDTH 1000 0
DWIDTH 16 0
BBX 15 11 0 2
BITMAP
3FFC
738E
E38E
E38E
0380
0380
0380
0380
0380
0380
0380
ENDCHAR
STARTCHAR uni010561
ENCODING 66913
SWIDTH 1000 0
DWIDTH 16 0
BBX 15 12 0 2
BITMAP
4000
C000
FF80
0380
0380
0380
0380
03FE
0386
0384
0380
0380
ENDCHAR
STARTCHAR uni010562
ENCODING 66914
SWIDTH 1000 0
DWIDTH 16 0
BBX 11 11 2 2
BITMAP
E0E0
E0E0
E0E0
E0E0
E0E0
E0E0
71C0
1F00
0E00
0E00
0E00
ENDCHAR
STARTCHAR uni010563
ENCODING 66915
SWIDTH 1000 0
DWIDTH 16 0
BBX 11 15 2 -2
BITMAP
0E00
0E00
0E00
0E00
0E00
0E00
0E00
0E00
4E00
CE00
FFE0
0E60
0E40
0C00
0800
ENDCHAR
STARTCHAR uni01056F
ENCODING 66927
SWIDTH 500 0
DWIDTH 8 0
BBX 6 8 1 3
BITMAP
70
E0
70
1C
1C
38
70
C0
ENDCHAR
STARTCHAR uni010600
ENCODING 67072
SWIDTH 500 0
DWIDTH 8 0
BBX 6 10 1 0
BITMAP
80
80
80
80
FC
80
80
80
80
80
ENDCHAR
STARTCHAR uni010601
ENCODING 67073
SWIDTH 500 0
DWIDTH 8 0
BBX 7 10 0 0
BITMAP
10
10
10
10
FE
10
10
10
10
10
ENDCHAR
STARTCHAR uni010602
ENCODING 67074
SWIDTH 500 0
DWIDTH 8 0
BBX 7 10 0 0
BITMAP
10
10
10
FE
10
10
FE
10
10
10
ENDCHAR
STARTCHAR uni010603
ENCODING 67075
SWIDTH 500 0
DWIDTH 8 0
BBX 7 10 0 0
BITMAP
92
54
38
92
54
38
92
54
38
10
ENDCHAR
STARTCHAR uni010604
ENCODING 67076
SWIDTH 500 0
DWIDTH 8 0
BBX 8 10 0 0
BITMAP
FF
10
10
10
7C
10
10
10
10
10
ENDCHAR
STARTCHAR uni010605
ENCODING 67077
SWIDTH 500 0
DWIDTH 8 0
BBX 5 10 1 0
BITMAP
F8
00
20
00
20
20
20
20
20
20
ENDCHAR
STARTCHAR uni010606
ENCODING 67078
SWIDTH 500 0
DWIDTH 8 0
BBX 5 10 1 0
BITMAP
F8
00
A8
A8
A8
00
20
20
20
20
ENDCHAR
STARTCHAR uni010607
ENCODING 67079
SWIDTH 500 0
DWIDTH 8 0
BBX 5 10 1 0
BITMAP
88
88
F8
A8
A8
20
20
20
20
20
ENDCHAR
STARTCHAR uni010608
ENCODING 67080
SWIDTH 500 0
DWIDTH 8 0
BBX 5 10 1 0
BITMAP
A8
A8
A8
F8
80
80
80
80
80
80
ENDCHAR
STARTCHAR uni010609
ENCODING 67081
SWIDTH 500 0
DWIDTH 8 0
BBX 7 10 1 0
BITMAP
0E
14
24
24
44
7E
44
80
80
80
ENDCHAR
STARTCHAR uni01060A
ENCODING 67082
SWIDTH 500 0
DWIDTH 8 0
BBX 5 10 1 0
BITMAP
18
60
80
60
10
10
10
10
10
10
ENDCHAR
STARTCHAR uni01060B
ENCODING 67083
SWIDTH 1000 0
DWIDTH 16 0
BBX 14 10 1 0
BITMAP
4100
A280
A2A0
A320
7DC8
2010
2024
4008
4010
8000
ENDCHAR
STARTCHAR uni01060C
ENCODING 67084
SWIDTH 500 0
DWIDTH 8 0
BBX 7 10 0 0
BITMAP
38
44
C6
44
38
10
10
10
10
7C
ENDCHAR
STARTCHAR uni01060D
ENCODING 67085
SWIDTH 500 0
DWIDTH 8 0
BBX 5 10 1 0
BITMAP
70
88
88
88
70
F8
20
20
20
20
ENDCHAR
STARTCHAR uni01060E
ENCODING 67086
SWIDTH 500 0
DWIDTH 8 0
BBX 7 10 0 0
BITMAP
10
38
54
92
10
38
10
10
10
10
ENDCHAR
STARTCHAR uni01060F
ENCODING 67087
SWIDTH 500 0
DWIDTH 8 0
BBX 7 10 1 0
BITMAP
30
48
88
88
48
3E
08
08
08
08
ENDCHAR
STARTCHAR uni010610
ENCODING 67088
SWIDTH 1000 0
DWIDTH 16 0
BBX 12 10 2 0
BITMAP
3E00
4700
8700
8A80
4A80
3FF0
0A80
1240
1240
1240
ENDCHAR
STARTCHAR uni010611
ENCODING 67089
SWIDTH 500 0
DWIDTH 8 0
BBX 7 10 1 0
BITMAP
38
48
88
88
7E
08
3E
08
3E
08
ENDCHAR
STARTCHAR uni010612
ENCODING 67090
SWIDTH 1000 0
DWIDTH 16 0
BBX 13 10 2 0
BITMAP
1040
28E0
4550
8248
0040
0140
0240
0040
0040
0040
ENDCHAR
STARTCHAR uni010613
ENCODING 67091
SWIDTH 1000 0
DWIDTH 16 0
BBX 13 10 2 0
BITMAP
1040
28E0
4550
8248
0040
0150
0248
0040
0040
0040
ENDCHAR
STARTCHAR uni010614
ENCODING 67092
SWIDTH 1000 0
DWIDTH 16 0
BBX 13 10 2 0
BITMAP
1040
28E0
4550
8248
0140
0240
01F0
0040
01F0
0040
ENDCHAR
STARTCHAR uni010615
ENCODING 67093
SWIDTH 500 0
DWIDTH 8 0
BBX 6 10 1 0
BITMAP
40
A8
A4
A0
7C
20
20
20
20
20
ENDCHAR
STARTCHAR uni010616
ENCODING 67094
SWIDTH 500 0
DWIDTH 8 0
BBX 6 10 1 0
BITMAP
40
A8
A4
A0
7C
20
F8
20
F8
20
ENDCHAR
STARTCHAR uni010617
ENCODING 67095
SWIDTH 500 0
DWIDTH 8 0
BBX 5 10 1 0
BITMAP
F8
20
20
20
70
20
20
20
20
F8
ENDCHAR
STARTCHAR uni010618
ENCODING 67096
SWIDTH 1000 0
DWIDTH 16 0
BBX 11 10 2 0
BITMAP
4040
8020
8420
8E20
75C0
0400
0400
0400
0400
0400
ENDCHAR
STARTCHAR uni010619
ENCODING 67097
SWIDTH 1000 0
DWIDTH 16 0
BBX 11 10 2 0
BITMAP
8420
8420
8420
4440
3F80
0400
0400
0400
0400
0400
ENDCHAR
STARTCHAR uni01061A
ENCODING 67098
SWIDTH 1000 0
DWIDTH 16 0
BBX 9 10 3 0
BITMAP
8880
8880
4900
4900
7F00
8000
8000
7F00
0800
0800
ENDCHAR
STARTCHAR uni01061B
ENCODING 67099
SWIDTH 1000 0
DWIDTH 16 0
BBX 14 10 1 0
BITMAP
9120
9120
4A40
4A40
7FDC
8008
801C
7FF0
0400
0400
ENDCHAR
STARTCHAR uni01061C
ENCODING 67100
SWIDTH 1000 0
DWIDTH 16 0
BBX 11 10 2 0
BITMAP
8420
8420
8420
4440
E4E0
4440
2E80
2480
1500
7FC0
ENDCHAR
STARTCHAR uni01061D
ENCODING 67101
SWIDTH 1000 0
DWIDTH 16 0
BBX 14 10 1 0
BITMAP
8844
5028
FFFC
5228
8A44
0200
0200
0200
0200
0200
ENDCHAR
STARTCHAR uni01061E
ENCODING 67102
SWIDTH 1000 0
DWIDTH 16 0
BBX 9 10 3 0
BITMAP
8080
4100
2200
1400
0800
0800
0800
0800
0800
0800
ENDCHAR
STARTCHAR uni01061F
ENCODING 67103
SWIDTH 1000 0
DWIDTH 16 0
BBX 10 10 2 0
BITMAP
1F80
2040
4000
8000
8000
8000
8000
4000
2040
1F80
ENDCHAR
STARTCHAR uni010620
ENCODING 67104
SWIDTH 500 0
DWIDTH 8 0
BBX 7 10 0 0
BITMAP
10
28
28
28
44
44
44
82
82
82
ENDCHAR
STARTCHAR uni010621
ENCODING 67105
SWIDTH 500 0
DWIDTH 8 0
BBX 7 10 0 0
BITMAP
10
28
7C
28
44
EE
44
82
82
82
ENDCHAR
STARTCHAR uni010622
ENCODING 67106
SWIDTH 1000 0
DWIDTH 16 0
BBX 9 10 3 0
BITMAP
0800
0800
7F00
1C00
2A00
4900
4900
8880
8880
FF80
ENDCHAR
STARTCHAR uni010623
ENCODING 67107
SWIDTH 500 0
DWIDTH 8 0
BBX 7 10 0 0
BITMAP
0E
12
32
52
52
7E
52
92
92
FE
ENDCHAR
STARTCHAR uni010624
ENCODING 67108
SWIDTH 500 0
DWIDTH 8 0
BBX 7 10 0 0
BITMAP
10
54
92
92
7C
10
10
10
10
10
ENDCHAR
STARTCHAR uni010625
ENCODING 67109
SWIDTH 1000 0
DWIDTH 16 0
BBX 9 9 3 0
BITMAP
8880
4900
2A00
1C00
FF80
1C00
2A00
4900
8880
ENDCHAR
STARTCHAR uni010626
ENCODING 67110
SWIDTH 1000 0
DWIDTH 16 0
BBX 9 10 3 0
BITMAP
8880
5500
2200
4100
FF80
4900
4900
4900
4900
4900
ENDCHAR
STARTCHAR uni010627
ENCODING 67111
SWIDTH 500 0
DWIDTH 8 0
BBX 6 10 1 0
BITMAP
88
88
50
50
20
20
50
50
88
CC
ENDCHAR
STARTCHAR uni010628
ENCODING 67112
SWIDTH 500 0
DWIDTH 8 0
BBX 7 10 0 0
BITMAP
44
44
38
6C
54
6C
38
44
82
82
ENDCHAR
STARTCHAR uni010629
ENCODING 67113
SWIDTH 1000 0
DWIDTH 16 0
BBX 15 10 0 0
BITMAP
AAAA
AAAA
AAAA
0000
FC7E
0280
0100
0280
0440
0440
ENDCHAR
STARTCHAR uni01062A
ENCODING 67114
SWIDTH 1000 0
DWIDTH 16 0
BBX 13 10 1 0
BITMAP
38E0
4710
8008
2220
7770
2220
2220
2220
2220
7770
ENDCHAR
STARTCHAR uni01062B
ENCODING 67115
SWIDTH 1000 0
DWIDTH 16 0
BBX 11 10 2 0
BITMAP
01C0
0020
0020
03C0
1D00
2880
2880
4440
4440
EEE0
ENDCHAR
STARTCHAR uni01062C
ENCODING 67116
SWIDTH 1000 0
DWIDTH 16 0
BBX 12 10 2 0
BITMAP
7080
8880
0880
0880
0FF0
0940
0940
0A20
0A20
0A20
ENDCHAR
STARTCHAR uni01062D
ENCODING 67117
SWIDTH 500 0
DWIDTH 8 0
BBX 6 10 1 0
BITMAP
38
44
84
04
28
58
50
30
40
7C
ENDCHAR
STARTCHAR uni01062E
ENCODING 67118
SWIDTH 1000 0
DWIDTH 16 0
BBX 9 10 3 0
BITMAP
FF80
8080
8080
8080
8080
FF80
8080
8880
8880
8880
ENDCHAR
STARTCHAR uni01062F
ENCODING 67119
SWIDTH 500 0
DWIDTH 8 0
BBX 6 10 1 0
BITMAP
84
84
84
FC
84
84
FC
84
84
84
ENDCHAR
STARTCHAR uni010630
ENCODING 67120
SWIDTH 500 0
DWIDTH 8 0
BBX 6 10 1 0
BITMAP
84
84
FC
84
FC
84
FC
84
84
84
ENDCHAR
STARTCHAR uni010631
ENCODING 67121
SWIDTH 500 0
DWIDTH 8 0
BBX 6 10 1 0
BITMAP
FC
84
FC
84
84
84
84
FC
84
FC
ENDCHAR
STARTCHAR uni010632
ENCODING 67122
SWIDTH 500 0
DWIDTH 8 0
BBX 6 10 1 0
BITMAP
F8
84
84
84
9C
80
80
80
80
FC
ENDCHAR
STARTCHAR uni010633
ENCODING 67123
SWIDTH 500 0
DWIDTH 8 0
BBX 6 10 1 0
BITMAP
FC
84
80
80
80
80
80
80
84
FC
ENDCHAR
STARTCHAR uni010634
ENCODING 67124
SWIDTH 1000 0
DWIDTH 16 0
BBX 9 10 3 0
BITMAP
8000
8000
8000
8380
8400
8400
8400
8380
8080
FF80
ENDCHAR
STARTCHAR uni010635
ENCODING 67125
SWIDTH 1000 0
DWIDTH 16 0
BBX 8 12 4 0
BITMAP
06
F1
91
96
90
9E
E2
92
92
E2
82
FE
ENDCHAR
STARTCHAR uni010636
ENCODING 67126
SWIDTH 1000 0
DWIDTH 16 0
BBX 11 10 2 0
BITMAP
C000
2000
2000
2380
2540
2920
2B80
3000
3000
2000
ENDCHAR
STARTCHAR uni010637
ENCODING 67127
SWIDTH 500 0
DWIDTH 8 0
BBX 7 10 0 0
BITMAP
FE
82
AA
82
54
44
7C
10
10
10
ENDCHAR
STARTCHAR uni010638
ENCODING 67128
SWIDTH 1000 0
DWIDTH 16 0
BBX 9 10 3 0
BITMAP
8800
5000
3F80
6080
A080
1100
1100
0A00
0A00
1F00
ENDCHAR
STARTCHAR uni010639
ENCODING 67129
SWIDTH 500 0
DWIDTH 8 0
BBX 7 10 1 0
BITMAP
10
10
10
10
FE
92
54
38
10
FE
ENDCHAR
STARTCHAR uni01063A
ENCODING 67130
SWIDTH 1000 0
DWIDTH 16 0
BBX 11 10 2 0
BITMAP
7FC0
8020
9120
71C0
1100
1100
0A00
0A00
0A00
0400
ENDCHAR
STARTCHAR uni01063B
ENCODING 67131
SWIDTH 1000 0
DWIDTH 16 0
BBX 9 10 3 0
BITMAP
8000
8000
8000
8100
A880
A080
B080
8100
8200
7C00
ENDCHAR
STARTCHAR uni01063C
ENCODING 67132
SWIDTH 1000 0
DWIDTH 16 0
BBX 10 10 2 0
BITMAP
8000
8400
C800
A000
AE00
C040
8840
8440
4080
3F00
ENDCHAR
STARTCHAR uni01063D
ENCODING 67133
SWIDTH 1000 0
DWIDTH 16 0
BBX 10 10 2 0
BITMAP
6300
1080
0840
0840
1080
2100
4200
8400
8400
6300
ENDCHAR
STARTCHAR uni01063E
ENCODING 67134
SWIDTH 1000 0
DWIDTH 16 0
BBX 11 11 2 0
BITMAP
1F00
2480
4440
8420
8420
FFE0
8420
8420
4440
2480
1F00
ENDCHAR
STARTCHAR uni01063F
ENCODING 67135
SWIDTH 1000 0
DWIDTH 16 0
BBX 11 11 2 0
BITMAP
1F00
2080
4040
9120
8020
8020
8020
8420
4040
2080
1F00
ENDCHAR
STARTCHAR uni010640
ENCODING 67136
SWIDTH 1000 0
DWIDTH 16 0
BBX 11 10 2 0
BITMAP
8E20
5140
A4A0
64C0
A4A0
60C0
1100
1100
0A00
0400
ENDCHAR
STARTCHAR uni010641
ENCODING 67137
SWIDTH 1000 0
DWIDTH 16 0
BBX 9 9 3 0
BITMAP
0800
9480
5500
2200
2200
4100
4100
8080
FF80
ENDCHAR
STARTCHAR uni010642
ENCODING 67138
SWIDTH 500 0
DWIDTH 8 0
BBX 4 9 1 0
BITMAP
40
20
10
20
40
A0
10
20
40
ENDCHAR
STARTCHAR uni010643
ENCODING 67139
SWIDTH 1000 0
DWIDTH 16 0
BBX 11 11 2 0
BITMAP
00E0
3300
0BE0
8B00
B0E0
8000
B0E0
8B00
0BE0
3300
00E0
ENDCHAR
STARTCHAR uni010644
ENCODING 67140
SWIDTH 1000 0
DWIDTH 16 0
BBX 9 7 3 1
BITMAP
4000
A000
B800
8780
A080
8080
FF00
ENDCHAR
STARTCHAR uni010645
ENCODING 67141
SWIDTH 1000 0
DWIDTH 16 0
BBX 14 7 1 1
BITMAP
0800
1000
A000
7FFC
2024
182C
07F0
ENDCHAR
STARTCHAR uni010646
ENCODING 67142
SWIDTH 500 0
DWIDTH 8 0
BBX 4 10 1 0
BITMAP
E0
90
90
A0
90
90
A0
A0
90
80
ENDCHAR
STARTCHAR uni010647
ENCODING 67143
SWIDTH 1000 0
DWIDTH 16 0
BBX 10 12 2 0
BITMAP
0200
0200
C400
B400
8A00
B100
D100
1F00
2080
3F80
2080
30C0
ENDCHAR
STARTCHAR uni010648
ENCODING 67144
SWIDTH 1000 0
DWIDTH 16 0
BBX 11 11 2 0
BITMAP
0400
0400
FFE0
0400
2480
5140
5140
5140
8A20
8A20
FBE0
ENDCHAR
STARTCHAR uni010649
ENCODING 67145
SWIDTH 500 0
DWIDTH 8 0
BBX 5 10 1 0
BITMAP
F8
70
A8
A8
70
20
20
20
20
20
ENDCHAR
STARTCHAR uni01064A
ENCODING 67146
SWIDTH 500 0
DWIDTH 8 0
BBX 5 10 1 0
BITMAP
F8
00
F8
70
A8
A8
70
20
20
20
ENDCHAR
STARTCHAR uni01064B
ENCODING 67147
SWIDTH 1000 0
DWIDTH 16 0
BBX 13 10 1 0
BITMAP
0200
4510
A228
4010
1240
0A80
0200
0200
0200
0200
ENDCHAR
STARTCHAR uni01064C
ENCODING 67148
SWIDTH 1000 0
DWIDTH 16 0
BBX 8 10 3 0
BITMAP
04
0A
11
1F
51
B1
B1
51
11
1F
ENDCHAR
STARTCHAR uni01064D
ENCODING 67149
SWIDTH 1000 0
DWIDTH 16 0
BBX 11 10 2 0
BITMAP
FFE0
8000
8000
8000
FFE0
8420
8420
94A0
A520
8420
ENDCHAR
STARTCHAR uni01064E
ENCODING 67150
SWIDTH 1000 0
DWIDTH 16 0
BBX 11 10 2 0
BITMAP
FFE0
8000
8000
8000
FFE0
8020
8020
8020
8020
8020
ENDCHAR
STARTCHAR uni01064F
ENCODING 67151
SWIDTH 1000 0
DWIDTH 16 0
BBX 11 13 2 0
BITMAP
1100
0A00
0400
FFE0
8000
8000
8000
FFE0
88A0
88A0
88A0
88A0
88A0
ENDCHAR
STARTCHAR uni010650
ENCODING 67152
SWIDTH 1000 0
DWIDTH 16 0
BBX 9 10 3 0
BITMAP
FF80
8080
8080
C180
A280
A280
C180
8080
8080
FF80
ENDCHAR
STARTCHAR uni010651
ENCODING 67153
SWIDTH 500 0
DWIDTH 8 0
BBX 5 10 1 0
BITMAP
F8
20
70
20
20
20
20
70
20
F8
ENDCHAR
STARTCHAR uni010652
ENCODING 67154
SWIDTH 500 0
DWIDTH 8 0
BBX 6 10 1 0
BITMAP
E0
AC
94
84
88
90
90
88
84
FC
ENDCHAR
STARTCHAR uni010653
ENCODING 67155
SWIDTH 1000 0
DWIDTH 16 0
BBX 10 10 3 0
BITMAP
FC00
8400
8400
8400
FFC0
8440
8440
8480
8480
FF00
ENDCHAR
STARTCHAR uni010654
ENCODING 67156
SWIDTH 1000 0
DWIDTH 16 0
BBX 9 10 3 0
BITMAP
3E00
4100
8080
8080
8080
FF80
8400
8400
4800
3000
ENDCHAR
STARTCHAR uni010655
ENCODING 67157
SWIDTH 1000 0
DWIDTH 16 0
BBX 9 10 3 0
BITMAP
0780
0880
1080
1080
0880
0780
0280
0C80
3080
C080
ENDCHAR
STARTCHAR uni010656
ENCODING 67158
SWIDTH 500 0
DWIDTH 8 0
BBX 5 10 1 0
BITMAP
20
10
48
28
90
50
20
20
40
40
ENDCHAR
STARTCHAR uni010657
ENCODING 67159
SWIDTH 500 0
DWIDTH 8 0
BBX 4 11 2 0
BITMAP
10
20
80
30
80
A0
90
80
80
80
80
ENDCHAR
STARTCHAR uni010658
ENCODING 67160
SWIDTH 500 0
DWIDTH 8 0
BBX 7 10 0 0
BITMAP
10
38
54
92
10
10
10
10
10
10
ENDCHAR
STARTCHAR uni010659
ENCODING 67161
SWIDTH 500 0
DWIDTH 8 0
BBX 6 9 1 0
BITMAP
18
64
80
60
10
60
80
64
18
ENDCHAR
STARTCHAR uni01065A
ENCODING 67162
SWIDTH 1000 0
DWIDTH 16 0
BBX 10 10 2 0
BITMAP
7040
8080
8200
7080
0640
0900
0900
1080
1080
1080
ENDCHAR
STARTCHAR uni01065B
ENCODING 67163
SWIDTH 1000 0
DWIDTH 16 0
BBX 9 10 3 0
BITMAP
0800
0800
7F00
1C00
2A00
4900
7F00
8880
8880
8880
ENDCHAR
STARTCHAR uni01065C
ENCODING 67164
SWIDTH 1000 0
DWIDTH 16 0
BBX 10 9 2 0
BITMAP
01C0
0640
1840
6040
FFC0
6040
1840
0640
01C0
ENDCHAR
STARTCHAR uni01065D
ENCODING 67165
SWIDTH 1000 0
DWIDTH 16 0
BBX 11 11 2 0
BITMAP
1F00
2080
4040
8020
8020
8020
8020
8020
4040
2080
1F00
ENDCHAR
STARTCHAR uni01065E
ENCODING 67166
SWIDTH 1000 0
DWIDTH 16 0
BBX 11 12 3 -1
BITMAP
3E00
4100
8080
8080
8080
8080
8080
4100
3E00
4180
4060
2000
ENDCHAR
STARTCHAR uni01065F
ENCODING 67167
SWIDTH 1000 0
DWIDTH 16 0
BBX 11 11 2 0
BITMAP
1F00
2080
4040
8E20
9120
9120
9120
8E20
4040
2080
1F00
ENDCHAR
STARTCHAR uni010660
ENCODING 67168
SWIDTH 1000 0
DWIDTH 16 0
BBX 8 11 3 0
BITMAP
1F
21
6F
90
A0
A0
A0
90
6F
21
1F
ENDCHAR
STARTCHAR uni010661
ENCODING 67169
SWIDTH 1000 0
DWIDTH 16 0
BBX 13 10 1 0
BITMAP
0F80
1040
2020
4010
4010
8008
8888
8508
4510
38E0
ENDCHAR
STARTCHAR uni010662
ENCODING 67170
SWIDTH 500 0
DWIDTH 8 0
BBX 5 10 1 0
BITMAP
20
50
50
50
88
88
F8
20
20
70
ENDCHAR
STARTCHAR uni010663
ENCODING 67171
SWIDTH 1000 0
DWIDTH 16 0
BBX 10 10 2 0
BITMAP
3000
4000
8000
9000
0800
0400
0200
0100
0080
0040
ENDCHAR
STARTCHAR uni010664
ENCODING 67172
SWIDTH 1000 0
DWIDTH 16 0
BBX 12 5 2 3
BITMAP
0060
0010
FFD0
0010
0060
ENDCHAR
STARTCHAR uni010665
ENCODING 67173
SWIDTH 1000 0
DWIDTH 16 0
BBX 10 10 4 0
BITMAP
8000
4000
2000
1000
0800
0400
0240
0040
0080
0300
ENDCHAR
STARTCHAR uni010666
ENCODING 67174
SWIDTH 1000 0
DWIDTH 16 0
BBX 12 10 2 0
BITMAP
CCC0
2220
1110
1110
2220
4440
8880
9100
5200
3E00
ENDCHAR
STARTCHAR uni010667
ENCODING 67175
SWIDTH 500 0
DWIDTH 8 0
BBX 6 10 1 0
BITMAP
10
90
50
20
30
48
40
84
88
70
ENDCHAR
STARTCHAR uni010668
ENCODING 67176
SWIDTH 1000 0
DWIDTH 16 0
BBX 7 12 4 0
BITMAP
12
24
00
FC
80
A4
92
80
80
80
80
80
ENDCHAR
STARTCHAR uni010669
ENCODING 67177
SWIDTH 1000 0
DWIDTH 16 0
BBX 11 10 2 0
BITMAP
0400
0400
FFE0
8420
8420
8420
FFE0
0400
0400
0400
ENDCHAR
STARTCHAR uni01066A
ENCODING 67178
SWIDTH 500 0
DWIDTH 8 0
BBX 5 10 1 0
BITMAP
F8
88
88
50
50
20
50
50
88
88
ENDCHAR
STARTCHAR uni01066B
ENCODING 67179
SWIDTH 500 0
DWIDTH 8 0
BBX 5 10 1 0
BITMAP
F8
20
20
20
20
20
20
20
20
F8
ENDCHAR
STARTCHAR uni01066C
ENCODING 67180
SWIDTH 500 0
DWIDTH 8 0
BBX 7 10 0 0
BITMAP
38
44
44
44
38
28
44
44
82
82
ENDCHAR
STARTCHAR uni01066D
ENCODING 67181
SWIDTH 1000 0
DWIDTH 16 0
BBX 13 12 1 0
BITMAP
0700
18C0
A228
F278
A028
F278
A228
3FE0
0200
0200
0200
0F80
ENDCHAR
STARTCHAR uni01066E
ENCODING 67182
SWIDTH 1000 0
DWIDTH 16 0
BBX 11 10 2 0
BITMAP
0E00
1100
1100
1100
1100
7FC0
8020
8020
8020
7FC0
ENDCHAR
STARTCHAR uni01066F
ENCODING 67183
SWIDTH 1000 0
DWIDTH 16 0
BBX 9 10 3 0
BITMAP
0800
0800
1C00
2A00
2A00
4900
4900
8880
8880
FF80
ENDCHAR
STARTCHAR uni010670
ENCODING 67184
SWIDTH 1000 0
DWIDTH 16 0
BBX 9 10 3 0
BITMAP
3800
4400
8400
0880
0F00
1100
1E00
2200
2000
1000
ENDCHAR
STARTCHAR uni010671
ENCODING 67185
SWIDTH 500 0
DWIDTH 8 0
BBX 5 10 1 0
BITMAP
70
88
88
88
70
20
20
20
20
F8
ENDCHAR
STARTCHAR uni010672
ENCODING 67186
SWIDTH 500 0
DWIDTH 8 0
BBX 5 10 1 0
BITMAP
70
A8
A8
A8
70
20
20
20
20
20
ENDCHAR
STARTCHAR uni010673
ENCODING 67187
SWIDTH 500 0
DWIDTH 8 0
BBX 7 12 0 -1
BITMAP
80
FE
92
92
FE
92
92
FE
92
92
FE
80
ENDCHAR
STARTCHAR uni010674
ENCODING 67188
SWIDTH 1000 0
DWIDTH 16 0
BBX 13 10 1 0
BITMAP
0F80
2220
4210
A228
1240
0200
0200
0200
0200
0200
ENDCHAR
STARTCHAR uni010675
ENCODING 67189
SWIDTH 1000 0
DWIDTH 16 0
BBX 10 10 3 0
BITMAP
71C0
8E00
8800
8E00
71C0
2000
2000
2000
2000
2000
ENDCHAR
STARTCHAR uni010676
ENCODING 67190
SWIDTH 1000 0
DWIDTH 16 0
BBX 13 9 1 0
BITMAP
8FF8
8C10
5420
5440
2480
5440
5420
8C10
8FF8
ENDCHAR
STARTCHAR uni010677
ENCODING 67191
SWIDTH 1000 0
DWIDTH 16 0
BBX 9 10 3 0
BITMAP
FF80
8880
AA80
8880
8880
FF80
8880
AA80
8880
8880
ENDCHAR
STARTCHAR uni010678
ENCODING 67192
SWIDTH 500 0
DWIDTH 8 0
BBX 5 10 1 0
BITMAP
20
10
08
08
90
50
20
20
40
40
ENDCHAR
STARTCHAR uni010679
ENCODING 67193
SWIDTH 1000 0
DWIDTH 16 0
BBX 9 11 3 0
BITMAP
8080
5D00
2200
2200
2200
1C00
3E00
0800
0800
0800
0800
ENDCHAR
STARTCHAR uni01067A
ENCODING 67194
SWIDTH 1000 0
DWIDTH 16 0
BBX 8 11 4 0
BITMAP
01
7A
84
05
26
48
FE
10
20
40
F0
ENDCHAR
STARTCHAR uni01067B
ENCODING 67195
SWIDTH 1000 0
DWIDTH 16 0
BBX 14 10 1 0
BITMAP
7FFC
4004
4444
1110
0000
4440
0100
8100
8200
FF80
ENDCHAR
STARTCHAR uni01067C
ENCODING 67196
SWIDTH 1000 0
DWIDTH 16 0
BBX 11 10 2 0
BITMAP
5000
A800
BE00
4100
51C0
4020
4020
42C0
4200
7E00
ENDCHAR
STARTCHAR uni01067D
ENCODING 67197
SWIDTH 1000 0
DWIDTH 16 0
BBX 7 10 4 0
BITMAP
78
84
04
E4
88
FE
10
20
40
80
ENDCHAR
STARTCHAR uni01067E
ENCODING 67198
SWIDTH 1000 0
DWIDTH 16 0
BBX 10 10 2 0
BITMAP
0FC0
0840
0840
0840
0840
0840
1840
2040
4040
FFC0
ENDCHAR
STARTCHAR uni01067F
ENCODING 67199
SWIDTH 500 0
DWIDTH 8 0
BBX 5 10 1 0
BITMAP
88
50
50
20
50
50
88
88
88
70
ENDCHAR
STARTCHAR uni010680
ENCODING 67200
SWIDTH 1000 0
DWIDTH 16 0
BBX 12 10 2 0
BITMAP
3E00
4100
8000
87F0
0010
0010
87F0
8000
4100
3E00
ENDCHAR
STARTCHAR uni010681
ENCODING 67201
SWIDTH 1000 0
DWIDTH 16 0
BBX 14 10 1 0
BITMAP
00C0
0120
0120
3920
4520
8100
8238
80C4
4304
3C78
ENDCHAR
STARTCHAR uni010682
ENCODING 67202
SWIDTH 1000 0
DWIDTH 16 0
BBX 13 10 1 0
BITMAP
0700
0880
1040
2020
2020
7070
0000
A8A8
A8A8
A8A8
ENDCHAR
STARTCHAR uni010683
ENCODING 67203
SWIDTH 1000 0
DWIDTH 16 0
BBX 11 11 2 0
BITMAP
A0A0
4040
AEA0
1100
1100
1100
0A00
0400
0A00
1100
2080
ENDCHAR
STARTCHAR uni010684
ENCODING 67204
SWIDTH 1000 0
DWIDTH 16 0
BBX 15 11 0 0
BITMAP
0010
0038
0010
3BB8
4444
8002
7FFC
5454
5454
5294
F11E
ENDCHAR
STARTCHAR uni010685
ENCODING 67205
SWIDTH 500 0
DWIDTH 8 0
BBX 7 11 0 0
BITMAP
BA
44
AA
92
AA
44
BA
10
10
1C
10
ENDCHAR
STARTCHAR uni010686
ENCODING 67206
SWIDTH 500 0
DWIDTH 8 0
BBX 6 9 1 0
BITMAP
80
80
80
FC
84
84
84
84
FC
ENDCHAR
STARTCHAR uni010687
ENCODING 67207
SWIDTH 1000 0
DWIDTH 16 0
BBX 10 11 3 0
BITMAP
BA00
4400
ABC0
9200
83C0
4400
3800
1000
1000
1000
1000
ENDCHAR
STARTCHAR uni010688
ENCODING 67208
SWIDTH 1000 0
DWIDTH 16 0
BBX 13 13 1 0
BITMAP
0300
0080
0200
0270
0488
0928
0840
0480
1B00
6000
8000
8000
4000
ENDCHAR
STARTCHAR uni010689
ENCODING 67209
SWIDTH 500 0
DWIDTH 8 0
BBX 5 10 1 0
BITMAP
70
88
80
40
30
08
70
80
40
20
ENDCHAR
STARTCHAR uni01068A
ENCODING 67210
SWIDTH 1000 0
DWIDTH 16 0
BBX 11 10 2 0
BITMAP
0200
0200
07C0
0300
2480
4480
4840
8840
9020
1020
ENDCHAR
STARTCHAR uni01068B
ENCODING 67211
SWIDTH 1000 0
DWIDTH 16 0
BBX 9 10 3 0
BITMAP
3000
4000
8F80
8000
4000
3000
0C00
2200
2200
0400
ENDCHAR
STARTCHAR uni01068C
ENCODING 67212
SWIDTH 500 0
DWIDTH 8 0
BBX 5 11 1 0
BITMAP
20
20
00
F8
88
50
20
50
50
88
88
ENDCHAR
STARTCHAR uni01068D
ENCODING 67213
SWIDTH 1000 0
DWIDTH 16 0
BBX 13 6 1 1
BITMAP
3800
2600
4180
4160
8218
FFF8
ENDCHAR
STARTCHAR uni01068E
ENCODING 67214
SWIDTH 1000 0
DWIDTH 16 0
BBX 10 10 2 0
BITMAP
3F80
0400
0400
0440
17C0
2440
0400
8400
0400
0400
ENDCHAR
STARTCHAR uni01068F
ENCODING 67215
SWIDTH 1000 0
DWIDTH 16 0
BBX 11 10 2 0
BITMAP
8080
4100
22A0
1440
0880
0800
0800
0800
0800
0800
ENDCHAR
STARTCHAR uni010690
ENCODING 67216
SWIDTH 1000 0
DWIDTH 16 0
BBX 10 10 3 0
BITMAP
F000
8C00
8200
FD00
0500
0880
0880
1040
1040
1FC0
ENDCHAR
STARTCHAR uni010691
ENCODING 67217
SWIDTH 1000 0
DWIDTH 16 0
BBX 11 13 3 -1
BITMAP
3000
0800
0800
1F00
3080
3280
2840
47E0
F040
4440
5A40
61C0
4000
ENDCHAR
STARTCHAR uni010692
ENCODING 67218
SWIDTH 500 0
DWIDTH 8 0
BBX 7 10 0 0
BITMAP
90
50
30
10
18
14
12
14
18
10
ENDCHAR
STARTCHAR uni010693
ENCODING 67219
SWIDTH 1000 0
DWIDTH 16 0
BBX 11 10 2 0
BITMAP
0100
3FC0
4120
A000
9000
8800
9000
A000
4040
3FC0
ENDCHAR
STARTCHAR uni010694
ENCODING 67220
SWIDTH 1000 0
DWIDTH 16 0
BBX 12 6 2 2
BITMAP
FFF0
8410
8410
8410
8410
FFF0
ENDCHAR
STARTCHAR uni010695
ENCODING 67221
SWIDTH 1000 0
DWIDTH 16 0
BBX 13 10 1 0
BITMAP
C898
2520
1740
1040
1FC0
0200
0200
0200
0200
0F80
ENDCHAR
STARTCHAR uni010696
ENCODING 67222
SWIDTH 500 0
DWIDTH 8 0
BBX 7 12 0 0
BITMAP
2A
2A
2A
1C
22
E2
22
1C
08
1C
08
3E
ENDCHAR
STARTCHAR uni010697
ENCODING 67223
SWIDTH 1000 0
DWIDTH 16 0
BBX 14 10 1 0
BITMAP
3E00
0800
7F1C
88E4
8804
88E4
7F1C
0800
0800
3E00
ENDCHAR
STARTCHAR uni010698
ENCODING 67224
SWIDTH 1000 0
DWIDTH 16 0
BBX 14 10 1 0
BITMAP
7010
88C8
0308
3804
4204
3804
0B08
08C8
0810
0800
ENDCHAR
STARTCHAR uni010699
ENCODING 67225
SWIDTH 500 0
DWIDTH 8 0
BBX 7 10 0 0
BITMAP
38
54
92
92
10
10
16
18
16
18
ENDCHAR
STARTCHAR uni01069A
ENCODING 67226
SWIDTH 1000 0
DWIDTH 16 0
BBX 9 12 3 0
BITMAP
1400
2200
0000
6300
9C80
0000
6300
9C80
0000
4100
4100
4100
ENDCHAR
STARTCHAR uni01069B
ENCODING 67227
SWIDTH 1000 0
DWIDTH 16 0
BBX 14 10 1 0
BITMAP
0300
0400
0918
E8A4
8884
8F84
8884
0880
0500
0200
ENDCHAR
STARTCHAR uni01069C
ENCODING 67228
SWIDTH 500 0
DWIDTH 8 0
BBX 7 10 0 0
BITMAP
7C
82
AA
82
12
54
10
10
10
10
ENDCHAR
STARTCHAR uni01069D
ENCODING 67229
SWIDTH 1000 0
DWIDTH 16 0
BBX 12 13 1 -1
BITMAP
0800
0800
09E0
0610
0010
0290
02A0
03C0
3E40
4220
8100
A800
2800
ENDCHAR
STARTCHAR uni01069E
ENCODING 67230
SWIDTH 500 0
DWIDTH 8 0
BBX 6 10 1 0
BITMAP
FC
84
84
84
84
FC
80
80
80
80
ENDCHAR
STARTCHAR uni01069F
ENCODING 67231
SWIDTH 1000 0
DWIDTH 16 0
BBX 12 10 2 0
BITMAP
1F00
0400
1400
25F0
0400
0400
2480
9F20
4440
3F80
ENDCHAR
STARTCHAR uni0106A0
ENCODING 67232
SWIDTH 1000 0
DWIDTH 16 0
BBX 9 10 3 0
BITMAP
FF80
8080
4100
4100
2200
2200
1400
1400
0800
FF80
ENDCHAR
STARTCHAR uni0106A1
ENCODING 67233
SWIDTH 1000 0
DWIDTH 16 0
BBX 13 10 1 0
BITMAP
3FE0
2020
2020
2020
1040
F078
1040
0880
0880
1FC0
ENDCHAR
STARTCHAR uni0106A2
ENCODING 67234
SWIDTH 1000 0
DWIDTH 16 0
BBX 9 10 3 0
BITMAP
FF80
8080
8080
8080
4100
4100
4100
2200
2200
3E00
ENDCHAR
STARTCHAR uni0106A3
ENCODING 67235
SWIDTH 1000 0
DWIDTH 16 0
BBX 9 10 3 0
BITMAP
FF80
8080
8080
8080
4100
4100
4100
3E00
2200
3E00
ENDCHAR
STARTCHAR uni0106A4
ENCODING 67236
SWIDTH 1000 0
DWIDTH 16 0
BBX 11 10 2 0
BITMAP
3FE0
2020
2020
6020
9040
7040
1040
0880
0880
0F80
ENDCHAR
STARTCHAR uni0106A5
ENCODING 67237
SWIDTH 1000 0
DWIDTH 16 0
BBX 13 10 1 0
BITMAP
3FE0
2020
2020
6030
9048
7070
1040
0880
0880
0F80
ENDCHAR
STARTCHAR uni0106A6
ENCODING 67238
SWIDTH 1000 0
DWIDTH 16 0
BBX 13 10 1 0
BITMAP
0F80
1040
2020
3FE0
6030
9048
7070
1040
0880
0F80
ENDCHAR
STARTCHAR uni0106A7
ENCODING 67239
SWIDTH 1000 0
DWIDTH 16 0
BBX 9 11 3 0
BITMAP
4100
A280
A280
FF80
8080
8080
4100
4100
4100
2200
3E00
ENDCHAR
STARTCHAR uni0106A8
ENCODING 67240
SWIDTH 1000 0
DWIDTH 16 0
BBX 11 10 2 0
BITMAP
7FC0
2080
60C0
9120
71C0
0A00
1A00
2600
4900
4900
ENDCHAR
STARTCHAR uni0106A9
ENCODING 67241
SWIDTH 1000 0
DWIDTH 16 0
BBX 9 10 3 0
BITMAP
FF80
8080
8080
4100
3E00
3E00
4900
8880
8880
8880
ENDCHAR
STARTCHAR uni0106AA
ENCODING 67242
SWIDTH 1000 0
DWIDTH 16 0
BBX 9 12 3 0
BITMAP
4100
A280
A280
FF80
8080
8080
4100
3E00
3E00
4900
8880
8880
ENDCHAR
STARTCHAR uni0106AB
ENCODING 67243
SWIDTH 1000 0
DWIDTH 16 0
BBX 13 10 1 0
BITMAP
3FE0
2020
E038
1040
0F80
0F80
1240
2220
2220
2220
ENDCHAR
STARTCHAR uni0106AC
ENCODING 67244
SWIDTH 1000 0
DWIDTH 16 0
BBX 9 11 3 0
BITMAP
1E00
7200
9200
5200
2100
4080
4080
4080
2100
1200
1E00
ENDCHAR
STARTCHAR uni0106AD
ENCODING 67245
SWIDTH 1000 0
DWIDTH 16 0
BBX 13 10 1 0
BITMAP
7FF8
9010
9010
7010
0820
0820
0440
0440
0440
07C0
ENDCHAR
STARTCHAR uni0106AE
ENCODING 67246
SWIDTH 1000 0
DWIDTH 16 0
BBX 12 10 1 0
BITMAP
7FC0
8880
8880
7060
4010
4010
2020
2020
1040
1FC0
ENDCHAR
STARTCHAR uni0106AF
ENCODING 67247
SWIDTH 1000 0
DWIDTH 16 0
BBX 11 10 2 0
BITMAP
3F80
1100
1100
60C0
8020
8020
4040
4040
2080
3F80
ENDCHAR
STARTCHAR uni0106B0
ENCODING 67248
SWIDTH 1000 0
DWIDTH 16 0
BBX 11 10 2 0
BITMAP
3F80
1100
1100
60C0
8E20
9120
5140
4040
2080
3F80
ENDCHAR
STARTCHAR uni0106B1
ENCODING 67249
SWIDTH 1000 0
DWIDTH 16 0
BBX 9 11 3 0
BITMAP
4100
A280
A280
FF80
AA80
9480
6B00
5500
6B00
3600
3E00
ENDCHAR
STARTCHAR uni0106B2
ENCODING 67250
SWIDTH 1000 0
DWIDTH 16 0
BBX 11 13 3 -1
BITMAP
E000
1000
0800
0800
1600
A180
C860
8020
2240
4580
8800
5000
2000
ENDCHAR
STARTCHAR uni0106B3
ENCODING 67251
SWIDTH 500 0
DWIDTH 8 0
BBX 5 10 1 0
BITMAP
88
90
A0
C0
80
80
90
B8
90
80
ENDCHAR
STARTCHAR uni0106B4
ENCODING 67252
SWIDTH 1000 0
DWIDTH 16 0
BBX 12 12 1 -1
BITMAP
1110
1110
1110
1FF0
1000
9200
9200
7C00
1000
1E00
1000
1000
ENDCHAR
STARTCHAR uni0106B5
ENCODING 67253
SWIDTH 1000 0
DWIDTH 16 0
BBX 11 10 2 0
BITMAP
01E0
0220
8420
9420
A220
C1E0
80A0
8320
0C20
F020
ENDCHAR
STARTCHAR uni0106B6
ENCODING 67254
SWIDTH 1000 0
DWIDTH 16 0
BBX 11 10 1 0
BITMAP
1000
1000
1000
FE00
1000
1080
1080
1FE0
1080
1080
ENDCHAR
STARTCHAR uni0106B7
ENCODING 67255
SWIDTH 1000 0
DWIDTH 16 0
BBX 11 10 1 0
BITMAP
1000
1000
1000
FE00
1000
FE80
1080
1FE0
1080
1080
ENDCHAR
STARTCHAR uni0106B8
ENCODING 67256
SWIDTH 1000 0
DWIDTH 16 0
BBX 13 11 1 -1
BITMAP
FE00
0000
9200
9200
00E0
1110
12A8
1208
1248
1110
10E0
ENDCHAR
STARTCHAR uni0106B9
ENCODING 67257
SWIDTH 1000 0
DWIDTH 16 0
BBX 7 11 4 0
BITMAP
92
54
38
10
FE
82
54
28
10
10
7C
ENDCHAR
STARTCHAR uni0106BA
ENCODING 67258
SWIDTH 1000 0
DWIDTH 16 0
BBX 13 11 2 0
BITMAP
8230
4408
2808
1010
FFE0
8150
5250
2A50
1000
1000
7C00
ENDCHAR
STARTCHAR uni0106BB
ENCODING 67259
SWIDTH 1000 0
DWIDTH 16 0
BBX 13 11 2 0
BITMAP
0030
0008
0008
0010
FFE0
8150
5250
2A50
1000
1000
7C00
ENDCHAR
STARTCHAR uni0106BC
ENCODING 67260
SWIDTH 1000 0
DWIDTH 16 0
BBX 15 11 0 0
BITMAP
8280
4440
2840
10AA
FFAA
835C
5548
2D48
1000
1000
7C00
ENDCHAR
STARTCHAR uni0106BD
ENCODING 67261
SWIDTH 1000 0
DWIDTH 16 0
BBX 10 10 2 0
BITMAP
7800
8400
8400
7FC0
0400
1500
2480
1F00
0400
0400
ENDCHAR
STARTCHAR uni0106BE
ENCODING 67262
SWIDTH 1000 0
DWIDTH 16 0
BBX 15 11 0 -1
BITMAP
3398
4D64
8102
0510
0908
0104
07C8
0114
07C2
0104
0108
ENDCHAR
STARTCHAR uni0106BF
ENCODING 67263
SWIDTH 1000 0
DWIDTH 16 0
BBX 10 10 3 0
BITMAP
1240
1240
1240
1FC0
1000
5400
9200
7C00
1000
1000
ENDCHAR
STARTCHAR uni0106C0
ENCODING 67264
SWIDTH 1000 0
DWIDTH 16 0
BBX 14 13 1 -1
BITMAP
4104
4384
5D74
610C
5D74
4384
7FFC
8000
8000
7FFC
0200
0200
0200
ENDCHAR
STARTCHAR uni0106C1
ENCODING 67265
SWIDTH 1000 0
DWIDTH 16 0
BBX 12 10 1 0
BITMAP
A8F0
A910
AA10
FA10
8110
F8F0
2050
2190
0610
F810
ENDCHAR
STARTCHAR uni0106C2
ENCODING 67266
SWIDTH 1000 0
DWIDTH 16 0
BBX 11 11 1 -1
BITMAP
7880
8440
8400
7FE0
0500
0480
2440
1480
0540
0480
0500
ENDCHAR
STARTCHAR uni0106C3
ENCODING 67267
SWIDTH 1000 0
DWIDTH 16 0
BBX 9 10 3 0
BITMAP
8080
8080
FF80
8880
8880
0800
1C00
2A00
4900
8880
ENDCHAR
STARTCHAR uni0106C4
ENCODING 67268
SWIDTH 1000 0
DWIDTH 16 0
BBX 14 10 1 0
BITMAP
07F0
0890
0690
0108
0204
0204
0204
2108
5090
88F0
ENDCHAR
STARTCHAR uni0106C5
ENCODING 67269
SWIDTH 1000 0
DWIDTH 16 0
BBX 11 10 2 0
BITMAP
8020
2A80
0000
0E00
1100
7FC0
2080
71C0
2080
2080
ENDCHAR
STARTCHAR uni0106C6
ENCODING 67270
SWIDTH 1000 0
DWIDTH 16 0
BBX 9 11 3 0
BITMAP
1C00
2A00
3E00
2A00
1C00
1C00
2200
FF80
4100
E380
4100
ENDCHAR
STARTCHAR uni0106C7
ENCODING 67271
SWIDTH 1000 0
DWIDTH 16 0
BBX 14 10 1 0
BITMAP
0180
0E3C
1A64
EAA4
A8A4
A0FC
8124
0124
0124
01FC
ENDCHAR
STARTCHAR uni0106C8
ENCODING 67272
SWIDTH 1000 0
DWIDTH 16 0
BBX 9 11 3 -1
BITMAP
FF80
0000
8880
8880
8880
0000
2A00
4900
3E00
0800
0800
ENDCHAR
STARTCHAR uni0106C9
ENCODING 67273
SWIDTH 1000 0
DWIDTH 16 0
BBX 10 10 2 0
BITMAP
1240
1240
1240
1FC0
1000
5400
9200
7C00
1000
1000
ENDCHAR
STARTCHAR uni0106CA
ENCODING 67274
SWIDTH 1000 0
DWIDTH 16 0
BBX 13 11 2 0
BITMAP
00C0
E120
1140
1190
FF20
10C8
5410
9208
7C10
1000
1000
ENDCHAR
STARTCHAR uni0106CB
ENCODING 67275
SWIDTH 1000 0
DWIDTH 16 0
BBX 16 11 0 0
BITMAP
00C0
7120
8940
8990
7F20
08C4
2A2E
495A
3E2E
084A
081F
ENDCHAR
STARTCHAR uni0106CC
ENCODING 67276
SWIDTH 1000 0
DWIDTH 16 0
BBX 9 12 3 -1
BITMAP
FF80
8080
A280
8880
4100
7F00
0800
2A00
4900
3E00
0800
0800
ENDCHAR
STARTCHAR uni0106CD
ENCODING 67277
SWIDTH 1000 0
DWIDTH 16 0
BBX 13 13 1 -2
BITMAP
0020
7820
8420
0200
02F8
0200
0450
0450
0888
0888
0000
0AA0
2008
ENDCHAR
STARTCHAR uni0106CE
ENCODING 67278
SWIDTH 1000 0
DWIDTH 16 0
BBX 11 13 2 -1
BITMAP
0400
0200
0500
0200
0500
0200
0400
FFE0
8020
8020
FFE0
8420
8420
ENDCHAR
STARTCHAR uni0106CF
ENCODING 67279
SWIDTH 1000 0
DWIDTH 16 0
BBX 11 12 2 -1
BITMAP
FFE0
8020
8420
8A20
9F20
8420
8E20
8020
FFE0
8420
8420
8420
ENDCHAR
STARTCHAR uni0106D0
ENCODING 67280
SWIDTH 1000 0
DWIDTH 16 0
BBX 13 13 1 -1
BITMAP
0700
0880
1040
1540
1040
1240
0880
0700
FFF8
2220
2220
2220
FFF8
ENDCHAR
STARTCHAR uni0106D1
ENCODING 67281
SWIDTH 1000 0
DWIDTH 16 0
BBX 9 12 3 -1
BITMAP
2200
4100
4900
3600
FF80
8080
FF80
8080
8080
FF80
8080
FF80
ENDCHAR
STARTCHAR uni0106D2
ENCODING 67282
SWIDTH 1000 0
DWIDTH 16 0
BBX 9 13 3 -1
BITMAP
1C00
2A00
3E00
2A00
1C00
FF80
8080
FF80
8080
8080
FF80
8080
FF80
ENDCHAR
STARTCHAR uni0106D3
ENCODING 67283
SWIDTH 1000 0
DWIDTH 16 0
BBX 14 10 1 0
BITMAP
FCF0
8408
8484
BC44
8104
8088
8030
80C0
8300
FC00
ENDCHAR
STARTCHAR uni0106D4
ENCODING 67284
SWIDTH 1000 0
DWIDTH 16 0
BBX 10 12 3 0
BITMAP
0380
8540
87C0
8540
8380
8000
8380
8440
8400
8380
8080
FF80
ENDCHAR
STARTCHAR uni0106D5
ENCODING 67285
SWIDTH 1000 0
DWIDTH 16 0
BBX 15 11 0 -1
BITMAP
8400
DF00
9500
9538
DF44
8482
8CAA
9482
A492
C444
8438
ENDCHAR
STARTCHAR uni0106D6
ENCODING 67286
SWIDTH 1000 0
DWIDTH 16 0
BBX 13 11 1 0
BITMAP
7880
8440
8400
7FF8
0400
0600
07C0
0C40
0780
0480
0780
ENDCHAR
STARTCHAR uni0106D7
ENCODING 67287
SWIDTH 500 0
DWIDTH 8 0
BBX 7 10 0 0
BITMAP
10
10
7C
10
7E
92
54
38
10
FE
ENDCHAR
STARTCHAR uni0106D8
ENCODING 67288
SWIDTH 1000 0
DWIDTH 16 0
BBX 10 11 3 0
BITMAP
8000
8000
8000
8000
8000
9F00
A080
C040
FFC0
C040
FFC0
ENDCHAR
STARTCHAR uni0106D9
ENCODING 67289
SWIDTH 1000 0
DWIDTH 16 0
BBX 10 11 3 0
BITMAP
A000
8000
9000
8400
8100
BC40
C200
8100
FF00
8100
FF00
ENDCHAR
STARTCHAR uni0106DA
ENCODING 67290
SWIDTH 1000 0
DWIDTH 16 0
BBX 10 11 3 0
BITMAP
A080
C440
CE40
B580
8400
9F00
A080
C040
FFC0
C040
FFC0
ENDCHAR
STARTCHAR uni0106DB
ENCODING 67291
SWIDTH 1000 0
DWIDTH 16 0
BBX 10 12 3 0
BITMAP
A480
A480
BF80
A000
9F80
8400
9F00
A080
C040
FFC0
C040
FFC0
ENDCHAR
STARTCHAR uni0106DC
ENCODING 67292
SWIDTH 1000 0
DWIDTH 16 0
BBX 10 11 3 0
BITMAP
8E00
9500
9F00
9500
8E00
9F00
A080
C040
FFC0
C040
FFC0
ENDCHAR
STARTCHAR uni0106DD
ENCODING 67293
SWIDTH 1000 0
DWIDTH 16 0
BBX 13 10 0 0
BITMAP
8078
8088
8508
AD08
A488
B478
8828
70C8
0308
7C08
ENDCHAR
STARTCHAR uni0106DE
ENCODING 67294
SWIDTH 1000 0
DWIDTH 16 0
BBX 11 10 2 0
BITMAP
8020
8020
FFE0
8420
8420
1F00
2480
3F80
2480
1F00
ENDCHAR
STARTCHAR uni0106DF
ENCODING 67295
SWIDTH 1000 0
DWIDTH 16 0
BBX 14 11 1 -1
BITMAP
01FC
0070
00A8
38A8
44A8
8270
AA20
8270
9220
4470
3820
ENDCHAR
STARTCHAR uni0106E0
ENCODING 67296
SWIDTH 1000 0
DWIDTH 16 0
BBX 11 11 2 -1
BITMAP
8020
4440
2A80
0A00
0A00
1100
1100
1F00
0000
2A80
8020
ENDCHAR
STARTCHAR uni0106E1
ENCODING 67297
SWIDTH 1000 0
DWIDTH 16 0
BBX 9 11 3 0
BITMAP
8080
8080
FF80
8880
8880
0800
8880
5500
2200
4100
7F00
ENDCHAR
STARTCHAR uni0106E2
ENCODING 67298
SWIDTH 1000 0
DWIDTH 16 0
BBX 9 10 3 0
BITMAP
4100
8880
9C80
6B00
0800
8880
5500
2200
4100
7F00
ENDCHAR
STARTCHAR uni0106E3
ENCODING 67299
SWIDTH 1000 0
DWIDTH 16 0
BBX 9 11 4 0
BITMAP
8880
5500
2200
4100
7F00
0000
8880
5500
2200
4100
7F00
ENDCHAR
STARTCHAR uni0106E4
ENCODING 67300
SWIDTH 1000 0
DWIDTH 16 0
BBX 11 14 2 -1
BITMAP
0800
0400
0200
0100
0200
0400
0A00
0100
0200
0400
0800
0000
2A80
8020
ENDCHAR
STARTCHAR uni0106E5
ENCODING 67301
SWIDTH 1000 0
DWIDTH 16 0
BBX 15 10 0 0
BITMAP
0038
0028
003E
002A
883E
5000
3FFE
2012
101E
0FE0
ENDCHAR
STARTCHAR uni0106E6
ENCODING 67302
SWIDTH 1000 0
DWIDTH 16 0
BBX 15 10 0 0
BITMAP
001E
0012
0012
00FE
8892
5092
3FFE
2012
101E
0FE0
ENDCHAR
STARTCHAR uni0106E7
ENCODING 67303
SWIDTH 1000 0
DWIDTH 16 0
BBX 14 11 1 0
BITMAP
0438
E454
9FFC
8454
9A38
EA00
1F00
1100
1F00
2080
30C0
ENDCHAR
STARTCHAR uni0106E8
ENCODING 67304
SWIDTH 1000 0
DWIDTH 16 0
BBX 14 11 1 0
BITMAP
0810
C810
BFFC
8810
B428
D428
3E7C
2244
3E7C
4144
61C4
ENDCHAR
STARTCHAR uni0106E9
ENCODING 67305
SWIDTH 1000 0
DWIDTH 16 0
BBX 13 12 1 0
BITMAP
6000
8080
BC80
8B80
6880
0B40
0D40
03E0
0220
03E0
0410
0618
ENDCHAR
STARTCHAR uni0106EA
ENCODING 67306
SWIDTH 1000 0
DWIDTH 16 0
BBX 12 11 2 0
BITMAP
0820
C810
BFD0
8810
B420
D400
3E00
2200
3E00
4100
6180
ENDCHAR
STARTCHAR uni0106EB
ENCODING 67307
SWIDTH 1000 0
DWIDTH 16 0
BBX 13 11 1 0
BITMAP
0800
C800
BE10
8988
B468
D408
3E10
2200
3E00
4100
6180
ENDCHAR
STARTCHAR uni0106EC
ENCODING 67308
SWIDTH 500 0
DWIDTH 8 0
BBX 5 10 1 0
BITMAP
F8
70
A8
A8
A8
70
20
38
20
20
ENDCHAR
STARTCHAR uni0106ED
ENCODING 67309
SWIDTH 500 0
DWIDTH 8 0
BBX 5 11 1 -1
BITMAP
F8
70
A8
A8
70
20
F8
20
70
20
20
ENDCHAR
STARTCHAR uni0106EE
ENCODING 67310
SWIDTH 1000 0
DWIDTH 16 0
BBX 14 10 1 0
BITMAP
F800
7000
A800
A800
A9E0
7270
22A8
21F8
2124
2124
ENDCHAR
STARTCHAR uni0106EF
ENCODING 67311
SWIDTH 1000 0
DWIDTH 16 0
BBX 14 10 0 0
BITMAP
F800
7000
A888
A95C
AA28
7008
205C
2088
201C
2008
ENDCHAR
STARTCHAR uni0106F0
ENCODING 67312
SWIDTH 1000 0
DWIDTH 16 0
BBX 11 10 2 0
BITMAP
F800
7000
A800
AA20
ABE0
7220
23E0
2220
23E0
2220
ENDCHAR
STARTCHAR uni0106F1
ENCODING 67313
SWIDTH 1000 0
DWIDTH 16 0
BBX 13 10 1 0
BITMAP
F800
7000
A8E0
A910
AA08
72A8
2208
2248
2110
20E0
ENDCHAR
STARTCHAR uni0106F2
ENCODING 67314
SWIDTH 1000 0
DWIDTH 16 0
BBX 10 11 3 -1
BITMAP
F800
7000
A900
A880
A840
7080
2100
2280
2040
2080
2100
ENDCHAR
STARTCHAR uni0106F3
ENCODING 67315
SWIDTH 1000 0
DWIDTH 16 0
BBX 11 10 2 0
BITMAP
F800
7000
A800
A800
A880
7080
23E0
2080
2080
2000
ENDCHAR
STARTCHAR uni0106F4
ENCODING 67316
SWIDTH 1000 0
DWIDTH 16 0
BBX 10 10 3 0
BITMAP
F800
7000
A800
A980
AA40
7040
2080
2100
2200
2400
ENDCHAR
STARTCHAR uni0106F5
ENCODING 67317
SWIDTH 1000 0
DWIDTH 16 0
BBX 10 10 3 0
BITMAP
F800
7000
A800
A980
AA40
7040
2080
27C0
2200
2400
ENDCHAR
STARTCHAR uni0106F6
ENCODING 67318
SWIDTH 1000 0
DWIDTH 16 0
BBX 10 10 2 0
BITMAP
F800
7000
A800
A980
AA40
7040
2080
2100
2280
2440
ENDCHAR
STARTCHAR uni0106F7
ENCODING 67319
SWIDTH 1000 0
DWIDTH 16 0
BBX 13 10 1 0
BITMAP
F800
71C0
AA58
AA40
AA58
71C0
2000
2700
2200
2200
ENDCHAR
STARTCHAR uni0106F8
ENCODING 67320
SWIDTH 1000 0
DWIDTH 16 0
BBX 13 10 1 0
BITMAP
F800
7000
A800
A800
A9C0
7258
2240
2258
21C0
2000
ENDCHAR
STARTCHAR uni0106F9
ENCODING 67321
SWIDTH 1000 0
DWIDTH 16 0
BBX 13 11 1 -1
BITMAP
F9D8
7240
AA58
AA40
A9D8
7000
21D8
2240
2258
2240
21D8
ENDCHAR
STARTCHAR uni0106FA
ENCODING 67322
SWIDTH 1000 0
DWIDTH 16 0
BBX 14 12 1 0
BITMAP
0200
4508
A214
4008
1220
0A40
0000
1FC0
1240
0A80
0700
1FC0
ENDCHAR
STARTCHAR uni0106FB
ENCODING 67323
SWIDTH 1000 0
DWIDTH 16 0
BBX 11 14 2 -2
BITMAP
FFE0
8000
8000
FFE0
8420
9520
8E20
8420
9520
8E20
8420
9520
8E20
0400
ENDCHAR
STARTCHAR uni0106FC
ENCODING 67324
SWIDTH 1000 0
DWIDTH 16 0
BBX 12 12 2 0
BITMAP
FFF0
8000
8000
FFF0
8090
A290
9490
8890
8890
8890
8090
8090
ENDCHAR
STARTCHAR uni0106FD
ENCODING 67325
SWIDTH 1000 0
DWIDTH 16 0
BBX 15 12 0 0
BITMAP
FFBE
8022
803E
FFAA
88AA
8880
8880
AA80
CC80
8880
8880
8880
ENDCHAR
STARTCHAR uni0106FE
ENCODING 67326
SWIDTH 1000 0
DWIDTH 16 0
BBX 15 13 0 0
BITMAP
FFC0
8000
803E
8022
FFFE
842A
842A
8420
94A0
A520
8420
8420
8420
ENDCHAR
STARTCHAR uni0106FF
ENCODING 67327
SWIDTH 1000 0
DWIDTH 16 0
BBX 11 14 1 -1
BITMAP
0080
0900
0980
0F80
0000
FFE0
8000
8000
FFE0
8420
8420
94A0
A520
8420
ENDCHAR
STARTCHAR uni010700
ENCODING 67328
SWIDTH 1000 0
DWIDTH 16 0
BBX 11 12 2 0
BITMAP
0080
0900
0980
FFE0
8000
8000
FFE0
8420
8420
94A0
A520
8420
ENDCHAR
STARTCHAR uni010701
ENCODING 67329
SWIDTH 1000 0
DWIDTH 16 0
BBX 11 13 2 0
BITMAP
0E00
1500
1F00
1500
0E00
FFE0
8000
8000
FFE0
8420
94A0
A520
8420
ENDCHAR
STARTCHAR uni010702
ENCODING 67330
SWIDTH 1000 0
DWIDTH 16 0
BBX 13 10 1 0
BITMAP
FF00
8000
8000
FF00
A078
A0C8
A148
A1F8
A148
A148
ENDCHAR
STARTCHAR uni010703
ENCODING 67331
SWIDTH 1000 0
DWIDTH 16 0
BBX 14 10 1 0
BITMAP
FC00
8580
8280
8080
8110
C610
AA7C
9110
9090
FF80
ENDCHAR
STARTCHAR uni010704
ENCODING 67332
SWIDTH 1000 0
DWIDTH 16 0
BBX 14 10 1 0
BITMAP
FC00
8580
8280
808C
8130
C650
AA7C
9100
9080
FF80
ENDCHAR
STARTCHAR uni010705
ENCODING 67333
SWIDTH 1000 0
DWIDTH 16 0
BBX 13 10 1 0
BITMAP
F800
8B00
8500
8100
8220
8420
84F8
8220
8120
FF00
ENDCHAR
STARTCHAR uni010706
ENCODING 67334
SWIDTH 1000 0
DWIDTH 16 0
BBX 13 10 1 0
BITMAP
F800
8B00
8500
8118
8260
84A0
84F8
8200
8100
FF00
ENDCHAR
STARTCHAR uni010707
ENCODING 67335
SWIDTH 1000 0
DWIDTH 16 0
BBX 10 13 3 0
BITMAP
0100
0080
0040
0280
0100
0080
F900
8A00
8800
FF80
8880
8880
FF80
ENDCHAR
STARTCHAR uni010708
ENCODING 67336
SWIDTH 1000 0
DWIDTH 16 0
BBX 12 10 2 0
BITMAP
00F0
0110
0210
0210
0110
1FF0
2010
4F10
9090
9990
ENDCHAR
STARTCHAR uni010709
ENCODING 67337
SWIDTH 1000 0
DWIDTH 16 0
BBX 13 10 1 0
BITMAP
3800
44F8
0200
82A8
44A8
04A8
8800
4820
1020
1020
ENDCHAR
STARTCHAR uni01070A
ENCODING 67338
SWIDTH 1000 0
DWIDTH 16 0
BBX 8 11 1 -1
BITMAP
38
44
02
62
04
64
08
89
FF
91
10
ENDCHAR
STARTCHAR uni01070B
ENCODING 67339
SWIDTH 1000 0
DWIDTH 16 0
BBX 11 10 2 0
BITMAP
7000
8800
0400
C400
0880
C880
13E0
1080
2080
2000
ENDCHAR
STARTCHAR uni01070C
ENCODING 67340
SWIDTH 1000 0
DWIDTH 16 0
BBX 14 10 1 0
BITMAP
1838
0440
0890
D108
1244
CC20
0510
0480
0880
0800
ENDCHAR
STARTCHAR uni01070D
ENCODING 67341
SWIDTH 500 0
DWIDTH 8 0
BBX 6 12 1 0
BITMAP
70
88
04
C4
08
C8
10
7C
20
F8
40
E0
ENDCHAR
STARTCHAR uni01070E
ENCODING 67342
SWIDTH 1000 0
DWIDTH 16 0
BBX 9 10 3 0
BITMAP
1800
C400
0400
C400
0800
1400
FF80
2200
F780
4100
ENDCHAR
STARTCHAR uni01070F
ENCODING 67343
SWIDTH 500 0
DWIDTH 8 0
BBX 6 12 1 0
BITMAP
70
88
04
C4
08
C8
10
50
A0
40
80
F8
ENDCHAR
STARTCHAR uni010710
ENCODING 67344
SWIDTH 500 0
DWIDTH 8 0
BBX 7 12 0 0
BITMAP
70
88
04
C4
08
C8
1E
12
20
40
82
FE
ENDCHAR
STARTCHAR uni010711
ENCODING 67345
SWIDTH 500 0
DWIDTH 8 0
BBX 7 12 0 0
BITMAP
70
88
04
C4
08
C8
10
16
28
48
86
FE
ENDCHAR
STARTCHAR uni010712
ENCODING 67346
SWIDTH 1000 0
DWIDTH 16 0
BBX 15 10 0 0
BITMAP
3800
4400
0210
82A0
447E
04C2
893C
4824
1018
107E
ENDCHAR
STARTCHAR uni010713
ENCODING 67347
SWIDTH 1000 0
DWIDTH 16 0
BBX 15 10 0 0
BITMAP
7022
8814
0FF8
D40C
1212
D3F0
2120
2120
00C0
03F0
ENDCHAR
STARTCHAR uni010714
ENCODING 67348
SWIDTH 1000 0
DWIDTH 16 0
BBX 14 13 0 0
BITMAP
00E0
0140
03E0
7240
8A00
0814
D7F8
140C
D210
23F0
2120
00C0
01E0
ENDCHAR
STARTCHAR uni010715
ENCODING 67349
SWIDTH 1000 0
DWIDTH 16 0
BBX 14 13 0 0
BITMAP
0660
0678
0380
7230
8A00
0814
D7F8
140C
D210
23F0
2120
00C0
01E0
ENDCHAR
STARTCHAR uni010716
ENCODING 67350
SWIDTH 1000 0
DWIDTH 16 0
BBX 9 13 3 0
BITMAP
3800
4400
0200
3200
0200
3200
0400
FF80
4500
2A00
1C00
0800
7F00
ENDCHAR
STARTCHAR uni010717
ENCODING 67351
SWIDTH 1000 0
DWIDTH 16 0
BBX 11 12 2 0
BITMAP
7000
8800
0400
6400
0400
6400
0800
1040
2020
42A0
4220
3FC0
ENDCHAR
STARTCHAR uni010718
ENCODING 67352
SWIDTH 1000 0
DWIDTH 16 0
BBX 13 13 1 0
BITMAP
3800
4400
3400
0400
34F8
0800
10A8
7CA8
82A8
AA00
8220
9220
7C20
ENDCHAR
STARTCHAR uni010719
ENCODING 67353
SWIDTH 1000 0
DWIDTH 16 0
BBX 10 12 2 0
BITMAP
0C00
1000
4000
AE00
4000
1180
4C40
4040
4080
4100
4200
43C0
ENDCHAR
STARTCHAR uni01071A
ENCODING 67354
SWIDTH 1000 0
DWIDTH 16 0
BBX 10 12 2 0
BITMAP
0C00
1000
4000
AE00
4000
1180
4C40
4040
4080
4100
4200
4200
ENDCHAR
STARTCHAR uni01071B
ENCODING 67355
SWIDTH 1000 0
DWIDTH 16 0
BBX 12 12 2 0
BITMAP
0C00
1000
4000
AE00
4000
1000
4DF0
4040
4040
4040
4040
4040
ENDCHAR
STARTCHAR uni01071C
ENCODING 67356
SWIDTH 1000 0
DWIDTH 16 0
BBX 11 14 2 -2
BITMAP
0400
0E00
1500
2480
0400
7FC0
4040
7FC0
4040
7FC0
0000
0000
2A80
8020
ENDCHAR
STARTCHAR uni01071D
ENCODING 67357
SWIDTH 500 0
DWIDTH 8 0
BBX 7 10 0 0
BITMAP
10
38
54
92
10
7C
10
7C
10
10
ENDCHAR
STARTCHAR uni01071E
ENCODING 67358
SWIDTH 1000 0
DWIDTH 16 0
BBX 13 11 1 0
BITMAP
1480
5500
8100
8200
7E00
0400
0410
0808
08A8
1088
1FF0
ENDCHAR
STARTCHAR uni01071F
ENCODING 67359
SWIDTH 1000 0
DWIDTH 16 0
BBX 13 10 1 0
BITMAP
1078
3888
1108
3908
5488
5478
7C18
9228
9248
9388
ENDCHAR
STARTCHAR uni010720
ENCODING 67360
SWIDTH 1000 0
DWIDTH 16 0
BBX 14 11 1 0
BITMAP
1020
1020
1020
FFFC
3870
54A8
54A8
7CF8
9324
9324
9324
ENDCHAR
STARTCHAR uni010721
ENCODING 67361
SWIDTH 1000 0
DWIDTH 16 0
BBX 15 11 0 0
BITMAP
1000
1000
FE00
9210
92A0
FE7E
10C2
113C
1024
1018
107E
ENDCHAR
STARTCHAR uni010722
ENCODING 67362
SWIDTH 1000 0
DWIDTH 16 0
BBX 11 13 2 0
BITMAP
8020
2A80
0000
0400
0400
3F80
2080
1100
0A00
0400
0A00
1100
2080
ENDCHAR
STARTCHAR uni010723
ENCODING 67363
SWIDTH 1000 0
DWIDTH 16 0
BBX 15 11 0 0
BITMAP
0100
0100
01F0
0100
0100
FFFE
1010
2828
4444
8282
FEFE
ENDCHAR
STARTCHAR uni010724
ENCODING 67364
SWIDTH 1000 0
DWIDTH 16 0
BBX 15 10 0 0
BITMAP
4100
2200
1400
087C
C982
3A82
0C8C
3282
C182
007C
ENDCHAR
STARTCHAR uni010725
ENCODING 67365
SWIDTH 1000 0
DWIDTH 16 0
BBX 7 11 3 -1
BITMAP
F0
90
FE
92
FE
78
84
28
3E
10
10
ENDCHAR
STARTCHAR uni010726
ENCODING 67366
SWIDTH 1000 0
DWIDTH 16 0
BBX 14 13 0 -1
BITMAP
0010
0010
007C
0010
0628
0944
097C
6800
8180
8640
9840
6380
8000
ENDCHAR
STARTCHAR uni010727
ENCODING 67367
SWIDTH 500 0
DWIDTH 8 0
BBX 7 12 0 0
BITMAP
60
10
10
20
FE
82
44
44
28
28
10
7C
ENDCHAR
STARTCHAR uni010728
ENCODING 67368
SWIDTH 1000 0
DWIDTH 16 0
BBX 11 11 2 0
BITMAP
8020
2A80
0000
3F80
2080
1100
71C0
0A00
0A00
0400
1F00
ENDCHAR
STARTCHAR uni010729
ENCODING 67369
SWIDTH 1000 0
DWIDTH 16 0
BBX 9 13 3 0
BITMAP
4100
8880
9C80
6B00
0800
7F00
4100
2200
E380
1400
1400
0800
3E00
ENDCHAR
STARTCHAR uni01072A
ENCODING 67370
SWIDTH 1000 0
DWIDTH 16 0
BBX 9 13 3 0
BITMAP
2200
2400
2400
2200
3E00
7F00
4100
2200
E380
1400
1400
0800
3E00
ENDCHAR
STARTCHAR uni01072B
ENCODING 67371
SWIDTH 1000 0
DWIDTH 16 0
BBX 9 12 3 0
BITMAP
0800
1C00
2A00
0800
7F00
4100
2200
E380
1400
1400
0800
3E00
ENDCHAR
STARTCHAR uni01072C
ENCODING 67372
SWIDTH 1000 0
DWIDTH 16 0
BBX 14 8 1 0
BITMAP
7FFC
9004
9224
73E4
12A4
0888
0888
07F0
ENDCHAR
STARTCHAR uni01072D
ENCODING 67373
SWIDTH 1000 0
DWIDTH 16 0
BBX 13 10 1 0
BITMAP
3FE0
2020
2420
6530
9648
9448
7570
1640
1040
0F80
ENDCHAR
STARTCHAR uni01072E
ENCODING 67374
SWIDTH 1000 0
DWIDTH 16 0
BBX 15 12 0 0
BITMAP
0FE0
1010
654C
A38A
7FFC
2388
1550
1010
1010
0820
0820
0FE0
ENDCHAR
STARTCHAR uni01072F
ENCODING 67375
SWIDTH 1000 0
DWIDTH 16 0
BBX 13 11 1 0
BITMAP
1040
1FC0
1240
4210
A228
A228
7FF0
4010
4010
4010
7FF0
ENDCHAR
STARTCHAR uni010730
ENCODING 67376
SWIDTH 1000 0
DWIDTH 16 0
BBX 11 12 2 0
BITMAP
7F80
9080
9080
6640
4920
4820
2440
2240
1280
1080
0900
0F00
ENDCHAR
STARTCHAR uni010731
ENCODING 67377
SWIDTH 1000 0
DWIDTH 16 0
BBX 11 12 2 0
BITMAP
7F80
9080
9080
6340
4420
4E20
2440
2440
1080
1080
0900
0F00
ENDCHAR
STARTCHAR uni010732
ENCODING 67378
SWIDTH 1000 0
DWIDTH 16 0
BBX 12 12 1 0
BITMAP
7FF0
9020
A790
6490
2590
2410
17A0
1020
0840
0840
0840
0FC0
ENDCHAR
STARTCHAR uni010733
ENCODING 67379
SWIDTH 1000 0
DWIDTH 16 0
BBX 14 11 1 0
BITMAP
7FF8
9010
9450
6008
2828
4004
4824
2008
1450
0820
0FE0
ENDCHAR
STARTCHAR uni010734
ENCODING 67380
SWIDTH 1000 0
DWIDTH 16 0
BBX 13 12 2 0
BITMAP
4010
1540
0000
2320
4410
4410
8E08
8408
4410
2420
1040
1FC0
ENDCHAR
STARTCHAR uni010735
ENCODING 67381
SWIDTH 1000 0
DWIDTH 16 0
BBX 15 11 0 0
BITMAP
4200
A500
A500
FF00
AB00
D570
6A96
5690
6A96
3470
3C00
ENDCHAR
STARTCHAR uni010736
ENCODING 67382
SWIDTH 1000 0
DWIDTH 16 0
BBX 14 15 1 -2
BITMAP
1C00
0200
8200
83C0
6430
1908
0808
0038
23C0
4400
88E0
512C
2120
012C
00E0
ENDCHAR
STARTCHAR uni010740
ENCODING 67392
SWIDTH 500 0
DWIDTH 8 0
BBX 5 10 1 0
BITMAP
20
20
20
F8
20
20
F8
20
20
20
ENDCHAR
STARTCHAR uni010741
ENCODING 67393
SWIDTH 500 0
DWIDTH 8 0
BBX 5 10 1 0
BITMAP
20
20
20
20
F8
20
20
20
20
20
ENDCHAR
STARTCHAR uni010742
ENCODING 67394
SWIDTH 500 0
DWIDTH 8 0
BBX 6 10 1 0
BITMAP
78
84
04
08
10
20
40
80
84
78
ENDCHAR
STARTCHAR uni010743
ENCODING 67395
SWIDTH 500 0
DWIDTH 8 0
BBX 6 10 1 0
BITMAP
78
84
04
04
08
10
20
20
40
40
ENDCHAR
STARTCHAR uni010744
ENCODING 67396
SWIDTH 500 0
DWIDTH 8 0
BBX 6 10 1 0
BITMAP
78
84
04
04
08
10
FC
20
40
40
ENDCHAR
STARTCHAR uni010745
ENCODING 67397
SWIDTH 500 0
DWIDTH 8 0
BBX 6 10 1 0
BITMAP
78
84
04
04
08
10
28
28
44
44
ENDCHAR
STARTCHAR uni010746
ENCODING 67398
SWIDTH 500 0
DWIDTH 8 0
BBX 5 10 1 0
BITMAP
08
08
10
10
20
20
40
40
80
F8
ENDCHAR
STARTCHAR uni010747
ENCODING 67399
SWIDTH 500 0
DWIDTH 8 0
BBX 7 10 0 0
BITMAP
FE
10
10
10
10
10
10
10
10
10
ENDCHAR
STARTCHAR uni010748
ENCODING 67400
SWIDTH 500 0
DWIDTH 8 0
BBX 6 10 1 0
BITMAP
3C
44
84
84
84
84
84
84
44
3C
ENDCHAR
STARTCHAR uni010749
ENCODING 67401
SWIDTH 1000 0
DWIDTH 16 0
BBX 11 10 2 0
BITMAP
3C00
4400
8400
84E0
8400
8400
84E0
8400
4400
3C00
ENDCHAR
STARTCHAR uni01074A
ENCODING 67402
SWIDTH 1000 0
DWIDTH 16 0
BBX 11 10 2 0
BITMAP
3C00
44E0
8400
8400
84E0
8400
8400
84E0
4400
3C00
ENDCHAR
STARTCHAR uni01074B
ENCODING 67403
SWIDTH 1000 0
DWIDTH 16 0
BBX 11 10 2 0
BITMAP
3C00
44E0
8400
84E0
8400
84E0
8400
84E0
4400
3C00
ENDCHAR
STARTCHAR uni01074C
ENCODING 67404
SWIDTH 1000 0
DWIDTH 16 0
BBX 13 11 1 0
BITMAP
0F38
3100
4138
8100
8138
8100
8138
8100
4138
3100
0F38
ENDCHAR
STARTCHAR uni01074D
ENCODING 67405
SWIDTH 1000 0
DWIDTH 16 0
BBX 9 10 2 0
BITMAP
2200
2200
2200
FF80
2200
2200
2200
2200
2200
2200
ENDCHAR
STARTCHAR uni01074E
ENCODING 67406
SWIDTH 1000 0
DWIDTH 16 0
BBX 9 10 2 0
BITMAP
2200
2200
2200
FF80
2200
2200
FF80
2200
2200
2200
ENDCHAR
STARTCHAR uni01074F
ENCODING 67407
SWIDTH 500 0
DWIDTH 8 0
BBX 5 10 1 0
BITMAP
C0
A0
90
88
90
A0
C0
80
80
80
ENDCHAR
STARTCHAR uni010750
ENCODING 67408
SWIDTH 500 0
DWIDTH 8 0
BBX 5 10 1 0
BITMAP
80
80
80
80
B8
80
88
90
A0
C0
ENDCHAR
STARTCHAR uni010751
ENCODING 67409
SWIDTH 1000 0
DWIDTH 16 0
BBX 10 10 3 0
BITMAP
2000
2080
21C0
F880
2000
2000
F880
21C0
2080
2000
ENDCHAR
STARTCHAR uni010752
ENCODING 67410
SWIDTH 1000 0
DWIDTH 16 0
BBX 11 5 2 3
BITMAP
2080
2080
FBE0
2080
2080
ENDCHAR
STARTCHAR uni010753
ENCODING 67411
SWIDTH 500 0
DWIDTH 8 0
BBX 5 10 1 0
BITMAP
60
90
20
48
30
60
90
20
48
30
ENDCHAR
STARTCHAR uni010754
ENCODING 67412
SWIDTH 1000 0
DWIDTH 16 0
BBX 14 11 1 0
BITMAP
7000
8800
8000
B000
AB00
A6B0
AA68
B2A4
A328
A230
A220
ENDCHAR
STARTCHAR uni010755
ENCODING 67413
SWIDTH 500 0
DWIDTH 8 0
BBX 4 11 2 0
BITMAP
10
20
40
80
F0
00
F0
10
20
40
80
ENDCHAR
STARTCHAR uni010760
ENCODING 67424
SWIDTH 1000 0
DWIDTH 16 0
BBX 7 13 4 -1
BITMAP
92
54
38
92
54
38
92
54
38
92
FE
92
10
ENDCHAR
STARTCHAR uni010761
ENCODING 67425
SWIDTH 1000 0
DWIDTH 16 0
BBX 9 12 3 -1
BITMAP
FF80
8080
AA80
AA80
BE80
A080
A080
8080
FF80
4900
4900
4900
ENDCHAR
STARTCHAR uni010762
ENCODING 67426
SWIDTH 1000 0
DWIDTH 16 0
BBX 9 10 3 0
BITMAP
0080
0080
0080
E080
1080
1080
1080
E080
8080
FF80
ENDCHAR
STARTCHAR uni010763
ENCODING 67427
SWIDTH 1000 0
DWIDTH 16 0
BBX 11 12 2 0
BITMAP
1000
0900
1900
FFE0
8000
8000
FFE0
8420
8420
94A0
A520
8420
ENDCHAR
STARTCHAR uni010764
ENCODING 67428
SWIDTH 1000 0
DWIDTH 16 0
BBX 9 10 3 0
BITMAP
FC00
8580
8280
8080
8100
C600
AA00
9100
9080
FF80
ENDCHAR
STARTCHAR uni010765
ENCODING 67429
SWIDTH 1000 0
DWIDTH 16 0
BBX 9 10 3 0
BITMAP
F000
8800
8400
8400
8800
F000
A000
9800
8600
8180
ENDCHAR
STARTCHAR uni010766
ENCODING 67430
SWIDTH 1000 0
DWIDTH 16 0
BBX 8 13 4 -1
BITMAP
09
12
40
7E
40
52
49
40
40
F0
40
40
40
ENDCHAR
STARTCHAR uni010767
ENCODING 67431
SWIDTH 1000 0
DWIDTH 16 0
BBX 9 13 3 -1
BITMAP
0900
1200
4000
7E00
4000
5200
4900
4000
4300
F080
4100
4200
4380
ENDCHAR
STARTCHAR uni010800
ENCODING 67584
SWIDTH 1000 0
DWIDTH 16 0
BBX 11 11 2 0
BITMAP
8420
4440
2480
1500
0E00
0400
0E00
1500
2480
4440
8420
ENDCHAR
STARTCHAR uni010801
ENCODING 67585
SWIDTH 1000 0
DWIDTH 16 0
BBX 11 11 2 0
BITMAP
8420
4440
2480
15E0
0E00
0400
0E00
1500
2480
4440
8420
ENDCHAR
STARTCHAR uni010802
ENCODING 67586
SWIDTH 1000 0
DWIDTH 16 0
BBX 11 11 2 0
BITMAP
8420
4440
2480
1500
0E00
0400
0A00
1100
2080
4040
8020
ENDCHAR
STARTCHAR uni010803
ENCODING 67587
SWIDTH 500 0
DWIDTH 8 0
BBX 5 8 1 0
BITMAP
88
50
20
00
88
50
20
F8
ENDCHAR
STARTCHAR uni010804
ENCODING 67588
SWIDTH 1000 0
DWIDTH 16 0
BBX 9 11 3 0
BITMAP
2200
5500
8880
0800
0800
0800
0800
0800
0800
0800
0800
ENDCHAR
STARTCHAR uni010805
ENCODING 67589
SWIDTH 500 0
DWIDTH 8 0
BBX 5 11 2 0
BITMAP
70
88
88
88
88
88
88
88
88
50
20
ENDCHAR
STARTCHAR uni010808
ENCODING 67592
SWIDTH 1000 0
DWIDTH 16 0
BBX 13 5 1 0
BITMAP
8208
4510
28A0
1040
03F8
ENDCHAR
STARTCHAR uni01080A
ENCODING 67594
SWIDTH 500 0
DWIDTH 8 0
BBX 7 11 1 0
BITMAP
10
38
54
92
10
10
10
10
10
10
7C
ENDCHAR
STARTCHAR uni01080B
ENCODING 67595
SWIDTH 1000 0
DWIDTH 16 0
BBX 10 12 3 -1
BITMAP
0200
0100
0080
1040
0880
0500
8200
4400
2800
1000
2800
4400
ENDCHAR
STARTCHAR uni01080C
ENCODING 67596
SWIDTH 1000 0
DWIDTH 16 0
BBX 7 11 4 0
BITMAP
F8
00
88
54
22
20
20
20
20
20
20
ENDCHAR
STARTCHAR uni01080D
ENCODING 67597
SWIDTH 1000 0
DWIDTH 16 0
BBX 9 11 3 0
BITMAP
7F00
4100
4100
4100
4100
8080
8080
8080
8080
8080
8080
ENDCHAR
STARTCHAR uni01080E
ENCODING 67598
SWIDTH 1000 0
DWIDTH 16 0
BBX 11 11 2 0
BITMAP
9120
4A40
2480
1100
0A00
0400
0E00
1500
2480
4440
8420
ENDCHAR
STARTCHAR uni01080F
ENCODING 67599
SWIDTH 1000 0
DWIDTH 16 0
BBX 11 6 2 0
BITMAP
8080
4140
2220
1400
0800
FF80
ENDCHAR
STARTCHAR uni010810
ENCODING 67600
SWIDTH 500 0
DWIDTH 8 0
BBX 4 11 2 0
BITMAP
60
90
90
90
90
60
90
90
90
90
60
ENDCHAR
STARTCHAR uni010811
ENCODING 67601
SWIDTH 1000 0
DWIDTH 16 0
BBX 8 10 4 0
BITMAP
02
04
08
10
20
40
FF
00
00
FF
ENDCHAR
STARTCHAR uni010812
ENCODING 67602
SWIDTH 500 0
DWIDTH 8 0
BBX 5 11 2 0
BITMAP
20
20
20
20
20
F8
20
20
20
20
20
ENDCHAR
STARTCHAR uni010813
ENCODING 67603
SWIDTH 1000 0
DWIDTH 16 0
BBX 11 11 2 0
BITMAP
1F00
2080
4040
4040
8020
8020
9120
9120
9120
9120
8E20
ENDCHAR
STARTCHAR uni010814
ENCODING 67604
SWIDTH 1000 0
DWIDTH 16 0
BBX 13 11 1 0
BITMAP
9048
4890
2520
1240
0880
0500
0880
1040
2020
4010
8008
ENDCHAR
STARTCHAR uni010815
ENCODING 67605
SWIDTH 1000 0
DWIDTH 16 0
BBX 11 12 2 -1
BITMAP
8020
4040
2080
1100
0A00
0400
0A00
1100
2480
4440
8420
0300
ENDCHAR
STARTCHAR uni010816
ENCODING 67606
SWIDTH 1000 0
DWIDTH 16 0
BBX 13 6 1 1
BITMAP
2020
5050
8888
0500
0200
3FE0
ENDCHAR
STARTCHAR uni010817
ENCODING 67607
SWIDTH 1000 0
DWIDTH 16 0
BBX 11 7 2 0
BITMAP
1F00
64C0
8420
8420
8420
64C0
1F00
ENDCHAR
STARTCHAR uni010818
ENCODING 67608
SWIDTH 1000 0
DWIDTH 16 0
BBX 11 11 2 0
BITMAP
8020
4040
2080
9120
8A20
8420
8A20
9120
2080
4040
8020
ENDCHAR
STARTCHAR uni010819
ENCODING 67609
SWIDTH 500 0
DWIDTH 8 0
BBX 7 11 1 0
BITMAP
FE
00
FE
10
10
10
10
10
10
10
10
ENDCHAR
STARTCHAR uni01081A
ENCODING 67610
SWIDTH 1000 0
DWIDTH 16 0
BBX 11 11 2 0
BITMAP
0200
0400
8820
9020
8820
8420
8220
8120
8220
0400
0800
ENDCHAR
STARTCHAR uni01081B
ENCODING 67611
SWIDTH 1000 0
DWIDTH 16 0
BBX 11 11 2 -1
BITMAP
0100
0080
0040
0820
0440
0280
4100
2200
1400
0800
FFE0
ENDCHAR
STARTCHAR uni01081C
ENCODING 67612
SWIDTH 1000 0
DWIDTH 16 0
BBX 12 10 2 0
BITMAP
0400
0200
0100
0200
0440
08A0
1110
2200
4400
8800
ENDCHAR
STARTCHAR uni01081D
ENCODING 67613
SWIDTH 1000 0
DWIDTH 16 0
BBX 9 11 2 0
BITMAP
8080
4080
2080
1080
0800
0400
0800
1080
2080
4080
8080
ENDCHAR
STARTCHAR uni01081E
ENCODING 67614
SWIDTH 500 0
DWIDTH 8 0
BBX 5 11 2 0
BITMAP
20
20
20
20
F8
20
20
F8
20
20
20
ENDCHAR
STARTCHAR uni01081F
ENCODING 67615
SWIDTH 1000 0
DWIDTH 16 0
BBX 5 11 5 0
BITMAP
10
20
40
80
40
20
10
08
10
20
40
ENDCHAR
STARTCHAR uni010820
ENCODING 67616
SWIDTH 500 0
DWIDTH 8 0
BBX 5 7 1 2
BITMAP
88
50
20
00
88
50
20
ENDCHAR
STARTCHAR uni010821
ENCODING 67617
SWIDTH 1000 0
DWIDTH 16 0
BBX 9 11 3 0
BITMAP
0700
0880
0800
0600
0200
0400
0800
1000
2000
4000
8000
ENDCHAR
STARTCHAR uni010822
ENCODING 67618
SWIDTH 1000 0
DWIDTH 16 0
BBX 13 10 1 1
BITMAP
0880
1040
2020
4210
2220
1240
0A80
0700
0200
FFF8
ENDCHAR
STARTCHAR uni010823
ENCODING 67619
SWIDTH 500 0
DWIDTH 8 0
BBX 7 11 1 0
BITMAP
38
44
44
44
44
44
44
44
44
28
FE
ENDCHAR
STARTCHAR uni010824
ENCODING 67620
SWIDTH 500 0
DWIDTH 8 0
BBX 7 9 1 0
BITMAP
10
28
44
82
00
28
28
28
28
ENDCHAR
STARTCHAR uni010825
ENCODING 67621
SWIDTH 1000 0
DWIDTH 16 0
BBX 10 10 3 0
BITMAP
0200
0100
0080
1040
0880
0500
8200
4400
2800
1000
ENDCHAR
STARTCHAR uni010826
ENCODING 67622
SWIDTH 500 0
DWIDTH 8 0
BBX 5 11 2 0
BITMAP
70
88
88
88
50
20
20
50
50
88
88
ENDCHAR
STARTCHAR uni010827
ENCODING 67623
SWIDTH 1000 0
DWIDTH 16 0
BBX 11 11 2 0
BITMAP
8020
4040
2080
2080
1100
1100
1100
2080
2480
4240
8120
ENDCHAR
STARTCHAR uni010828
ENCODING 67624
SWIDTH 500 0
DWIDTH 8 0
BBX 7 11 1 0
BITMAP
82
82
82
82
44
44
44
28
28
28
10
ENDCHAR
STARTCHAR uni010829
ENCODING 67625
SWIDTH 500 0
DWIDTH 8 0
BBX 7 11 1 0
BITMAP
92
92
92
92
FE
80
80
80
80
80
80
ENDCHAR
STARTCHAR uni01082A
ENCODING 67626
SWIDTH 500 0
DWIDTH 8 0
BBX 7 11 1 0
BITMAP
10
28
44
92
10
10
10
10
1C
00
7E
ENDCHAR
STARTCHAR uni01082B
ENCODING 67627
SWIDTH 500 0
DWIDTH 8 0
BBX 5 9 1 0
BITMAP
88
50
20
88
50
20
F8
00
F8
ENDCHAR
STARTCHAR uni01082C
ENCODING 67628
SWIDTH 1000 0
DWIDTH 16 0
BBX 12 11 2 0
BITMAP
8080
4080
2080
23E0
1080
1140
1140
2220
2220
4410
8410
ENDCHAR
STARTCHAR uni01082D
ENCODING 67629
SWIDTH 500 0
DWIDTH 8 0
BBX 5 11 2 0
BITMAP
80
80
80
80
80
F8
80
80
80
80
80
ENDCHAR
STARTCHAR uni01082E
ENCODING 67630
SWIDTH 500 0
DWIDTH 8 0
BBX 7 7 1 0
BITMAP
10
10
92
54
38
10
FE
ENDCHAR
STARTCHAR uni01082F
ENCODING 67631
SWIDTH 500 0
DWIDTH 8 0
BBX 7 11 1 0
BITMAP
10
38
54
92
10
10
10
10
10
10
10
ENDCHAR
STARTCHAR uni010830
ENCODING 67632
SWIDTH 500 0
DWIDTH 8 0
BBX 7 11 1 0
BITMAP
FE
20
20
20
3C
20
20
20
20
20
20
ENDCHAR
STARTCHAR uni010831
ENCODING 67633
SWIDTH 500 0
DWIDTH 8 0
BBX 7 11 1 0
BITMAP
FE
40
40
40
7C
40
54
54
54
54
54
ENDCHAR
STARTCHAR uni010832
ENCODING 67634
SWIDTH 1000 0
DWIDTH 16 0
BBX 13 11 1 0
BITMAP
8008
4010
2020
1040
0880
0500
0880
1240
2520
4890
9048
ENDCHAR
STARTCHAR uni010833
ENCODING 67635
SWIDTH 500 0
DWIDTH 8 0
BBX 7 11 1 0
BITMAP
FE
10
10
10
10
10
10
10
10
10
FE
ENDCHAR
STARTCHAR uni010834
ENCODING 67636
SWIDTH 1000 0
DWIDTH 16 0
BBX 13 11 1 0
BITMAP
8208
4210
2220
1240
0880
0500
0880
1040
2020
4010
8008
ENDCHAR
STARTCHAR uni010835
ENCODING 67637
SWIDTH 500 0
DWIDTH 8 0
BBX 7 11 1 0
BITMAP
10
28
44
82
10
10
10
10
10
10
E0
ENDCHAR
STARTCHAR uni010837
ENCODING 67639
SWIDTH 1000 0
DWIDTH 16 0
BBX 10 11 2 0
BITMAP
8040
4080
2100
2100
1200
1200
1200
2100
2100
4080
8040
ENDCHAR
STARTCHAR uni010838
ENCODING 67640
SWIDTH 500 0
DWIDTH 8 0
BBX 7 11 1 0
BITMAP
12
22
42
42
82
9E
82
42
42
22
12
ENDCHAR
STARTCHAR uni01083C
ENCODING 67644
SWIDTH 1000 0
DWIDTH 16 0
BBX 13 12 1 0
BITMAP
0200
8108
4890
2420
1240
0880
0500
0880
1040
2020
4010
8008
ENDCHAR
STARTCHAR uni01083F
ENCODING 67647
SWIDTH 1000 0
DWIDTH 16 0
BBX 10 11 3 0
BITMAP
1080
2100
4200
8400
4200
2100
1080
0840
1080
2100
4200
ENDCHAR
STARTCHAR uni010840
ENCODING 67648
SWIDTH 500 0
DWIDTH 8 0
BBX 5 8 1 0
BITMAP
08
C8
B0
A0
D0
10
08
08
ENDCHAR
STARTCHAR uni010841
ENCODING 67649
SWIDTH 500 0
DWIDTH 8 0
BBX 5 8 2 0
BITMAP
80
F0
08
08
10
10
20
C0
ENDCHAR
STARTCHAR uni010842
ENCODING 67650
SWIDTH 500 0
DWIDTH 8 0
BBX 5 7 1 1
BITMAP
10
20
D0
10
08
08
08
ENDCHAR
STARTCHAR uni010843
ENCODING 67651
SWIDTH 500 0
DWIDTH 8 0
BBX 5 7 1 0
BITMAP
88
78
08
08
08
08
10
ENDCHAR
STARTCHAR uni010844
ENCODING 67652
SWIDTH 500 0
DWIDTH 8 0
BBX 6 8 1 -1
BITMAP
78
98
24
24
48
08
10
20
ENDCHAR
STARTCHAR uni010845
ENCODING 67653
SWIDTH 500 0
DWIDTH 8 0
BBX 3 7 2 0
BITMAP
C0
C0
20
20
20
20
40
ENDCHAR
STARTCHAR uni010846
ENCODING 67654
SWIDTH 500 0
DWIDTH 8 0
BBX 2 7 3 0
BITMAP
40
40
40
40
40
40
80
ENDCHAR
STARTCHAR uni010847
ENCODING 67655
SWIDTH 500 0
DWIDTH 8 0
BBX 6 7 1 0
BITMAP
D8
D8
24
24
24
24
48
ENDCHAR
STARTCHAR uni010848
ENCODING 67656
SWIDTH 500 0
DWIDTH 8 0
BBX 5 8 1 0
BITMAP
20
40
58
98
88
88
88
70
ENDCHAR
STARTCHAR uni010849
ENCODING 67657
SWIDTH 500 0
DWIDTH 8 0
BBX 4 4 1 4
BITMAP
40
20
50
90
ENDCHAR
STARTCHAR uni01084A
ENCODING 67658
SWIDTH 500 0
DWIDTH 8 0
BBX 4 9 2 -2
BITMAP
50
70
10
10
10
20
20
40
80
ENDCHAR
STARTCHAR uni01084B
ENCODING 67659
SWIDTH 500 0
DWIDTH 8 0
BBX 3 9 2 0
BITMAP
20
20
40
40
80
80
80
80
60
ENDCHAR
STARTCHAR uni01084C
ENCODING 67660
SWIDTH 500 0
DWIDTH 8 0
BBX 6 10 1 -2
BITMAP
A0
F8
24
24
44
88
08
10
20
C0
ENDCHAR
STARTCHAR uni01084D
ENCODING 67661
SWIDTH 500 0
DWIDTH 8 0
BBX 4 10 2 -2
BITMAP
10
20
40
40
20
20
20
20
40
80
ENDCHAR
STARTCHAR uni01084E
ENCODING 67662
SWIDTH 500 0
DWIDTH 8 0
BBX 5 7 1 0
BITMAP
60
A0
38
08
10
20
C0
ENDCHAR
STARTCHAR uni01084F
ENCODING 67663
SWIDTH 500 0
DWIDTH 8 0
BBX 5 4 1 3
BITMAP
88
88
50
20
ENDCHAR
STARTCHAR uni010850
ENCODING 67664
SWIDTH 500 0
DWIDTH 8 0
BBX 5 10 1 -2
BITMAP
30
30
08
08
08
08
08
10
20
C0
ENDCHAR
STARTCHAR uni010851
ENCODING 67665
SWIDTH 500 0
DWIDTH 8 0
BBX 7 10 0 -2
BITMAP
4C
52
62
44
44
40
40
40
40
80
ENDCHAR
STARTCHAR uni010852
ENCODING 67666
SWIDTH 500 0
DWIDTH 8 0
BBX 6 11 1 -2
BITMAP
80
F8
44
44
48
50
40
40
40
40
80
ENDCHAR
STARTCHAR uni010853
ENCODING 67667
SWIDTH 500 0
DWIDTH 8 0
BBX 5 9 1 -2
BITMAP
88
78
08
08
08
10
10
20
40
ENDCHAR
STARTCHAR uni010854
ENCODING 67668
SWIDTH 500 0
DWIDTH 8 0
BBX 6 8 1 0
BITMAP
84
94
54
64
44
48
50
60
ENDCHAR
STARTCHAR uni010855
ENCODING 67669
SWIDTH 500 0
DWIDTH 8 0
BBX 6 10 1 -2
BITMAP
40
40
78
44
44
40
40
40
40
80
ENDCHAR
STARTCHAR uni010857
ENCODING 67671
SWIDTH 500 0
DWIDTH 8 0
BBX 6 10 1 -2
BITMAP
64
68
10
FC
10
10
10
10
10
20
ENDCHAR
STARTCHAR uni010858
ENCODING 67672
SWIDTH 500 0
DWIDTH 8 0
BBX 2 7 3 0
BITMAP
40
40
40
40
40
40
80
ENDCHAR
STARTCHAR uni010859
ENCODING 67673
SWIDTH 500 0
DWIDTH 8 0
BBX 4 7 2 0
BITMAP
90
90
90
90
90
90
A0
ENDCHAR
STARTCHAR uni01085A
ENCODING 67674
SWIDTH 500 0
DWIDTH 8 0
BBX 6 8 1 -1
BITMAP
94
94
94
94
94
94
A4
08
ENDCHAR
STARTCHAR uni01085B
ENCODING 67675
SWIDTH 500 0
DWIDTH 8 0
BBX 6 3 1 2
BITMAP
F8
04
04
ENDCHAR
STARTCHAR uni01085C
ENCODING 67676
SWIDTH 500 0
DWIDTH 8 0
BBX 6 5 1 1
BITMAP
E0
20
38
04
04
ENDCHAR
STARTCHAR uni01085D
ENCODING 67677
SWIDTH 500 0
DWIDTH 8 0
BBX 6 5 1 2
BITMAP
40
80
F8
04
64
ENDCHAR
STARTCHAR uni01085E
ENCODING 67678
SWIDTH 500 0
DWIDTH 8 0
BBX 5 11 1 -2
BITMAP
08
08
D0
D0
20
20
20
20
58
40
80
ENDCHAR
STARTCHAR uni01085F
ENCODING 67679
SWIDTH 500 0
DWIDTH 8 0
BBX 6 9 1 -1
BITMAP
40
80
F8
44
74
10
F8
04
04
ENDCHAR
STARTCHAR uni010860
ENCODING 67680
SWIDTH 1000 0
DWIDTH 16 0
BBX 12 10 2 0
BITMAP
2040
1040
2840
4440
4280
8100
8080
9040
9020
6010
ENDCHAR
STARTCHAR uni010861
ENCODING 67681
SWIDTH 1000 0
DWIDTH 16 0
BBX 9 10 3 0
BITMAP
4200
4200
2600
1A00
0100
0100
0100
0080
0080
FF80
ENDCHAR
STARTCHAR uni010862
ENCODING 67682
SWIDTH 1000 0
DWIDTH 16 0
BBX 10 10 3 0
BITMAP
4000
4000
2000
2000
2000
1000
1800
1400
2200
C1C0
ENDCHAR
STARTCHAR uni010863
ENCODING 67683
SWIDTH 500 0
DWIDTH 8 0
BBX 8 10 0 0
BITMAP
84
84
4C
34
04
04
06
01
01
01
ENDCHAR
STARTCHAR uni010864
ENCODING 67684
SWIDTH 500 0
DWIDTH 8 0
BBX 7 10 0 0
BITMAP
88
48
28
18
08
14
22
42
02
02
ENDCHAR
STARTCHAR uni010865
ENCODING 67685
SWIDTH 500 0
DWIDTH 8 0
BBX 6 8 1 2
BITMAP
70
88
88
10
38
04
04
04
ENDCHAR
STARTCHAR uni010866
ENCODING 67686
SWIDTH 500 0
DWIDTH 8 0
BBX 3 9 3 1
BITMAP
80
80
80
80
80
40
40
40
20
ENDCHAR
STARTCHAR uni010867
ENCODING 67687
SWIDTH 1000 0
DWIDTH 16 0
BBX 11 10 2 0
BITMAP
2080
2080
2280
1580
1880
1040
0840
0820
8820
7020
ENDCHAR
STARTCHAR uni010868
ENCODING 67688
SWIDTH 500 0
DWIDTH 8 0
BBX 6 10 1 0
BITMAP
10
20
40
80
80
98
A4
84
44
38
ENDCHAR
STARTCHAR uni010869
ENCODING 67689
SWIDTH 500 0
DWIDTH 8 0
BBX 5 4 1 6
BITMAP
70
88
88
10
ENDCHAR
STARTCHAR uni01086A
ENCODING 67690
SWIDTH 1000 0
DWIDTH 16 0
BBX 9 10 3 0
BITMAP
2100
2100
1300
0D00
0080
0080
0080
0080
0100
FE00
ENDCHAR
STARTCHAR uni01086B
ENCODING 67691
SWIDTH 500 0
DWIDTH 8 0
BBX 7 13 0 0
BITMAP
80
80
80
84
84
8C
74
04
02
02
22
22
1C
ENDCHAR
STARTCHAR uni01086C
ENCODING 67692
SWIDTH 1000 0
DWIDTH 16 0
BBX 12 10 2 0
BITMAP
2040
30C0
2F40
2020
1020
1020
1010
1010
2110
C0E0
ENDCHAR
STARTCHAR uni01086D
ENCODING 67693
SWIDTH 500 0
DWIDTH 8 0
BBX 4 12 1 -1
BITMAP
20
20
20
40
E0
10
10
10
10
10
10
10
ENDCHAR
STARTCHAR uni01086E
ENCODING 67694
SWIDTH 500 0
DWIDTH 8 0
BBX 5 10 1 0
BITMAP
20
20
20
20
20
10
10
08
88
70
ENDCHAR
STARTCHAR uni01086F
ENCODING 67695
SWIDTH 1000 0
DWIDTH 16 0
BBX 10 10 3 0
BITMAP
C200
2200
1500
0900
0080
0080
0040
0040
8080
7F00
ENDCHAR
STARTCHAR uni010870
ENCODING 67696
SWIDTH 1000 0
DWIDTH 16 0
BBX 10 10 3 0
BITMAP
2040
2080
1100
0E00
0400
0800
1000
2000
4000
8000
ENDCHAR
STARTCHAR uni010871
ENCODING 67697
SWIDTH 500 0
DWIDTH 8 0
BBX 7 10 0 0
BITMAP
38
44
44
08
14
02
02
82
44
38
ENDCHAR
STARTCHAR uni010872
ENCODING 67698
SWIDTH 1000 0
DWIDTH 16 0
BBX 12 10 2 0
BITMAP
2100
2100
2100
1080
1F80
1080
0890
0860
8800
7000
ENDCHAR
STARTCHAR uni010873
ENCODING 67699
SWIDTH 1000 0
DWIDTH 16 0
BBX 12 10 2 0
BITMAP
2040
30C0
2F40
2020
1020
1020
0810
0810
8910
70E0
ENDCHAR
STARTCHAR uni010874
ENCODING 67700
SWIDTH 500 0
DWIDTH 8 0
BBX 8 11 0 0
BITMAP
20
84
84
4C
34
04
04
06
01
01
01
ENDCHAR
STARTCHAR uni010875
ENCODING 67701
SWIDTH 1000 0
DWIDTH 16 0
BBX 10 10 3 0
BITMAP
8000
8200
4400
4800
3000
2040
1080
1100
0A00
0C00
ENDCHAR
STARTCHAR uni010876
ENCODING 67702
SWIDTH 1000 0
DWIDTH 16 0
BBX 10 10 3 0
BITMAP
2000
2000
2200
1500
1880
1040
0800
0800
8800
7000
ENDCHAR
STARTCHAR uni010877
ENCODING 67703
SWIDTH 1000 0
DWIDTH 16 0
BBX 14 9 1 1
BITMAP
0380
0440
3840
4484
81E4
4498
3840
0440
0380
ENDCHAR
STARTCHAR uni010878
ENCODING 67704
SWIDTH 1000 0
DWIDTH 16 0
BBX 14 9 1 1
BITMAP
0700
0880
0870
6488
9E04
8488
0870
0880
0700
ENDCHAR
STARTCHAR uni010879
ENCODING 67705
SWIDTH 500 0
DWIDTH 8 0
BBX 3 10 2 0
BITMAP
20
20
20
20
20
20
40
40
40
80
ENDCHAR
STARTCHAR uni01087A
ENCODING 67706
SWIDTH 500 0
DWIDTH 8 0
BBX 6 10 1 0
BITMAP
24
24
24
24
24
28
48
48
50
80
ENDCHAR
STARTCHAR uni01087B
ENCODING 67707
SWIDTH 1000 0
DWIDTH 16 0
BBX 9 10 3 0
BITMAP
2480
2480
2480
2480
2480
2900
4900
4900
5200
8000
ENDCHAR
STARTCHAR uni01087C
ENCODING 67708
SWIDTH 1000 0
DWIDTH 16 0
BBX 12 10 2 0
BITMAP
2490
2490
2490
2490
2490
2920
4920
4920
5240
8000
ENDCHAR
STARTCHAR uni01087D
ENCODING 67709
SWIDTH 1000 0
DWIDTH 16 0
BBX 10 10 3 0
BITMAP
2040
2080
1100
0E00
0400
0800
1000
2000
4000
8000
ENDCHAR
STARTCHAR uni01087E
ENCODING 67710
SWIDTH 1000 0
DWIDTH 16 0
BBX 14 5 1 1
BITMAP
FFF8
0004
0004
0064
0098
ENDCHAR
STARTCHAR uni01087F
ENCODING 67711
SWIDTH 500 0
DWIDTH 8 0
BBX 5 10 1 0
BITMAP
70
88
88
08
10
20
10
08
88
70
ENDCHAR
STARTCHAR uni010880
ENCODING 67712
SWIDTH 1000 0
DWIDTH 16 0
BBX 13 11 1 0
BITMAP
0040
FC40
0240
0240
3F80
4200
3A00
0100
0100
0100
00F8
ENDCHAR
STARTCHAR uni010881
ENCODING 67713
SWIDTH 500 0
DWIDTH 8 0
BBX 6 10 1 0
BITMAP
0C
70
90
88
88
88
88
88
48
30
ENDCHAR
STARTCHAR uni010882
ENCODING 67714
SWIDTH 1000 0
DWIDTH 16 0
BBX 12 10 2 0
BITMAP
11E0
0E10
0010
0010
0010
0010
0010
1E10
6190
8060
ENDCHAR
STARTCHAR uni010883
ENCODING 67715
SWIDTH 1000 0
DWIDTH 16 0
BBX 12 10 2 0
BITMAP
0010
0010
0010
0020
0020
0020
0040
0040
0040
FF80
ENDCHAR
STARTCHAR uni010884
ENCODING 67716
SWIDTH 1000 0
DWIDTH 16 0
BBX 13 11 1 0
BITMAP
2000
1000
0800
0400
0200
FF00
0080
0040
0020
0010
0008
ENDCHAR
STARTCHAR uni010885
ENCODING 67717
SWIDTH 500 0
DWIDTH 8 0
BBX 6 11 1 0
BITMAP
98
64
04
04
04
04
04
04
04
04
04
ENDCHAR
STARTCHAR uni010886
ENCODING 67718
SWIDTH 500 0
DWIDTH 8 0
BBX 6 11 1 0
BITMAP
04
04
FC
44
44
44
44
44
44
44
38
ENDCHAR
STARTCHAR uni010887
ENCODING 67719
SWIDTH 500 0
DWIDTH 8 0
BBX 6 11 1 0
BITMAP
04
04
FC
24
24
24
24
44
44
44
84
ENDCHAR
STARTCHAR uni010888
ENCODING 67720
SWIDTH 500 0
DWIDTH 8 0
BBX 4 11 2 0
BITMAP
60
90
90
90
90
10
10
10
10
10
10
ENDCHAR
STARTCHAR uni010889
ENCODING 67721
SWIDTH 500 0
DWIDTH 8 0
BBX 1 11 3 0
BITMAP
80
80
80
80
80
80
80
80
80
80
80
ENDCHAR
STARTCHAR uni01088A
ENCODING 67722
SWIDTH 1000 0
DWIDTH 16 0
BBX 11 11 2 0
BITMAP
1020
1320
14A0
1860
1020
1020
1020
1020
1020
1020
F020
ENDCHAR
STARTCHAR uni01088B
ENCODING 67723
SWIDTH 1000 0
DWIDTH 16 0
BBX 12 11 2 0
BITMAP
8000
8000
8000
8000
8000
81E0
8E10
B010
8060
8780
7800
ENDCHAR
STARTCHAR uni01088C
ENCODING 67724
SWIDTH 500 0
DWIDTH 8 0
BBX 6 11 1 0
BITMAP
30
40
80
E0
10
08
08
04
04
04
04
ENDCHAR
STARTCHAR uni01088D
ENCODING 67725
SWIDTH 500 0
DWIDTH 8 0
BBX 6 11 1 0
BITMAP
08
08
10
10
20
20
38
04
04
04
F8
ENDCHAR
STARTCHAR uni01088E
ENCODING 67726
SWIDTH 500 0
DWIDTH 8 0
BBX 7 13 1 -2
BITMAP
8C
72
02
02
02
02
02
02
02
02
02
02
02
ENDCHAR
STARTCHAR uni01088F
ENCODING 67727
SWIDTH 500 0
DWIDTH 8 0
BBX 6 11 1 0
BITMAP
98
64
04
04
04
04
04
04
04
04
F8
ENDCHAR
STARTCHAR uni010890
ENCODING 67728
SWIDTH 500 0
DWIDTH 8 0
BBX 6 13 1 0
BITMAP
80
80
80
80
80
80
98
A4
C4
04
08
10
20
ENDCHAR
STARTCHAR uni010891
ENCODING 67729
SWIDTH 500 0
DWIDTH 8 0
BBX 5 13 1 0
BITMAP
08
08
08
08
08
08
08
08
08
08
08
88
70
ENDCHAR
STARTCHAR uni010892
ENCODING 67730
SWIDTH 500 0
DWIDTH 8 0
BBX 6 11 1 0
BITMAP
80
78
24
24
24
44
44
44
44
24
18
ENDCHAR
STARTCHAR uni010893
ENCODING 67731
SWIDTH 500 0
DWIDTH 8 0
BBX 6 11 1 0
BITMAP
80
78
24
24
24
44
04
24
24
24
18
ENDCHAR
STARTCHAR uni010894
ENCODING 67732
SWIDTH 500 0
DWIDTH 8 0
BBX 3 13 2 -2
BITMAP
80
40
20
20
20
20
20
20
20
20
20
20
20
ENDCHAR
STARTCHAR uni010895
ENCODING 67733
SWIDTH 500 0
DWIDTH 8 0
BBX 5 11 2 0
BITMAP
08
08
08
08
08
08
08
08
08
08
F0
ENDCHAR
STARTCHAR uni010896
ENCODING 67734
SWIDTH 1000 0
DWIDTH 16 0
BBX 12 11 1 0
BITMAP
6000
93E0
9C10
7010
1010
1020
1020
1040
1080
1100
1E00
ENDCHAR
STARTCHAR uni010897
ENCODING 67735
SWIDTH 1000 0
DWIDTH 16 0
BBX 8 11 4 0
BITMAP
81
81
81
42
42
24
14
08
10
20
C0
ENDCHAR
STARTCHAR uni010898
ENCODING 67736
SWIDTH 500 0
DWIDTH 8 0
BBX 6 11 1 0
BITMAP
78
84
84
84
44
04
04
04
04
84
78
ENDCHAR
STARTCHAR uni010899
ENCODING 67737
SWIDTH 1000 0
DWIDTH 16 0
BBX 10 11 2 0
BITMAP
0400
0780
0440
0440
0480
0400
0400
0400
0400
8400
7800
ENDCHAR
STARTCHAR uni01089A
ENCODING 67738
SWIDTH 1000 0
DWIDTH 16 0
BBX 10 11 2 0
BITMAP
0780
0440
0440
0440
0780
0400
0400
0400
0400
8400
7800
ENDCHAR
STARTCHAR uni01089B
ENCODING 67739
SWIDTH 500 0
DWIDTH 8 0
BBX 5 11 1 0
BITMAP
F0
08
08
08
08
08
08
08
08
08
08
ENDCHAR
STARTCHAR uni01089C
ENCODING 67740
SWIDTH 500 0
DWIDTH 8 0
BBX 6 11 1 0
BITMAP
80
90
A4
C8
90
A0
C0
80
80
80
80
ENDCHAR
STARTCHAR uni01089D
ENCODING 67741
SWIDTH 500 0
DWIDTH 8 0
BBX 6 11 1 0
BITMAP
20
20
28
30
24
28
30
20
20
20
C0
ENDCHAR
STARTCHAR uni01089E
ENCODING 67742
SWIDTH 500 0
DWIDTH 8 0
BBX 7 11 0 0
BITMAP
20
2C
32
22
22
22
22
22
22
22
CC
ENDCHAR
STARTCHAR uni0108A7
ENCODING 67751
SWIDTH 500 0
DWIDTH 8 0
BBX 1 11 3 0
BITMAP
80
80
80
80
80
80
80
80
80
80
80
ENDCHAR
STARTCHAR uni0108A8
ENCODING 67752
SWIDTH 500 0
DWIDTH 8 0
BBX 3 11 2 0
BITMAP
A0
A0
A0
A0
A0
A0
A0
A0
A0
A0
E0
ENDCHAR
STARTCHAR uni0108A9
ENCODING 67753
SWIDTH 500 0
DWIDTH 8 0
BBX 5 11 1 0
BITMAP
A8
A8
A8
A8
A8
A8
A8
A8
A8
A8
F8
ENDCHAR
STARTCHAR uni0108AA
ENCODING 67754
SWIDTH 500 0
DWIDTH 8 0
BBX 7 11 0 0
BITMAP
AA
AA
AA
AA
AA
AA
AA
AA
AA
AA
FE
ENDCHAR
STARTCHAR uni0108AB
ENCODING 67755
SWIDTH 500 0
DWIDTH 8 0
BBX 5 10 1 0
BITMAP
88
88
50
50
20
20
50
50
88
88
ENDCHAR
STARTCHAR uni0108AC
ENCODING 67756
SWIDTH 500 0
DWIDTH 8 0
BBX 4 11 2 0
BITMAP
20
20
40
40
80
80
E0
10
10
20
C0
ENDCHAR
STARTCHAR uni0108AD
ENCODING 67757
SWIDTH 1000 0
DWIDTH 16 0
BBX 14 7 1 0
BITMAP
00F0
0708
1804
2004
4004
8004
8004
ENDCHAR
STARTCHAR uni0108AE
ENCODING 67758
SWIDTH 500 0
DWIDTH 8 0
BBX 6 11 1 0
BITMAP
78
84
04
04
04
38
04
04
84
84
78
ENDCHAR
STARTCHAR uni0108AF
ENCODING 67759
SWIDTH 500 0
DWIDTH 8 0
BBX 4 11 2 0
BITMAP
60
90
90
70
10
10
10
10
10
10
10
ENDCHAR
STARTCHAR uni0108E0
ENCODING 67808
SWIDTH 1000 0
DWIDTH 16 0
BBX 12 8 2 0
BITMAP
0810
0810
0810
0810
0810
0810
0810
FFF0
ENDCHAR
STARTCHAR uni0108E1
ENCODING 67809
SWIDTH 1000 0
DWIDTH 16 0
BBX 13 8 1 0
BITMAP
0020
0010
0008
0008
0008
0008
0010
FFE0
ENDCHAR
STARTCHAR uni0108E2
ENCODING 67810
SWIDTH 1000 0
DWIDTH 16 0
BBX 13 8 1 0
BITMAP
0400
0200
0100
0080
0040
0020
0010
FFF8
ENDCHAR
STARTCHAR uni0108E3
ENCODING 67811
SWIDTH 500 0
DWIDTH 8 0
BBX 6 8 1 0
BITMAP
FC
04
04
04
04
04
04
04
ENDCHAR
STARTCHAR uni0108E4
ENCODING 67812
SWIDTH 1000 0
DWIDTH 16 0
BBX 10 8 3 0
BITMAP
4040
2040
5040
4840
4440
8240
8140
80C0
ENDCHAR
STARTCHAR uni0108E5
ENCODING 67813
SWIDTH 500 0
DWIDTH 8 0
BBX 3 8 2 0
BITMAP
80
40
20
20
20
20
40
80
ENDCHAR
STARTCHAR uni0108E6
ENCODING 67814
SWIDTH 500 0
DWIDTH 8 0
BBX 1 8 3 0
BITMAP
80
80
80
80
80
80
80
80
ENDCHAR
STARTCHAR uni0108E7
ENCODING 67815
SWIDTH 500 0
DWIDTH 8 0
BBX 6 8 1 0
BITMAP
84
C4
A4
A4
94
94
8C
84
ENDCHAR
STARTCHAR uni0108E8
ENCODING 67816
SWIDTH 500 0
DWIDTH 8 0
BBX 6 9 1 0
BITMAP
08
10
20
40
88
84
84
44
38
ENDCHAR
STARTCHAR uni0108E9
ENCODING 67817
SWIDTH 500 0
DWIDTH 8 0
BBX 4 8 2 0
BITMAP
70
80
80
40
40
20
10
20
ENDCHAR
STARTCHAR uni0108EA
ENCODING 67818
SWIDTH 500 0
DWIDTH 8 0
BBX 6 10 1 -2
BITMAP
FC
04
04
04
04
04
04
04
04
04
ENDCHAR
STARTCHAR uni0108EB
ENCODING 67819
SWIDTH 500 0
DWIDTH 8 0
BBX 7 11 0 0
BITMAP
80
40
20
10
08
04
02
02
02
02
02
ENDCHAR
STARTCHAR uni0108EC
ENCODING 67820
SWIDTH 500 0
DWIDTH 8 0
BBX 7 10 0 0
BITMAP
20
20
FE
22
22
22
22
22
22
22
ENDCHAR
STARTCHAR uni0108ED
ENCODING 67821
SWIDTH 500 0
DWIDTH 8 0
BBX 1 10 3 -2
BITMAP
80
80
80
80
80
80
80
80
80
80
ENDCHAR
STARTCHAR uni0108EE
ENCODING 67822
SWIDTH 500 0
DWIDTH 8 0
BBX 7 10 0 0
BITMAP
80
80
FE
82
82
82
82
82
82
82
ENDCHAR
STARTCHAR uni0108EF
ENCODING 67823
SWIDTH 500 0
DWIDTH 8 0
BBX 4 7 2 1
BITMAP
80
40
20
10
20
40
80
ENDCHAR
STARTCHAR uni0108F0
ENCODING 67824
SWIDTH 500 0
DWIDTH 8 0
BBX 6 10 1 -2
BITMAP
30
48
84
84
4C
34
04
04
04
04
ENDCHAR
STARTCHAR uni0108F1
ENCODING 67825
SWIDTH 500 0
DWIDTH 8 0
BBX 6 10 1 -2
BITMAP
84
C4
A4
A4
94
94
8C
80
80
80
ENDCHAR
STARTCHAR uni0108F2
ENCODING 67826
SWIDTH 500 0
DWIDTH 8 0
BBX 7 8 0 0
BITMAP
FE
22
22
22
22
22
22
22
ENDCHAR
STARTCHAR uni0108F4
ENCODING 67828
SWIDTH 1000 0
DWIDTH 16 0
BBX 15 8 1 0
BITMAP
C000
B000
8C00
8300
80C0
8030
8008
FFFE
ENDCHAR
STARTCHAR uni0108F5
ENCODING 67829
SWIDTH 500 0
DWIDTH 8 0
BBX 6 10 1 -2
BITMAP
80
80
FC
84
84
84
80
80
80
80
ENDCHAR
STARTCHAR uni0108FB
ENCODING 67835
SWIDTH 500 0
DWIDTH 8 0
BBX 1 9 3 -1
BITMAP
80
80
80
80
80
80
80
80
80
ENDCHAR
STARTCHAR uni0108FC
ENCODING 67836
SWIDTH 500 0
DWIDTH 8 0
BBX 4 7 2 1
BITMAP
80
40
20
10
20
40
80
ENDCHAR
ENDFONT
